<?xml version="1.0" standalone="no"?>
<!DOCTYPE svg PUBLIC "-//W3C//DTD SVG 1.1//EN" "http://www.w3.org/Graphics/SVG/1.1/DTD/svg11.dtd">
<svg width="100%" height="100%" viewBox="0 0 11117 6250" version="1.1" xmlns="http://www.w3.org/2000/svg" xmlns:xlink="http://www.w3.org/1999/xlink" xml:space="preserve" style="fill-rule:evenodd;clip-rule:evenodd;stroke-linejoin:round;stroke-miterlimit:1.41421;">
    <rect x="1779.62" y="3724.43" width="1500" height="733.333" style="fill:rgb(29,59,30);"/>
    <g id="upper ground" transform="matrix(12.2545,0,0,11.1446,661.991,272.707)">
        <path d="M-59.49,-36.992L-59.453,334.039L107.853,334.039C120.931,334.039 127.697,321.327 127.697,321.327L167.702,321.327C167.702,321.327 174.608,334.039 186.316,334.039L298.044,334.039L298.044,525.935L871.086,525.935L867.107,-36.992L-59.49,-36.992Z" style="fill:rgb(40,127,51);"/>
    </g>
    <g id="ground" transform="matrix(10.7862,0,0,10.7862,1740.21,443.819)">
        <path d="M-173.583,551.829L878.409,551.829L878.409,328.383L676.843,328.383C665.135,328.383 658.23,341.096 658.23,341.096L618.225,341.096C618.225,341.096 611.458,328.383 598.38,328.383L-173.583,328.383L-173.583,551.829Z" style="fill:rgb(29,59,30);fill-rule:nonzero;"/>
    </g>
    <g id="light beam" transform="matrix(21.5768,80.5256,-100.655,26.9703,7568.76,-16032.2)">
        <path d="M211.823,-1.1L196.264,94.3L190.53,94.295L176.06,-1.1L211.823,-1.1Z" style="fill:white;fill-opacity:0.15;fill-rule:nonzero;"/>
    </g>
    <g id="light beam1" transform="matrix(21.5768,80.5256,-100.655,26.9703,7568.76,-16032.2)">
        <path d="M211.823,-1.1L203.002,72.565L191.228,72.674L176.06,-1.1L211.823,-1.1Z" style="fill:white;fill-opacity:0.15;fill-rule:nonzero;"/>
    </g>
    <g id="light beam2" transform="matrix(21.5768,80.5256,-100.655,26.9703,7568.76,-16032.2)">
        <path d="M202.063,-0.874L196.144,61.313L190.955,61.356L180.671,-1.27L202.063,-0.874Z" style="fill:white;fill-opacity:0.15;fill-rule:nonzero;"/>
    </g>
    <g id="unbelief" transform="matrix(1,0,0,1,5158.33,2875)">
        <path d="M3681.67,2295.68L3681.67,2774.21L3250.17,2774.21L3250.17,2501.25C3288.36,2501.21 3359.81,2495.08 3405.14,2453.93C3432.1,2429.49 3445.77,2396.71 3445.77,2356.5L3413.41,2356.5C3413.41,2387.6 3403.61,2411.61 3383.47,2429.91C3346.31,2463.68 3283.69,2468.72 3250.17,2468.79L3250.17,2295.68L3681.67,2295.68ZM3681.67,1257.95L3681.67,1800.34L4224.04,1800.34L4224.04,2231.85L2707.78,2231.85L2707.78,1800.34L3250.17,1800.34L3250.17,1257.95L3681.67,1257.95Z" style="fill:black;"/>
    </g>
    <g id="credit" transform="matrix(4.31366,0,0,4.31366,2159.46,659.35)">
        <path d="M58.582,793.875C58.582,792.044 57.117,790.579 55.287,790.579C53.454,790.579 51.99,792.044 51.99,793.875C51.99,795.665 53.454,797.131 55.287,797.131C57.117,797.131 58.582,795.665 58.582,793.875M60.719,798.501C57.597,799.666 54.07,800.173 49.707,798.83L49.116,804.631C49.116,804.631 50.215,805.229 52.207,805.334L52.207,821.764L58.283,821.764L58.283,805.181C59.295,804.988 60.28,804.729 61.234,804.404L60.719,798.501ZM85.308,814.206C85.308,814.206 84.223,814.654 84.013,814.555C83.758,814.433 83.712,814.057 83.712,812.414L83.712,790.299C83.676,784.41 82.762,780.035 82.114,777.246L76.066,780.021C76.999,782.639 78.582,790.899 77.488,792.99L77.326,792.963C71.568,791.683 68.437,795.212 62.927,797.555L63.445,803.487C64.596,803.029 64.495,803.016 65.557,802.356C65.555,804.306 65.55,806.869 65.534,810.222C65.534,820.48 72.507,821.079 79.131,818.488C80.078,819.486 81.224,819.934 82.768,819.934C83.861,819.934 84.709,819.733 86.452,818.938L85.308,814.206ZM77.488,813.061C76.441,813.46 75.197,814.007 74.051,814.007C72.158,814.007 71.81,813.26 71.81,810.421C71.86,803.996 71.86,800.658 71.86,799.561C73.107,799.016 74.252,798.617 75.296,798.617C77.189,798.617 77.488,799.415 77.488,802.253L77.488,813.061M90.038,824.275L44.686,824.275L44.686,773.283L90.038,773.283L90.038,824.275Z" style="fill:white;fill-rule:nonzero;"/>
    </g>
    <path id="belief" d="M2880.42,2364.19L3193.49,2795.71L2675.02,2795.71L2675.02,3338.08L2243.52,3338.08L2243.52,2795.71L1843.91,2795.71L1843.91,2364.19L2880.42,2364.19ZM2188.94,1853.21L2312.78,2315.44L2729.59,2203.76L2718.86,2163.72C2606.41,2173.67 2529.64,2170.99 2524.05,2170.77L2497.11,2169.73L2499.2,2115.84L2526.15,2116.88C2527.44,2116.93 2598.78,2119.37 2704.62,2110.53L2605.74,1741.52L2188.94,1853.21Z" style="fill:rgb(255,252,0);"/>
    <g id="christ" transform="matrix(1,0,0,1,5158.33,2875)">
        <path d="M1260.41,-511.755L763.632,212.161L173.767,212.161L173.767,1038.89L-550.137,1038.89L-550.137,212.161L-1095.17,212.161L-1591.97,-511.755L1260.41,-511.755ZM-607.234,-943.285L-778.472,-1551.68L372.338,-1875.59L638.597,-929.584L-512.213,-605.681L-583.672,-859.57C-575.469,-862.961 -567.325,-866.492 -559.247,-870.171C-522.921,-886.714 -487.85,-906.234 -455.364,-929.474C-428.831,-948.455 -404.033,-969.955 -382.155,-994.185C-373.63,-1003.63 -365.605,-1013.49 -358.02,-1023.7C-356.393,-1025.92 -356.397,-1025.92 -354.788,-1028.15L-328.346,-1065.48C-351.816,-1082.1 -375.285,-1098.73 -398.755,-1115.36L-425.01,-1078.3L-426.241,-1076.59L-427.485,-1074.89C-432.943,-1067.54 -438.696,-1060.43 -444.785,-1053.59C-459.969,-1036.55 -476.996,-1021.19 -495.138,-1007.36C-516.905,-990.76 -540.277,-976.32 -564.506,-963.611C-573.29,-959.004 -582.193,-954.624 -591.193,-950.454C-596.508,-947.992 -601.856,-945.603 -607.234,-943.285Z" style="fill:rgb(255,252,0);"/>
    </g>
    <g transform="matrix(6.97963,-1.8702,1.8702,6.97963,2434.9,602.311)">
        <g>
            <text x="412.055px" y="177.598px" style="font-family:'TabletGothic-Heavy';font-size:17.299px;fill:white;">: Truthfully, t<tspan x="518.616px 529.03px 539.237px 548.284px 558.041px " y="177.598px 177.598px 177.598px 177.598px 177.598px ">oday,</tspan> you</text>
            <text x="418.559px" y="201.598px" style="font-family:'TabletGothic-Heavy';font-size:17.299px;fill:white;">will be with me in par<tspan x="591.099px 600.717px " y="201.598px 201.598px ">ad</tspan>ise.</text>
        </g>
    </g>
    <g transform="matrix(6.97963,-1.8702,1.8702,6.97963,1433.67,839.893)">
        <g>
            <text x="128.848px" y="171.521px" style="font-family:'TabletGothic-Heavy';font-size:17.299px;fill:white;">: L<tspan x="145.075px 155.489px " y="171.521px 171.521px ">or</tspan>d, Remember</text>
            <text x="136.39px" y="186.153px" style="font-family:'TabletGothic-Heavy';font-size:17.299px;fill:white;">me in your kingdom.</text>
        </g>
    </g>
    <g transform="matrix(7.22585,2.505e-15,-3.04218e-15,7.22585,8079.7,-3048.66)">
        <g>
            <text x="45.207px" y="471.491px" style="font-family:'TabletGothic';font-size:11.533px;fill:white;">a para<tspan x="77.775px " y="471.491px ">p</tspan>hra<tspan x="102.052px 107.553px " y="471.491px 471.491px ">se</tspan> of</text>
            <text x="45.207px" y="488.79px" style="font-family:'TabletGothic-Bold';font-size:11.533px;fill:white;">Luke 23:39<tspan x="102.559px " y="488.79px ">–</tspan>47</text>
        </g>
    </g>
</svg>
