<?xml version="1.0" standalone="no"?>
<!DOCTYPE svg PUBLIC "-//W3C//DTD SVG 1.1//EN" "http://www.w3.org/Graphics/SVG/1.1/DTD/svg11.dtd">
<svg width="100%" height="100%" viewBox="0 0 1080 1920" version="1.1" xmlns="http://www.w3.org/2000/svg" xmlns:xlink="http://www.w3.org/1999/xlink" xml:space="preserve" style="fill-rule:evenodd;clip-rule:evenodd;stroke-linejoin:round;stroke-miterlimit:1.41421;">
    <g id="Layer 2">
        <path d="M1080,0L1080,1920L0,1920L0,0L1080,0Z" style="fill:url(#_Linear1);fill-rule:nonzero;"/>
    </g>
    <g id="Layer 1">
        <path d="M575.787,819.051C575.787,811.485 571.07,806.473 563.603,806.473C556.134,806.473 551.418,811.485 551.418,819.051C551.418,826.52 556.134,831.629 563.603,831.629C571.07,831.629 575.787,826.52 575.787,819.051M519.58,856.196L519.58,831.629L540.607,831.629C536.58,825.635 534.712,819.051 534.712,811.19C534.712,792.421 546.013,780.629 563.603,780.629C581.094,780.629 592.492,792.421 592.492,810.797C592.492,819.542 590.232,826.716 585.713,832.612L591.117,832.809L591.117,856.196L519.58,856.196Z" style="fill:white;fill-rule:nonzero;"/>
        <rect x="519.58" y="745.154" width="71.537" height="25.058" style="fill:white;fill-rule:nonzero;"/>
        <path d="M568.319,698.674C568.909,705.159 569.892,708.009 573.33,708.009C576.671,708.009 578.736,704.865 578.736,699.067C578.736,687.962 573.823,681.281 566.846,681.281C566.353,681.281 565.961,681.281 565.469,681.379C567.926,686.292 567.731,692.09 568.319,698.674M592.887,708.894C592.887,726.876 586.892,735.917 574.805,735.917C570.776,735.917 567.337,734.836 564.978,732.969C558.592,727.859 558.002,719.506 557.214,707.616C556.036,690.419 557.214,682.46 552.793,682.46C549.944,682.46 547.781,686.194 547.781,693.367C547.781,701.327 548.961,705.257 553.285,705.945L553.285,731.298C539.135,730.217 534.613,718.327 534.613,693.564C534.613,679.021 536.678,669.194 540.608,664.182C545.522,657.893 551.713,656.616 561.342,656.616L582.569,656.616C586.204,656.616 588.464,656.124 589.938,654.159L591.118,654.159L591.118,679.708C588.858,680.691 586.303,681.182 583.551,681.281C590.527,687.864 592.887,696.512 592.887,708.894" style="fill:white;fill-rule:nonzero;"/>
        <path d="M536.088,643.84L536.088,619.47L541.787,619.47C537.168,612.984 535.008,606.302 535.008,598.342C535.008,589.597 537.955,583.799 544.932,579.475C538.152,572.302 535.008,564.637 535.008,554.908C535.008,538.989 543.262,532.405 560.654,532.405L591.117,532.405L591.117,556.677L565.273,556.677C557.707,556.677 554.463,558.544 554.463,565.128C554.463,572.007 558.1,576.134 564.192,576.134L591.117,576.134L591.117,600.013L565.273,600.013C557.707,600.013 554.463,601.88 554.463,608.464C554.463,615.343 558.1,619.47 564.192,619.47L591.117,619.47L591.117,643.84L536.088,643.84Z" style="fill:white;fill-rule:nonzero;"/>
        <path d="M557.51,468.924C551.516,469.612 547.979,474.525 547.979,482.682C547.979,491.427 551.319,496.832 557.51,498.109L557.51,468.924ZM592.984,484.057C592.984,509.41 581.979,523.167 563.603,523.167C545.227,523.167 534.221,509.41 534.221,484.057C534.221,457.427 546.014,443.67 568.319,443.67L569.303,443.67L569.303,496.832C575.1,496.832 578.637,491.82 578.637,482.583C578.637,476.49 577.065,472.56 574.314,470.89L574.314,444.161C586.401,447.797 592.984,461.26 592.984,484.057" style="fill:white;fill-rule:nonzero;"/>
        <rect x="519.58" y="408.49" width="71.537" height="25.058" style="fill:white;fill-rule:nonzero;"/>
        <path d="M557.51,344.026C551.516,344.714 547.979,349.627 547.979,357.784C547.979,366.529 551.319,371.934 557.51,373.211L557.51,344.026ZM592.984,359.159C592.984,384.512 581.979,398.269 563.603,398.269C545.227,398.269 534.221,384.512 534.221,359.159C534.221,332.529 546.014,318.772 568.319,318.772L569.303,318.772L569.303,371.934C575.1,371.934 578.637,366.922 578.637,357.685C578.637,351.592 577.065,347.662 574.314,345.992L574.314,319.263C586.401,322.899 592.984,336.362 592.984,359.159" style="fill:white;fill-rule:nonzero;"/>
        <path d="M573.527,283.592C577.556,283.199 578.931,280.153 578.931,273.863C578.931,268.262 577.654,265.412 575.197,265.412C571.463,265.412 571.562,269.933 570.579,279.956C569.597,289.979 568.81,298.135 565.961,304.523C563.798,309.338 558.984,312.188 552.596,312.188C539.527,312.188 534.22,300.396 534.22,275.632C534.22,252.048 539.822,240.158 552.695,239.372L552.695,267.672C548.763,267.967 547.388,271.21 547.388,277.696C547.388,283.395 548.568,286.147 551.22,286.147C554.857,286.147 554.66,282.216 555.447,273.47C556.625,260.303 557.314,251.95 558.492,248.511C561.342,240.452 565.076,237.014 573.036,237.014C587.579,237.014 592.984,249.493 592.984,276.713C592.984,301.083 587.382,312.974 573.527,313.563L573.527,283.592Z" style="fill:white;fill-rule:nonzero;"/>
        <path d="M573.527,201.243C577.556,200.85 578.931,197.804 578.931,191.515C578.931,185.913 577.654,183.063 575.197,183.063C571.463,183.063 571.562,187.584 570.579,197.607C569.597,207.63 568.81,215.786 565.961,222.174C563.798,226.989 558.984,229.839 552.596,229.839C539.527,229.839 534.22,218.047 534.22,193.283C534.22,169.699 539.822,157.809 552.695,157.023L552.695,185.323C548.763,185.618 547.388,188.861 547.388,195.347C547.388,201.046 548.568,203.798 551.22,203.798C554.857,203.798 554.66,199.867 555.447,191.121C556.625,177.954 557.314,169.601 558.492,166.162C561.342,158.104 565.076,154.665 573.036,154.665C587.579,154.665 592.984,167.144 592.984,194.364C592.984,218.734 587.382,230.625 573.527,231.214L573.527,201.243Z" style="fill:white;fill-rule:nonzero;"/>
        <path d="M512.072,940.271L508.856,942.98L506.77,940.503L515.999,932.73L518.085,935.207L514.869,937.915L525.434,950.458L522.638,952.814L512.072,940.271Z" style="fill:white;fill-rule:nonzero;"/>
        <path d="M520.461,935.354L523.058,933.166L532.565,944.453L529.968,946.64L520.461,935.354ZM517.316,931.62L519.913,929.432L521.88,931.768L519.283,933.956L517.316,931.62Z" style="fill:white;fill-rule:nonzero;"/>
        <path d="M534.701,936.815C535.542,937.815 535.938,938.162 536.677,937.54C536.758,937.473 536.857,937.389 536.941,937.286L538.657,939.321C538.087,939.903 537.642,940.348 537.342,940.599C535.365,942.266 534.39,941.757 532.792,939.858L527.088,933.086L526.068,933.945L524.436,932.007L525.455,931.148L522.865,928.074L525.481,925.869L528.071,928.945L529.151,928.036L530.783,929.974L529.704,930.882L534.062,936.056C534.298,936.336 534.516,936.595 534.701,936.815" style="fill:white;fill-rule:nonzero;"/>
        <path d="M547.665,931.734L545.109,933.888L544.167,932.77C544.419,934.164 544.002,935.332 542.983,936.191C541.366,937.553 539.676,937.37 538.179,935.593L530.708,926.724L533.225,924.605L539.434,931.974C540.528,933.274 541.3,933.785 542.218,933.011C543.157,932.221 542.861,931.341 541.616,929.864L535.542,922.653L538.159,920.448L547.665,931.734Z" style="fill:white;fill-rule:nonzero;"/>
        <path d="M548.715,924.43C548.817,924.549 548.9,924.649 548.984,924.749C550.062,926.028 550.838,926.261 551.778,925.47C552.516,924.847 552.602,924.057 552.031,923.379C551.374,922.6 550.387,922.886 548.742,923.043C545.808,923.328 544.046,923.549 542.415,921.611C540.749,919.634 541.082,917.475 543.458,915.472C545.755,913.538 547.871,913.736 549.856,916.094C549.923,916.173 549.99,916.254 550.058,916.333L547.761,918.268C547.692,918.189 547.625,918.109 547.558,918.03C546.65,916.951 545.829,916.787 544.931,917.544C544.272,918.099 544.189,918.853 544.676,919.432C545.249,920.11 546.066,920.07 547.507,919.914C550.669,919.574 552.676,919.078 554.444,921.176C556.093,923.134 555.806,925.39 553.389,927.424C550.912,929.511 548.812,929.368 546.708,926.872C546.591,926.731 546.493,926.575 546.359,926.415L548.715,924.43Z" style="fill:white;fill-rule:nonzero;"/>
        <path d="M557.862,905.049L554.546,907.842L553.049,906.065C555.456,903.935 556.046,901.797 554.822,899.859L556.678,898.294L569.416,913.414L566.78,915.635L557.862,905.049Z" style="fill:white;fill-rule:nonzero;"/>
        <path d="M571.759,906.833L574.255,904.73L576.527,907.425L574.03,909.528L571.759,906.833ZM564.675,898.423L567.172,896.32L569.443,899.016L566.947,901.119L564.675,898.423Z" style="fill:white;fill-rule:nonzero;"/>
        <path d="M574.042,888.382L568.408,893.127L566.323,890.65L574.632,883.65L576.449,885.807C577.591,891.299 579.974,896.6 583.537,901.52L580.661,903.942C577.879,900.071 575.601,894.855 574.042,888.382" style="fill:white;fill-rule:nonzero;"/>
        <path d="M582.573,891.338L592.562,882.926L593.89,884.503L583.903,892.916L582.573,891.338Z" style="fill:white;fill-rule:nonzero;"/>
        <path d="M598.013,882.021C599.426,883.699 600.292,884.198 601.389,883.273C602.529,882.315 602.129,881.354 600.565,879.496C599.068,877.718 598.064,877.095 596.965,878.02C595.807,878.996 596.331,880.024 598.013,882.021M595.3,876.043C596.218,875.27 596.017,874.381 594.856,873.003C593.678,871.605 592.874,871.256 591.896,872.081C590.996,872.838 591.255,873.713 592.399,875.072C593.56,876.45 594.36,876.834 595.3,876.043M589.586,876.962C587.55,874.544 587.775,872.137 590.272,870.034C592.749,867.947 595.198,868.139 597.285,870.616C598.731,872.334 598.967,873.91 597.982,875.457C599.869,874.414 601.485,875.034 603.385,877.289C606.077,880.486 606.027,883.022 603.171,885.428C600.375,887.783 597.918,887.462 595.343,884.406C593.393,882.088 592.968,880.328 594.226,878.62C592.649,879.3 591.085,878.74 589.586,876.962" style="fill:white;fill-rule:nonzero;"/>
        <path d="M344.413,1087.73L349.923,1087.73L349.923,1095.87C351.19,1094.07 352.804,1093.24 355.084,1093.24C358.6,1093.24 360.5,1095.2 360.5,1098.94L360.5,1110.5L354.99,1110.5L354.99,1102.05C354.99,1098.94 354.863,1097.45 352.678,1097.45C350.683,1097.45 349.892,1098.75 349.892,1101.51L349.892,1110.5L344.413,1110.5L344.413,1087.73Z" style="fill:white;fill-rule:nonzero;"/>
        <path d="M372.147,1106.86C374.205,1106.86 375.44,1105.18 375.44,1102.08C375.44,1098.97 374.205,1097.33 372.147,1097.33C370.089,1097.33 368.885,1098.97 368.885,1102.08C368.885,1105.18 370.089,1106.86 372.147,1106.86M372.147,1093.08C377.752,1093.08 381.077,1096.47 381.077,1102.08C381.077,1107.68 377.752,1111.07 372.147,1111.07C366.542,1111.07 363.249,1107.71 363.249,1102.08C363.249,1096.44 366.574,1093.08 372.147,1093.08" style="fill:white;fill-rule:nonzero;"/>
        <path d="M388.702,1105.37C388.828,1106.86 389.81,1107.59 391.647,1107.59C393.198,1107.59 394.148,1106.95 394.148,1105.94C394.148,1104.58 392.312,1104.64 389.303,1103.66C385.535,1102.42 383.825,1101.25 383.825,1098.56C383.825,1095.2 386.517,1093.08 391.14,1093.08C396.016,1093.08 398.676,1094.76 398.993,1098.05L393.705,1098.05C393.483,1096.91 392.692,1096.38 391.267,1096.38C389.936,1096.38 389.209,1096.91 389.209,1097.83C389.209,1099.01 390.601,1099.16 392.913,1099.83C395.415,1100.56 397.062,1101.06 397.79,1101.6C399.025,1102.52 399.563,1103.66 399.563,1105.21C399.563,1108.79 396.681,1111.04 391.489,1111.04C386.422,1111.04 383.477,1108.92 383.192,1105.37L388.702,1105.37Z" style="fill:white;fill-rule:nonzero;"/>
        <path d="M411.242,1097.64C409.152,1097.64 408.044,1099.23 408.044,1102.3C408.044,1105.15 409.278,1106.7 411.337,1106.7C413.269,1106.7 414.503,1105.08 414.503,1102.3C414.503,1099.26 413.332,1097.64 411.242,1097.64M402.629,1093.68L408.138,1093.68L408.138,1095.93C409.374,1094.1 410.956,1093.24 413.11,1093.24C417.258,1093.24 420.204,1096.72 420.204,1102.04C420.204,1107.49 417.164,1111.04 413.173,1111.04C410.956,1111.04 409.215,1110.12 408.107,1108.41L408.107,1117.24L402.629,1117.24L402.629,1093.68Z" style="fill:white;fill-rule:nonzero;"/>
        <path d="M423.078,1093.68L428.557,1093.68L428.557,1110.5L423.078,1110.5L423.078,1093.68ZM423.078,1087.73L428.557,1087.73L428.557,1092.16L423.078,1092.16L423.078,1087.73Z" style="fill:white;fill-rule:nonzero;"/>
        <path d="M430.708,1093.68L432.956,1093.68L432.956,1088.93L438.466,1088.93L438.466,1093.68L441.284,1093.68L441.284,1097.01L438.466,1097.01L438.466,1104.29C438.466,1106.32 438.783,1107.05 440.524,1107.05C440.715,1107.05 440.968,1107.05 441.221,1107.02L441.221,1110.53C440.113,1110.75 439.004,1110.88 437.928,1110.88C433.558,1110.88 432.956,1108.76 432.956,1103.53L432.956,1097.01L430.708,1097.01L430.708,1093.68Z" style="fill:white;fill-rule:nonzero;"/>
        <path d="M449.956,1103.6C448.721,1103.94 448.151,1104.45 448.151,1105.46C448.151,1106.64 448.943,1107.46 450.177,1107.46C452.046,1107.46 453.376,1106.29 453.376,1104.51L453.376,1102.58C452.426,1103.18 451.19,1103.25 449.956,1103.6M453.819,1110.5C453.692,1109.96 453.598,1109.39 453.534,1108.76C451.983,1110.31 450.272,1111.04 448.183,1111.04C444.889,1111.04 442.926,1109.07 442.926,1106.1C442.926,1103.28 444.414,1101.57 447.391,1100.87C451.286,1099.95 453.376,1100.21 453.376,1098.91L453.376,1098.5C453.376,1097.52 452.616,1097.01 451.19,1097.01C449.608,1097.01 448.689,1097.67 448.468,1098.91L443.401,1098.91C443.939,1095.08 446.536,1093.27 451.318,1093.27C454.263,1093.27 456.321,1093.97 457.492,1095.46C458.537,1096.82 458.601,1098.53 458.601,1100.84L458.601,1107.21C458.601,1108.69 458.854,1109.58 459.424,1109.87L459.424,1110.5L453.819,1110.5Z" style="fill:white;fill-rule:nonzero;"/>
        <path d="M471.04,1097.48C468.981,1097.48 467.747,1099.07 467.747,1101.92C467.747,1104.99 468.855,1106.57 470.945,1106.57C473.034,1106.57 474.206,1104.96 474.206,1101.92C474.206,1099.13 472.971,1097.48 471.04,1097.48M467.81,1087.73L467.81,1095.81C468.918,1094.1 470.659,1093.18 472.876,1093.18C476.867,1093.18 479.907,1096.72 479.907,1102.17C479.907,1107.49 476.961,1110.97 472.813,1110.97C470.659,1110.97 469.076,1110.12 467.841,1108.28L467.841,1110.53L462.332,1110.53L462.332,1087.73L467.81,1087.73Z" style="fill:white;fill-rule:nonzero;"/>
        <rect x="482.75" y="1087.73" width="5.51" height="22.768" style="fill:white;fill-rule:nonzero;"/>
        <path d="M502.919,1100.3C502.887,1098.12 501.684,1096.85 499.784,1096.85C498.011,1096.85 496.871,1098.05 496.649,1100.3L502.919,1100.3ZM507.922,1105.21C506.94,1108.88 503.932,1111.01 499.626,1111.01C494.432,1111.01 491.171,1107.65 491.171,1102.17C491.171,1096.53 494.495,1093.12 499.626,1093.12C504.914,1093.12 508.207,1096.57 508.207,1102.42C508.207,1102.74 508.207,1103.09 508.175,1103.41L496.807,1103.41C496.807,1105.78 497.852,1107.05 499.815,1107.05C501.304,1107.05 502.254,1106.41 502.634,1105.21L507.922,1105.21Z" style="fill:white;fill-rule:nonzero;"/>
        <path d="M381.801,1154.78C381.927,1156.27 382.909,1157 384.746,1157C386.297,1157 387.247,1156.36 387.247,1155.35C387.247,1153.99 385.411,1154.05 382.402,1153.07C378.634,1151.84 376.924,1150.66 376.924,1147.97C376.924,1144.62 379.616,1142.49 384.239,1142.49C389.115,1142.49 391.775,1144.17 392.092,1147.46L386.804,1147.46C386.582,1146.33 385.791,1145.79 384.366,1145.79C383.035,1145.79 382.308,1146.33 382.308,1147.24C382.308,1148.42 383.7,1148.57 386.012,1149.24C388.514,1149.97 390.161,1150.47 390.889,1151.01C392.124,1151.93 392.662,1153.07 392.662,1154.62C392.662,1158.2 389.78,1160.45 384.588,1160.45C379.521,1160.45 376.576,1158.33 376.291,1154.78L381.801,1154.78Z" style="fill:white;fill-rule:nonzero;"/>
        <path d="M406.462,1149.71C406.431,1147.53 405.228,1146.26 403.328,1146.26C401.554,1146.26 400.414,1147.47 400.192,1149.71L406.462,1149.71ZM411.466,1154.62C410.484,1158.3 407.475,1160.42 403.169,1160.42C397.976,1160.42 394.714,1157.06 394.714,1151.58C394.714,1145.95 398.039,1142.53 403.169,1142.53C408.457,1142.53 411.75,1145.98 411.75,1151.84C411.75,1152.15 411.75,1152.5 411.719,1152.82L400.351,1152.82C400.351,1155.19 401.395,1156.46 403.359,1156.46C404.848,1156.46 405.797,1155.83 406.177,1154.62L411.466,1154.62Z" style="fill:white;fill-rule:nonzero;"/>
        <path d="M414.562,1143.1L419.946,1143.1L419.946,1145.41C421.086,1143.57 422.732,1142.68 425.044,1142.68C429.129,1142.68 430.649,1144.68 430.649,1148.99L430.649,1159.91L425.139,1159.91L425.139,1151.46C425.139,1148.35 425.012,1146.86 422.827,1146.86C420.832,1146.86 420.04,1148.16 420.04,1150.92L420.04,1159.91L414.562,1159.91L414.562,1143.1Z" style="fill:white;fill-rule:nonzero;"/>
        <path d="M439.066,1154.78C439.193,1156.27 440.174,1157 442.011,1157C443.563,1157 444.513,1156.36 444.513,1155.35C444.513,1153.99 442.676,1154.05 439.668,1153.07C435.9,1151.84 434.19,1150.66 434.19,1147.97C434.19,1144.62 436.881,1142.49 441.505,1142.49C446.381,1142.49 449.041,1144.17 449.358,1147.46L444.07,1147.46C443.848,1146.33 443.056,1145.79 441.631,1145.79C440.301,1145.79 439.573,1146.33 439.573,1147.24C439.573,1148.42 440.967,1148.57 443.278,1149.24C445.78,1149.97 447.426,1150.47 448.154,1151.01C449.39,1151.93 449.928,1153.07 449.928,1154.62C449.928,1158.2 447.047,1160.45 441.853,1160.45C436.786,1160.45 433.841,1158.33 433.556,1154.78L439.066,1154.78Z" style="fill:white;fill-rule:nonzero;"/>
        <path d="M452.929,1143.1L458.407,1143.1L458.407,1159.91L452.929,1159.91L452.929,1143.1ZM452.929,1137.14L458.407,1137.14L458.407,1141.58L452.929,1141.58L452.929,1137.14Z" style="fill:white;fill-rule:nonzero;"/>
        <path d="M471.04,1146.9C468.981,1146.9 467.747,1148.48 467.747,1151.33C467.747,1154.4 468.855,1155.98 470.945,1155.98C473.034,1155.98 474.206,1154.37 474.206,1151.33C474.206,1148.54 472.971,1146.9 471.04,1146.9M467.81,1137.14L467.81,1145.22C468.918,1143.51 470.659,1142.59 472.876,1142.59C476.867,1142.59 479.907,1146.14 479.907,1151.58C479.907,1156.9 476.961,1160.39 472.813,1160.39C470.659,1160.39 469.076,1159.53 467.841,1157.69L467.841,1159.94L462.332,1159.94L462.332,1137.14L467.81,1137.14Z" style="fill:white;fill-rule:nonzero;"/>
        <rect x="482.75" y="1137.14" width="5.51" height="22.768" style="fill:white;fill-rule:nonzero;"/>
        <path d="M502.919,1149.71C502.887,1147.53 501.684,1146.26 499.784,1146.26C498.011,1146.26 496.871,1147.47 496.649,1149.71L502.919,1149.71ZM507.922,1154.62C506.94,1158.3 503.932,1160.42 499.626,1160.42C494.432,1160.42 491.171,1157.06 491.171,1151.58C491.171,1145.95 494.495,1142.53 499.626,1142.53C504.914,1142.53 508.207,1145.98 508.207,1151.84C508.207,1152.15 508.207,1152.5 508.175,1152.82L496.807,1152.82C496.807,1155.19 497.852,1156.46 499.815,1156.46C501.304,1156.46 502.254,1155.83 502.634,1154.62L507.922,1154.62Z" style="fill:white;fill-rule:nonzero;"/>
        <path d="M412.32,1209.32L406.937,1209.32L406.937,1207.01C405.607,1208.88 403.992,1209.73 401.839,1209.73C398.133,1209.73 396.233,1207.84 396.233,1204.07L396.233,1192.51L401.744,1192.51L401.744,1201.91C401.744,1204.41 402.187,1205.56 404.055,1205.56C406.05,1205.56 406.81,1204.26 406.81,1201.5L406.81,1192.51L412.32,1192.51L412.32,1209.32Z" style="fill:white;fill-rule:nonzero;"/>
        <path d="M424.823,1196.47C422.733,1196.47 421.625,1198.05 421.625,1201.12C421.625,1203.97 422.859,1205.52 424.918,1205.52C426.85,1205.52 428.084,1203.91 428.084,1201.12C428.084,1198.08 426.913,1196.47 424.823,1196.47M416.21,1192.51L421.719,1192.51L421.719,1194.76C422.955,1192.92 424.538,1192.06 426.691,1192.06C430.839,1192.06 433.785,1195.55 433.785,1200.87C433.785,1206.32 430.745,1209.86 426.754,1209.86C424.538,1209.86 422.796,1208.94 421.688,1207.23L421.688,1216.07L416.21,1216.07L416.21,1192.51Z" style="fill:white;fill-rule:nonzero;"/>
        <path d="M436.659,1192.51L441.947,1192.51L441.947,1195.45C443.119,1193.14 444.797,1192.13 447.489,1192.1L447.489,1197.54C447.014,1197.48 446.539,1197.45 446.127,1197.45C444.449,1197.45 443.372,1197.92 442.707,1199C442.201,1199.86 442.138,1201.38 442.138,1203.69L442.138,1209.32L436.659,1209.32L436.659,1192.51Z" style="fill:white;fill-rule:nonzero;"/>
        <path d="M450.018,1192.51L455.496,1192.51L455.496,1209.32L450.018,1209.32L450.018,1192.51ZM450.018,1186.56L455.496,1186.56L455.496,1190.99L450.018,1190.99L450.018,1186.56Z" style="fill:white;fill-rule:nonzero;"/>
        <path d="M467.305,1205.14C469.363,1205.14 470.598,1203.59 470.598,1200.84C470.598,1197.86 469.49,1196.34 467.4,1196.34C465.31,1196.34 464.138,1197.89 464.138,1200.84C464.138,1203.56 465.374,1205.14 467.305,1205.14M464.898,1210.75C465.183,1211.76 466.007,1212.24 467.432,1212.24C469.965,1212.24 470.661,1211.13 470.661,1208.56L470.661,1206.79C469.458,1208.6 467.749,1209.48 465.469,1209.48C461.447,1209.48 458.438,1206.09 458.438,1200.87C458.438,1195.55 461.383,1192.07 465.532,1192.07C467.843,1192.07 469.49,1192.89 470.852,1194.76L470.852,1192.51L476.013,1192.51L476.013,1206.38C476.013,1209.29 475.981,1211.41 475,1212.93C473.701,1214.96 471.168,1216.1 467.59,1216.1C462.523,1216.1 459.895,1214.42 459.389,1210.75L464.898,1210.75Z" style="fill:white;fill-rule:nonzero;"/>
        <path d="M479.838,1186.56L485.348,1186.56L485.348,1194.69C486.615,1192.89 488.229,1192.06 490.509,1192.06C494.025,1192.06 495.925,1194.03 495.925,1197.77L495.925,1209.32L490.415,1209.32L490.415,1200.87C490.415,1197.77 490.288,1196.28 488.103,1196.28C486.108,1196.28 485.317,1197.57 485.317,1200.33L485.317,1209.32L479.838,1209.32L479.838,1186.56Z" style="fill:white;fill-rule:nonzero;"/>
        <path d="M497.914,1192.51L500.162,1192.51L500.162,1187.76L505.672,1187.76L505.672,1192.51L508.49,1192.51L508.49,1195.83L505.672,1195.83L505.672,1203.12C505.672,1205.14 505.988,1205.87 507.73,1205.87C507.921,1205.87 508.174,1205.87 508.427,1205.84L508.427,1209.36C507.319,1209.58 506.21,1209.7 505.134,1209.7C500.764,1209.7 500.162,1207.58 500.162,1202.36L500.162,1195.83L497.914,1195.83L497.914,1192.51Z" style="fill:white;fill-rule:nonzero;"/>
        <path d="M411.02,1254.81C413.11,1254.81 414.218,1253.22 414.218,1250.15C414.218,1247.3 413.015,1245.72 410.956,1245.72C409.025,1245.72 407.758,1247.37 407.758,1250.15C407.758,1253.19 408.93,1254.81 411.02,1254.81M419.633,1258.77L414.124,1258.77L414.124,1256.52C412.888,1258.35 411.305,1259.21 409.152,1259.21C405.004,1259.21 402.058,1255.73 402.058,1250.41C402.058,1244.96 405.098,1241.41 409.089,1241.41C411.305,1241.41 413.047,1242.33 414.155,1244.04L414.155,1235.97L419.633,1235.97L419.633,1258.77Z" style="fill:white;fill-rule:nonzero;"/>
        <path d="M434.256,1248.54C434.225,1246.35 433.022,1245.09 431.122,1245.09C429.348,1245.09 428.208,1246.29 427.986,1248.54L434.256,1248.54ZM439.26,1253.45C438.278,1257.12 435.269,1259.24 430.963,1259.24C425.77,1259.24 422.508,1255.88 422.508,1250.41C422.508,1244.77 425.833,1241.35 430.963,1241.35C436.251,1241.35 439.544,1244.8 439.544,1250.66C439.544,1250.98 439.544,1251.33 439.513,1251.64L428.145,1251.64C428.145,1254.02 429.189,1255.28 431.153,1255.28C432.641,1255.28 433.591,1254.65 433.971,1253.45L439.26,1253.45Z" style="fill:white;fill-rule:nonzero;"/>
        <path d="M440.236,1241.92L446.063,1241.92L449.292,1253.63L452.554,1241.92L458.349,1241.92L452.11,1258.74L446.474,1258.74L440.236,1241.92Z" style="fill:white;fill-rule:nonzero;"/>
        <path d="M468.001,1255.09C470.059,1255.09 471.294,1253.41 471.294,1250.31C471.294,1247.21 470.059,1245.56 468.001,1245.56C465.943,1245.56 464.739,1247.21 464.739,1250.31C464.739,1253.41 465.943,1255.09 468.001,1255.09M468.001,1241.32C473.606,1241.32 476.931,1244.71 476.931,1250.31C476.931,1255.92 473.606,1259.3 468.001,1259.3C462.396,1259.3 459.103,1255.95 459.103,1250.31C459.103,1244.67 462.428,1241.32 468.001,1241.32" style="fill:white;fill-rule:nonzero;"/>
        <path d="M495.797,1258.74L490.414,1258.74L490.414,1256.42C489.084,1258.29 487.469,1259.15 485.315,1259.15C481.61,1259.15 479.71,1257.25 479.71,1253.48L479.71,1241.92L485.221,1241.92L485.221,1251.33C485.221,1253.83 485.664,1254.97 487.532,1254.97C489.527,1254.97 490.287,1253.67 490.287,1250.91L490.287,1241.92L495.797,1241.92L495.797,1258.74Z" style="fill:white;fill-rule:nonzero;"/>
        <path d="M497.913,1241.92L500.162,1241.92L500.162,1237.17L505.671,1237.17L505.671,1241.92L508.489,1241.92L508.489,1245.25L505.671,1245.25L505.671,1252.53C505.671,1254.56 505.988,1255.28 507.729,1255.28C507.92,1255.28 508.173,1255.28 508.426,1255.25L508.426,1258.77C507.318,1258.99 506.209,1259.12 505.133,1259.12C500.763,1259.12 500.162,1256.99 500.162,1251.77L500.162,1245.25L497.913,1245.25L497.913,1241.92Z" style="fill:white;fill-rule:nonzero;"/>
        <path d="M286.786,1303.02C286.913,1304.51 287.894,1305.23 289.731,1305.23C291.283,1305.23 292.233,1304.6 292.233,1303.59C292.233,1302.23 290.396,1302.29 287.388,1301.31C283.62,1300.07 281.91,1298.9 281.91,1296.21C281.91,1292.85 284.601,1290.73 289.225,1290.73C294.101,1290.73 296.761,1292.41 297.078,1295.7L291.79,1295.7C291.568,1294.56 290.776,1294.02 289.351,1294.02C288.021,1294.02 287.293,1294.56 287.293,1295.48C287.293,1296.65 288.687,1296.81 290.998,1297.48C293.5,1298.2 295.146,1298.71 295.874,1299.25C297.11,1300.17 297.648,1301.31 297.648,1302.86C297.648,1306.44 294.767,1308.68 289.573,1308.68C284.506,1308.68 281.561,1306.56 281.276,1303.02L286.786,1303.02Z" style="fill:white;fill-rule:nonzero;"/>
        <path d="M311.448,1297.95C311.416,1295.77 310.214,1294.5 308.314,1294.5C306.54,1294.5 305.4,1295.7 305.178,1297.95L311.448,1297.95ZM316.452,1302.86C315.47,1306.53 312.461,1308.65 308.155,1308.65C302.962,1308.65 299.7,1305.3 299.7,1299.82C299.7,1294.18 303.025,1290.76 308.155,1290.76C313.443,1290.76 316.736,1294.21 316.736,1300.07C316.736,1300.39 316.736,1300.74 316.705,1301.05L305.337,1301.05C305.337,1303.43 306.381,1304.69 308.345,1304.69C309.833,1304.69 310.783,1304.06 311.163,1302.86L316.452,1302.86Z" style="fill:white;fill-rule:nonzero;"/>
        <rect x="319.517" y="1285.38" width="5.51" height="22.768" style="fill:white;fill-rule:nonzero;"/>
        <path d="M329.742,1295.13L327.335,1295.13L327.335,1291.74L329.742,1291.74C329.711,1291.36 329.711,1290.98 329.711,1290.63C329.711,1286.71 331.357,1285.19 335.569,1285.19C336.17,1285.19 336.993,1285.22 337.975,1285.28L337.975,1288.96C337.69,1288.92 337.406,1288.92 337.184,1288.92C335.6,1288.92 335.252,1289.5 335.252,1291.27L335.252,1291.74L337.975,1291.74L337.975,1295.13L335.252,1295.13L335.252,1308.15L329.742,1308.15L329.742,1295.13Z" style="fill:white;fill-rule:nonzero;"/>
        <rect x="339.158" y="1297.44" width="7.916" height="4.591" style="fill:white;fill-rule:nonzero;"/>
        <path d="M357.9,1308.68C352.866,1308.68 349.572,1305.17 349.572,1299.91C349.572,1294.18 352.929,1290.73 358.185,1290.73C362.808,1290.73 365.785,1293.2 366.134,1297.29L360.592,1297.29C360.275,1295.73 359.452,1294.94 358.153,1294.94C356.254,1294.94 355.241,1296.59 355.241,1299.75C355.241,1302.83 356.159,1304.35 358.09,1304.35C359.515,1304.35 360.37,1303.55 360.687,1301.91L366.102,1301.91C365.564,1306.18 362.524,1308.68 357.9,1308.68" style="fill:white;fill-rule:nonzero;"/>
        <path d="M376.768,1304.51C378.826,1304.51 380.061,1302.83 380.061,1299.72C380.061,1296.62 378.826,1294.97 376.768,1294.97C374.71,1294.97 373.506,1296.62 373.506,1299.72C373.506,1302.83 374.71,1304.51 376.768,1304.51M376.768,1290.73C382.373,1290.73 385.698,1294.12 385.698,1299.72C385.698,1305.33 382.373,1308.72 376.768,1308.72C371.162,1308.72 367.869,1305.36 367.869,1299.72C367.869,1294.09 371.195,1290.73 376.768,1290.73" style="fill:white;fill-rule:nonzero;"/>
        <path d="M388.604,1291.33L393.988,1291.33L393.988,1293.64C395.128,1291.81 396.774,1290.92 399.086,1290.92C403.171,1290.92 404.691,1292.91 404.691,1297.22L404.691,1308.15L399.181,1308.15L399.181,1299.69C399.181,1296.59 399.054,1295.1 396.869,1295.1C394.874,1295.1 394.082,1296.4 394.082,1299.15L394.082,1308.15L388.604,1308.15L388.604,1291.33Z" style="fill:white;fill-rule:nonzero;"/>
        <path d="M406.68,1291.33L408.929,1291.33L408.929,1286.58L414.438,1286.58L414.438,1291.33L417.256,1291.33L417.256,1294.66L414.438,1294.66L414.438,1301.94C414.438,1303.97 414.755,1304.69 416.496,1304.69C416.687,1304.69 416.94,1304.69 417.193,1304.66L417.193,1308.18C416.085,1308.4 414.976,1308.53 413.9,1308.53C409.53,1308.53 408.929,1306.4 408.929,1301.18L408.929,1294.66L406.68,1294.66L406.68,1291.33Z" style="fill:white;fill-rule:nonzero;"/>
        <path d="M419.786,1291.33L425.074,1291.33L425.074,1294.28C426.246,1291.96 427.925,1290.95 430.616,1290.92L430.616,1296.37C430.141,1296.3 429.666,1296.27 429.254,1296.27C427.576,1296.27 426.499,1296.75 425.834,1297.82C425.328,1298.68 425.264,1300.2 425.264,1302.51L425.264,1308.15L419.786,1308.15L419.786,1291.33Z" style="fill:white;fill-rule:nonzero;"/>
        <path d="M441.093,1304.51C443.151,1304.51 444.386,1302.83 444.386,1299.72C444.386,1296.62 443.151,1294.97 441.093,1294.97C439.035,1294.97 437.831,1296.62 437.831,1299.72C437.831,1302.83 439.035,1304.51 441.093,1304.51M441.093,1290.73C446.698,1290.73 450.023,1294.12 450.023,1299.72C450.023,1305.33 446.698,1308.72 441.093,1308.72C435.488,1308.72 432.195,1305.36 432.195,1299.72C432.195,1294.09 435.52,1290.73 441.093,1290.73" style="fill:white;fill-rule:nonzero;"/>
        <rect x="452.898" y="1285.38" width="5.51" height="22.768" style="fill:white;fill-rule:nonzero;"/>
        <rect x="462.237" y="1285.38" width="5.51" height="22.768" style="fill:white;fill-rule:nonzero;"/>
        <path d="M482.405,1297.95C482.374,1295.77 481.17,1294.5 479.27,1294.5C477.497,1294.5 476.357,1295.7 476.136,1297.95L482.405,1297.95ZM487.408,1302.86C486.427,1306.53 483.418,1308.65 479.112,1308.65C473.918,1308.65 470.657,1305.3 470.657,1299.82C470.657,1294.18 473.982,1290.76 479.112,1290.76C484.4,1290.76 487.694,1294.21 487.694,1300.07C487.694,1300.39 487.694,1300.74 487.661,1301.05L476.293,1301.05C476.293,1303.43 477.338,1304.69 479.302,1304.69C480.79,1304.69 481.74,1304.06 482.119,1302.86L487.408,1302.86Z" style="fill:white;fill-rule:nonzero;"/>
        <path d="M498.581,1304.22C500.67,1304.22 501.778,1302.64 501.778,1299.57C501.778,1296.71 500.576,1295.13 498.516,1295.13C496.585,1295.13 495.319,1296.78 495.319,1299.57C495.319,1302.61 496.491,1304.22 498.581,1304.22M507.194,1308.18L501.684,1308.18L501.684,1305.93C500.448,1307.77 498.866,1308.62 496.713,1308.62C492.564,1308.62 489.619,1305.14 489.619,1299.82C489.619,1294.37 492.658,1290.83 496.65,1290.83C498.866,1290.83 500.607,1291.74 501.715,1293.45L501.715,1285.38L507.194,1285.38L507.194,1308.18Z" style="fill:white;fill-rule:nonzero;"/>
        <path d="M511.037,1043.54C500.971,1048.1 491.347,1050.37 481.217,1050.37C470.581,1050.37 460.894,1048.03 451.334,1043.16L451.334,1035.43C460.894,1039.1 470.707,1040.94 480.837,1040.94C490.65,1040.94 500.717,1039.23 511.037,1035.81L511.037,1043.54Z" style="fill:rgb(156,157,159);fill-rule:nonzero;"/>
        <path d="M451.14,961.446C461.206,956.887 470.83,954.609 480.96,954.609C491.596,954.609 501.283,956.95 510.843,961.827L510.843,969.55C501.283,965.879 491.47,964.042 481.34,964.042C471.527,964.042 461.46,965.751 451.14,969.171L451.14,961.446Z" style="fill:rgb(156,157,159);fill-rule:nonzero;"/>
        <path d="M465.231,993.74L473.096,993.74L473.096,1013.35L465.231,1013.35L465.231,993.74ZM465.231,986.133L473.096,986.133L473.096,991.745L465.231,991.745L465.231,986.133Z" style="fill:white;fill-rule:nonzero;"/>
        <path d="M484.139,1007.18C484.139,1008.84 484.988,1009.65 486.687,1009.65C488.348,1009.65 489.234,1009.06 489.234,1008.03C489.234,1006.62 488.127,1006.48 485.949,1006C479.893,1004.71 477.087,1003.63 477.087,999.5C477.087,995.327 480.373,993.038 486.724,993.038C492.595,993.038 495.807,995.142 496.287,999.205L489.271,999.205C489.161,998.06 488.2,997.284 486.798,997.284C485.394,997.284 484.693,997.801 484.693,998.65C484.693,1000.05 485.985,1000.05 488.422,1000.61C494.256,1001.94 496.952,1003.01 496.952,1007.25C496.952,1011.72 493.444,1014.05 486.576,1014.05C480.225,1014.05 476.902,1011.76 476.57,1007.18L484.139,1007.18Z" style="fill:white;fill-rule:nonzero;"/>
        <path d="M624.916,991.543C623.682,991.891 623.112,992.398 623.112,993.411C623.112,994.583 623.903,995.406 625.139,995.406C627.007,995.406 628.337,994.234 628.337,992.461L628.337,990.53C627.386,991.132 626.152,991.194 624.916,991.543M628.78,998.446C628.653,997.907 628.558,997.337 628.495,996.705C626.943,998.256 625.234,998.985 623.143,998.985C619.849,998.985 617.887,997.021 617.887,994.044C617.887,991.227 619.375,989.516 622.352,988.819C626.247,987.901 628.337,988.155 628.337,986.856L628.337,986.444C628.337,985.463 627.577,984.956 626.152,984.956C624.569,984.956 623.649,985.621 623.428,986.856L618.362,986.856C618.9,983.025 621.497,981.219 626.278,981.219C629.223,981.219 631.281,981.916 632.453,983.404C633.498,984.766 633.561,986.476 633.561,988.787L633.561,995.153C633.561,996.64 633.815,997.528 634.384,997.813L634.384,998.446L628.78,998.446Z" style="fill:white;fill-rule:nonzero;"/>
        <path d="M637.229,981.631L642.517,981.631L642.517,984.576C643.69,982.265 645.368,981.252 648.059,981.22L648.059,986.667C647.583,986.602 647.109,986.572 646.697,986.572C645.019,986.572 643.943,987.046 643.278,988.122C642.771,988.978 642.707,990.498 642.707,992.81L642.707,998.446L637.229,998.446L637.229,981.631Z" style="fill:white;fill-rule:nonzero;"/>
        <path d="M650.587,981.631L655.875,981.631L655.875,984.576C657.048,982.265 658.726,981.252 661.417,981.22L661.417,986.667C660.941,986.602 660.467,986.572 660.055,986.572C658.377,986.572 657.301,987.046 656.636,988.122C656.129,988.978 656.065,990.498 656.065,992.81L656.065,998.446L650.587,998.446L650.587,981.631Z" style="fill:white;fill-rule:nonzero;"/>
        <path d="M671.895,994.804C673.954,994.804 675.188,993.126 675.188,990.023C675.188,986.919 673.954,985.273 671.895,985.273C669.836,985.273 668.634,986.919 668.634,990.023C668.634,993.126 669.836,994.804 671.895,994.804M671.895,981.029C677.5,981.029 680.825,984.417 680.825,990.023C680.825,995.627 677.5,999.015 671.895,999.015C666.29,999.015 662.996,995.659 662.996,990.023C662.996,984.385 666.322,981.029 671.895,981.029" style="fill:white;fill-rule:nonzero;"/>
        <path d="M691.68,994.267C693.739,994.267 694.973,992.715 694.973,989.959C694.973,986.983 693.865,985.463 691.775,985.463C689.685,985.463 688.513,987.014 688.513,989.959C688.513,992.683 689.748,994.267 691.68,994.267M689.274,999.871C689.558,1000.88 690.381,1001.36 691.807,1001.36C694.341,1001.36 695.036,1000.25 695.036,997.686L695.036,995.913C693.834,997.718 692.124,998.604 689.844,998.604C685.821,998.604 682.813,995.216 682.813,989.991C682.813,984.671 685.758,981.188 689.907,981.188C692.219,981.188 693.865,982.012 695.227,983.879L695.227,981.631L700.388,981.631L700.388,995.501C700.388,998.414 700.356,1000.54 699.375,1002.06C698.076,1004.08 695.543,1005.22 691.966,1005.22C686.899,1005.22 684.27,1003.55 683.764,999.871L689.274,999.871Z" style="fill:white;fill-rule:nonzero;"/>
        <path d="M710.356,991.543C709.122,991.891 708.552,992.398 708.552,993.411C708.552,994.583 709.343,995.406 710.578,995.406C712.447,995.406 713.777,994.234 713.777,992.461L713.777,990.53C712.826,991.132 711.592,991.194 710.356,991.543M714.22,998.446C714.093,997.907 713.998,997.337 713.935,996.705C712.383,998.256 710.674,998.985 708.583,998.985C705.289,998.985 703.327,997.021 703.327,994.044C703.327,991.227 704.815,989.516 707.792,988.819C711.687,987.901 713.777,988.155 713.777,986.856L713.777,986.444C713.777,985.463 713.017,984.956 711.592,984.956C710.007,984.956 709.089,985.621 708.868,986.856L703.801,986.856C704.34,983.025 706.937,981.219 711.718,981.219C714.663,981.219 716.721,981.916 717.893,983.404C718.938,984.766 719.001,986.476 719.001,988.787L719.001,995.153C719.001,996.64 719.255,997.528 719.824,997.813L719.824,998.446L714.22,998.446Z" style="fill:white;fill-rule:nonzero;"/>
        <path d="M722.669,981.631L728.052,981.631L728.052,983.943C729.193,982.107 730.839,981.22 733.151,981.22C737.236,981.22 738.756,983.214 738.756,987.521L738.756,998.446L733.246,998.446L733.246,989.991C733.246,986.888 733.119,985.399 730.934,985.399C728.939,985.399 728.147,986.698 728.147,989.452L728.147,998.446L722.669,998.446L722.669,981.631Z" style="fill:white;fill-rule:nonzero;"/>
        <path d="M740.744,981.631L742.993,981.631L742.993,976.881L748.503,976.881L748.503,981.631L751.321,981.631L751.321,984.956L748.503,984.956L748.503,992.24C748.503,994.267 748.82,994.995 750.561,994.995C750.751,994.995 751.005,994.995 751.258,994.962L751.258,998.478C750.149,998.699 749.041,998.827 747.965,998.827C743.595,998.827 742.993,996.705 742.993,991.479L742.993,984.956L740.744,984.956L740.744,981.631Z" style="fill:white;fill-rule:nonzero;"/>
        <path d="M624.916,1040.95C623.682,1041.3 623.112,1041.81 623.112,1042.82C623.112,1044 623.903,1044.82 625.139,1044.82C627.007,1044.82 628.337,1043.65 628.337,1041.87L628.337,1039.94C627.386,1040.54 626.152,1040.61 624.916,1040.95M628.78,1047.86C628.653,1047.32 628.558,1046.75 628.495,1046.12C626.943,1047.67 625.234,1048.4 623.143,1048.4C619.849,1048.4 617.887,1046.43 617.887,1043.46C617.887,1040.64 619.375,1038.93 622.352,1038.23C626.247,1037.31 628.337,1037.57 628.337,1036.27L628.337,1035.86C628.337,1034.88 627.577,1034.37 626.152,1034.37C624.569,1034.37 623.649,1035.03 623.428,1036.27L618.362,1036.27C618.9,1032.44 621.497,1030.63 626.278,1030.63C629.223,1030.63 631.281,1031.33 632.453,1032.82C633.498,1034.18 633.561,1035.89 633.561,1038.2L633.561,1044.57C633.561,1046.05 633.815,1046.94 634.384,1047.22L634.384,1047.86L628.78,1047.86Z" style="fill:white;fill-rule:nonzero;"/>
        <path d="M637.229,1031.04L642.612,1031.04L642.612,1033.36C643.753,1031.52 645.399,1030.63 647.711,1030.63C651.796,1030.63 653.316,1032.63 653.316,1036.93L653.316,1047.86L647.806,1047.86L647.806,1039.4C647.806,1036.3 647.679,1034.81 645.494,1034.81C643.499,1034.81 642.707,1036.11 642.707,1038.86L642.707,1047.86L637.229,1047.86L637.229,1031.04Z" style="fill:white;fill-rule:nonzero;"/>
        <path d="M664.963,1043.68C667.022,1043.68 668.256,1042.13 668.256,1039.37C668.256,1036.39 667.148,1034.88 665.058,1034.88C662.968,1034.88 661.797,1036.43 661.797,1039.37C661.797,1042.1 663.031,1043.68 664.963,1043.68M662.556,1049.28C662.841,1050.3 663.664,1050.77 665.089,1050.77C667.622,1050.77 668.319,1049.66 668.319,1047.1L668.319,1045.33C667.116,1047.13 665.407,1048.02 663.127,1048.02C659.104,1048.02 656.096,1044.63 656.096,1039.4C656.096,1034.08 659.041,1030.6 663.19,1030.6C665.502,1030.6 667.148,1031.42 668.51,1033.29L668.51,1031.04L673.671,1031.04L673.671,1044.91C673.671,1047.83 673.639,1049.95 672.658,1051.47C671.359,1053.5 668.826,1054.63 665.248,1054.63C660.182,1054.63 657.553,1052.96 657.047,1049.28L662.556,1049.28Z" style="fill:white;fill-rule:nonzero;"/>
        <path d="M677.495,1031.04L682.784,1031.04L682.784,1033.99C683.956,1031.68 685.634,1030.66 688.325,1030.63L688.325,1036.08C687.851,1036.01 687.375,1035.98 686.963,1035.98C685.285,1035.98 684.209,1036.46 683.543,1037.53C683.036,1038.39 682.973,1039.91 682.973,1042.22L682.973,1047.86L677.495,1047.86L677.495,1031.04Z" style="fill:white;fill-rule:nonzero;"/>
        <path d="M697.283,1054.25C696.207,1054.73 694.75,1054.73 692.881,1054.73L691.424,1054.73L691.424,1050.36L692.502,1050.36C694.306,1050.36 695.161,1050.04 695.161,1048.65C695.161,1047.98 694.813,1047.13 694.338,1045.93L688.67,1031.04L694.592,1031.04L697.757,1042.51L700.988,1031.04L706.847,1031.04L700.133,1049.73C699.247,1052.16 698.582,1053.68 697.283,1054.25" style="fill:white;fill-rule:nonzero;"/>
        <path d="M626.847,1093.34C628.938,1093.34 630.046,1091.76 630.046,1088.69C630.046,1085.84 628.843,1084.25 626.784,1084.25C624.852,1084.25 623.586,1085.9 623.586,1088.69C623.586,1091.73 624.757,1093.34 626.847,1093.34M635.46,1097.3L629.951,1097.3L629.951,1095.05C628.715,1096.89 627.132,1097.74 624.98,1097.74C620.831,1097.74 617.887,1094.26 617.887,1088.94C617.887,1083.49 620.927,1079.95 624.915,1079.95C627.132,1079.95 628.874,1080.87 629.982,1082.58L629.982,1074.5L635.46,1074.5L635.46,1097.3Z" style="fill:white;fill-rule:nonzero;"/>
        <path d="M639.286,1080.45L644.575,1080.45L644.575,1083.4C645.747,1081.09 647.425,1080.08 650.116,1080.04L650.116,1085.49C649.642,1085.43 649.166,1085.4 648.754,1085.4C647.076,1085.4 646,1085.87 645.334,1086.95C644.827,1087.8 644.764,1089.32 644.764,1091.63L644.764,1097.27L639.286,1097.27L639.286,1080.45Z" style="fill:white;fill-rule:nonzero;"/>
        <path d="M668.606,1097.27L663.223,1097.27L663.223,1094.96C661.893,1096.83 660.278,1097.68 658.124,1097.68C654.419,1097.68 652.52,1095.78 652.52,1092.01L652.52,1080.45L658.029,1080.45L658.029,1089.86C658.029,1092.36 658.473,1093.5 660.341,1093.5C662.336,1093.5 663.096,1092.2 663.096,1089.45L663.096,1080.45L668.606,1080.45L668.606,1097.27Z" style="fill:white;fill-rule:nonzero;"/>
        <path d="M672.43,1080.45L677.813,1080.45L677.813,1082.77C678.954,1080.93 680.6,1080.04 682.912,1080.04C686.997,1080.04 688.517,1082.04 688.517,1086.35L688.517,1097.27L683.007,1097.27L683.007,1088.82C683.007,1085.71 682.88,1084.22 680.695,1084.22C678.7,1084.22 677.908,1085.52 677.908,1088.28L677.908,1097.27L672.43,1097.27L672.43,1080.45Z" style="fill:white;fill-rule:nonzero;"/>
        <path d="M692.215,1074.5L697.63,1074.5L697.63,1086.25L702.697,1080.45L709.157,1080.45L703.329,1086.88L709.316,1097.27L703.203,1097.27L699.657,1090.62L697.63,1092.74L697.63,1097.27L692.215,1097.27L692.215,1074.5Z" style="fill:white;fill-rule:nonzero;"/>
        <path d="M616.651,1129.87L622.478,1129.87L625.708,1141.58L628.969,1129.87L634.765,1129.87L628.527,1146.68L622.889,1146.68L616.651,1129.87Z" style="fill:white;fill-rule:nonzero;"/>
        <path d="M636.469,1129.87L641.947,1129.87L641.947,1146.68L636.469,1146.68L636.469,1129.87ZM636.469,1123.91L641.947,1123.91L641.947,1128.35L636.469,1128.35L636.469,1123.91Z" style="fill:white;fill-rule:nonzero;"/>
        <path d="M653.756,1143.04C655.815,1143.04 657.049,1141.36 657.049,1138.26C657.049,1135.15 655.815,1133.51 653.756,1133.51C651.697,1133.51 650.495,1135.15 650.495,1138.26C650.495,1141.36 651.697,1143.04 653.756,1143.04M653.756,1129.27C659.361,1129.27 662.686,1132.65 662.686,1138.26C662.686,1143.86 659.361,1147.25 653.756,1147.25C648.151,1147.25 644.857,1143.89 644.857,1138.26C644.857,1132.62 648.183,1129.27 653.756,1129.27" style="fill:white;fill-rule:nonzero;"/>
        <rect x="665.56" y="1123.91" width="5.51" height="22.768" style="fill:white;fill-rule:nonzero;"/>
        <path d="M685.729,1136.49C685.698,1134.3 684.495,1133.03 682.594,1133.03C680.821,1133.03 679.681,1134.24 679.46,1136.49L685.729,1136.49ZM690.733,1141.39C689.751,1145.07 686.742,1147.19 682.436,1147.19C677.243,1147.19 673.981,1143.83 673.981,1138.35C673.981,1132.72 677.306,1129.3 682.436,1129.3C687.725,1129.3 691.018,1132.75 691.018,1138.61C691.018,1138.92 691.018,1139.27 690.986,1139.59L679.618,1139.59C679.618,1141.96 680.662,1143.23 682.626,1143.23C684.114,1143.23 685.064,1142.6 685.445,1141.39L690.733,1141.39Z" style="fill:white;fill-rule:nonzero;"/>
        <path d="M693.829,1129.87L699.212,1129.87L699.212,1132.18C700.353,1130.34 701.999,1129.45 704.311,1129.45C708.396,1129.45 709.916,1131.45 709.916,1135.76L709.916,1146.68L704.406,1146.68L704.406,1138.23C704.406,1135.12 704.279,1133.63 702.094,1133.63C700.099,1133.63 699.307,1134.93 699.307,1137.69L699.307,1146.68L693.829,1146.68L693.829,1129.87Z" style="fill:white;fill-rule:nonzero;"/>
        <path d="M711.904,1129.87L714.153,1129.87L714.153,1125.12L719.663,1125.12L719.663,1129.87L722.481,1129.87L722.481,1133.19L719.663,1133.19L719.663,1140.48C719.663,1142.5 719.98,1143.23 721.721,1143.23C721.911,1143.23 722.165,1143.23 722.418,1143.2L722.418,1146.71C721.309,1146.93 720.201,1147.06 719.125,1147.06C714.755,1147.06 714.153,1144.94 714.153,1139.71L714.153,1133.19L711.904,1133.19L711.904,1129.87Z" style="fill:white;fill-rule:nonzero;"/>
        <path d="M626.722,1191.91C628.781,1191.91 630.015,1190.36 630.015,1187.61C630.015,1184.63 628.906,1183.11 626.817,1183.11C624.728,1183.11 623.555,1184.66 623.555,1187.61C623.555,1190.33 624.791,1191.91 626.722,1191.91M624.315,1197.52C624.6,1198.53 625.423,1199.01 626.848,1199.01C629.381,1199.01 630.078,1197.9 630.078,1195.33L630.078,1193.56C628.875,1195.37 627.166,1196.25 624.886,1196.25C620.863,1196.25 617.855,1192.86 617.855,1187.64C617.855,1182.32 620.8,1178.84 624.949,1178.84C627.261,1178.84 628.906,1179.66 630.269,1181.53L630.269,1179.28L635.43,1179.28L635.43,1193.15C635.43,1196.06 635.398,1198.18 634.417,1199.7C633.118,1201.73 630.585,1202.87 627.007,1202.87C621.941,1202.87 619.312,1201.19 618.805,1197.52L624.315,1197.52Z" style="fill:white;fill-rule:nonzero;"/>
        <path d="M639.254,1179.28L644.543,1179.28L644.543,1182.22C645.715,1179.91 647.393,1178.9 650.084,1178.87L650.084,1184.31C649.61,1184.25 649.134,1184.22 648.722,1184.22C647.044,1184.22 645.968,1184.69 645.302,1185.77C644.795,1186.62 644.732,1188.14 644.732,1190.46L644.732,1196.09L639.254,1196.09L639.254,1179.28Z" style="fill:white;fill-rule:nonzero;"/>
        <path d="M663.412,1185.9C663.381,1183.71 662.178,1182.45 660.277,1182.45C658.504,1182.45 657.364,1183.65 657.143,1185.9L663.412,1185.9ZM668.416,1190.81C667.434,1194.48 664.425,1196.6 660.119,1196.6C654.926,1196.6 651.664,1193.24 651.664,1187.77C651.664,1182.13 654.989,1178.71 660.119,1178.71C665.408,1178.71 668.701,1182.16 668.701,1188.02C668.701,1188.34 668.701,1188.68 668.669,1189L657.301,1189C657.301,1191.38 658.345,1192.64 660.309,1192.64C661.797,1192.64 662.747,1192.01 663.128,1190.81L668.416,1190.81Z" style="fill:white;fill-rule:nonzero;"/>
        <path d="M682.31,1185.9C682.279,1183.71 681.076,1182.45 679.175,1182.45C677.402,1182.45 676.262,1183.65 676.04,1185.9L682.31,1185.9ZM687.314,1190.81C686.332,1194.48 683.323,1196.6 679.017,1196.6C673.824,1196.6 670.562,1193.24 670.562,1187.77C670.562,1182.13 673.887,1178.71 679.017,1178.71C684.306,1178.71 687.599,1182.16 687.599,1188.02C687.599,1188.34 687.599,1188.68 687.567,1189L676.199,1189C676.199,1191.38 677.243,1192.64 679.207,1192.64C680.695,1192.64 681.645,1192.01 682.026,1190.81L687.314,1190.81Z" style="fill:white;fill-rule:nonzero;"/>
        <path d="M698.486,1192.17C700.576,1192.17 701.684,1190.58 701.684,1187.51C701.684,1184.66 700.481,1183.08 698.422,1183.08C696.49,1183.08 695.223,1184.73 695.223,1187.51C695.223,1190.55 696.395,1192.17 698.486,1192.17M707.099,1196.12L701.589,1196.12L701.589,1193.88C700.353,1195.71 698.77,1196.57 696.618,1196.57C692.469,1196.57 689.524,1193.09 689.524,1187.77C689.524,1182.32 692.564,1178.77 696.553,1178.77C698.77,1178.77 700.513,1179.69 701.62,1181.4L701.62,1173.33L707.099,1173.33L707.099,1196.12Z" style="fill:white;fill-rule:nonzero;"/>
        <path d="M717.351,1202.49C716.275,1202.97 714.818,1202.97 712.949,1202.97L711.492,1202.97L711.492,1198.6L712.57,1198.6C714.374,1198.6 715.229,1198.28 715.229,1196.89C715.229,1196.22 714.881,1195.37 714.406,1194.16L708.738,1179.28L714.66,1179.28L717.825,1190.74L721.056,1179.28L726.915,1179.28L720.201,1197.96C719.315,1200.4 718.65,1201.92 717.351,1202.49" style="fill:white;fill-rule:nonzero;"/>
        <path d="M616.732,934.818C626.8,930.259 636.422,927.981 646.553,927.981C657.189,927.981 666.876,930.322 676.435,935.199L676.435,942.922C666.876,939.251 657.063,937.414 646.932,937.414C637.119,937.414 627.053,939.123 616.732,942.543L616.732,934.818Z" style="fill:rgb(156,157,159);fill-rule:nonzero;"/>
        <path d="M676.3,884.716C666.232,889.275 656.61,891.553 646.479,891.553C635.843,891.553 626.156,889.212 616.597,884.335L616.597,876.612C626.156,880.283 635.969,882.12 646.1,882.12C655.913,882.12 665.979,880.411 676.3,876.991L676.3,884.716Z" style="fill:rgb(156,157,159);fill-rule:nonzero;"/>
        <path d="M616.89,900.451L623.979,900.451L623.979,903.33C625.789,901.041 628.004,899.934 630.847,899.934C633.247,899.934 635.13,900.746 636.422,902.297C637.937,904.106 638.048,906.469 638.048,909.866L638.048,920.057L630.256,920.057L630.256,909.903C630.256,907.208 629.739,905.989 627.598,905.989C625.641,905.989 624.682,907.282 624.682,909.94L624.682,920.057L616.89,920.057L616.89,900.451Z" style="fill:white;fill-rule:nonzero;"/>
        <path d="M651.234,915.331C653.597,915.331 654.483,913.706 654.483,910.236C654.483,906.765 653.597,905.178 651.234,905.178C648.871,905.178 648.021,906.765 648.021,910.236C648.021,913.706 648.871,915.331 651.234,915.331M651.234,899.749C658.138,899.749 662.311,903.737 662.311,910.236C662.311,916.734 658.138,920.758 651.234,920.758C644.33,920.758 640.157,916.734 640.157,910.236C640.157,903.737 644.33,899.749 651.234,899.749" style="fill:white;fill-rule:nonzero;"/>
        <path d="M676.569,914.592C676.901,914.592 677.271,914.592 677.678,914.556L677.678,920.204C675.979,920.315 674.355,920.389 672.84,920.389C668.004,920.389 666.194,919.023 666.194,914.777L666.194,904.955L663.425,904.955L663.425,900.451L666.194,900.451L666.194,894.395L673.949,894.395L673.949,900.451L677.604,900.451L677.604,904.955L673.949,904.955L673.949,912.782C673.949,914.186 674.687,914.592 676.569,914.592" style="fill:white;fill-rule:nonzero;"/>
        <path d="M567.884,1840.25C567.217,1840.25 566.489,1840.5 565.694,1840.85C565.694,1841.56 565.694,1843.68 565.662,1847.77C565.662,1849.58 565.883,1850.06 567.089,1850.06C567.821,1850.06 568.612,1849.71 569.281,1849.45L569.281,1842.57C569.281,1840.76 569.089,1840.25 567.884,1840.25" style="fill:white;fill-rule:nonzero;"/>
        <path d="M572.645,1853.83C571.66,1853.83 570.931,1853.55 570.326,1852.91C566.105,1854.57 561.665,1854.18 561.665,1847.65C561.673,1845.52 561.677,1843.88 561.679,1842.63C561.001,1843.06 561.065,1843.06 560.332,1843.36L560.002,1839.57C563.512,1838.08 565.507,1835.83 569.177,1836.65L569.281,1836.67C569.979,1835.34 568.966,1830.07 568.376,1828.4L572.229,1826.64C572.641,1828.41 573.221,1831.2 573.244,1834.95L573.244,1849.04C573.244,1850.09 573.275,1850.33 573.436,1850.4C573.57,1850.47 574.261,1850.19 574.261,1850.19L574.991,1853.2C573.879,1853.71 573.341,1853.83 572.645,1853.83M557.044,1844.43L557.044,1855L553.171,1855L553.171,1844.53C551.901,1844.47 551.202,1844.08 551.202,1844.08L551.578,1840.39C554.359,1841.24 556.605,1840.92 558.595,1840.18L558.922,1843.94C558.315,1844.15 557.688,1844.31 557.044,1844.43M555.135,1835.13C556.3,1835.13 557.235,1836.06 557.235,1837.23C557.235,1838.37 556.3,1839.3 555.135,1839.3C553.964,1839.3 553.033,1838.37 553.033,1837.23C553.033,1836.06 553.964,1835.13 555.135,1835.13M548.38,1856.6L577.276,1856.6L577.276,1824.11L548.38,1824.11L548.38,1856.6Z" style="fill:white;fill-rule:nonzero;"/>
    </g>
    <defs>
        <linearGradient id="_Linear1" x1="0" y1="0" x2="1" y2="0" gradientUnits="userSpaceOnUse" gradientTransform="matrix(1e-07,1925,-1925,1e-07,541.941,0.0004883)"><stop offset="0%" style="stop-color:rgb(0,0,102);stop-opacity:1"/><stop offset="100%" style="stop-color:black;stop-opacity:1"/></linearGradient>
    </defs>
</svg>
