<?xml version="1.0" standalone="no"?><!DOCTYPE svg PUBLIC "-//W3C//DTD SVG 1.1//EN" "http://www.w3.org/Graphics/SVG/1.1/DTD/svg11.dtd"><svg width="100%" height="100%" viewBox="0 0 1080 1920" version="1.1" xmlns="http://www.w3.org/2000/svg" xmlns:xlink="http://www.w3.org/1999/xlink" xml:space="preserve" style="fill-rule:evenodd;clip-rule:evenodd;stroke-linejoin:round;stroke-miterlimit:1.41421;"><g id="matte"><rect x="0" y="-0.001" width="1080" height="1920" style="fill:#b3b3b3;fill-rule:nonzero;"/></g><g id="Layer 4"><path d="M364.95,2430.84l-1273.11,-1782.04l1623.21,-1159.64l1273.11,1782.04l-1623.21,1159.64Z" style="fill:url(#_Radial1);fill-rule:nonzero;"/><g><g opacity="0.5"><g><clipPath id="_clip2"><path d="M888.749,1711.03l155.03,17.6l-17.248,151.927l-155.029,-17.6l17.247,-151.927Z"/></clipPath><g clip-path="url(#_clip2)"><clipPath id="_clip3"><path d="M888.749,1711.03l155.03,17.6l-17.248,151.927l-155.029,-17.6l17.247,-151.927Z"/></clipPath><g clip-path="url(#_clip3)"><path d="M938.39,1805.38l-48.558,-0.229l43.291,-25.319l-7.6,-36.864l33.758,21.561l41.333,-24.198l-18.267,38.925l41.524,26.524l-53.872,-0.247l-21.954,46.673l0,0.003l-9.655,-46.829Z" style="fill:#fff;fill-rule:nonzero;"/></g></g></g></g></g></g><g id="Layer 3"><g><g opacity="0.899994"><clipPath id="_clip4"><path d="M944.699,1776.98l0.379,0.96l0.049,0.055l-0.219,-0.653l-0.209,-0.362Z"/></clipPath><g clip-path="url(#_clip4)"><path d="M945.113,1778l-0.527,-0.961l0.121,-0.066l0.527,0.96l-0.121,0.067Z" style="fill:url(#_Linear5);fill-rule:nonzero;"/></g></g></g><g><g opacity="0.899994"><g><clipPath id="_clip6"><rect x="566.373" y="-73.38" width="380.23" height="1851.73"/></clipPath><g clip-path="url(#_clip6)"><clipPath id="_clip7"><path d="M566.373,-73.385l379.247,1849.71l0.519,1.342l0.464,0.679l-240.848,-1835.91l-139.382,-15.821Z"/></clipPath><g clip-path="url(#_clip7)"><path d="M946.444,1778.41l-703.676,-1719.36l437.444,-179.032l703.676,1719.36l-437.444,179.031Z" style="fill:url(#_Linear8);fill-rule:nonzero;"/></g></g></g></g></g><g><g opacity="0.899994"><clipPath id="_clip9"><path d="M945.195,1778.24l0.046,0.115l0.003,0.003l-0.032,-0.105l-0.017,-0.013Z"/></clipPath><g clip-path="url(#_clip9)"><path d="M945.243,1778.36l-0.061,-0.112l0.021,-0.011l0.061,0.111l-0.021,0.012Z" style="fill:url(#_Linear10);fill-rule:nonzero;"/></g></g></g><g><g opacity="0.899994"><g><clipPath id="_clip11"><rect x="84.844" y="-116.72" width="859.592" height="1889.98"/></clipPath><g clip-path="url(#_clip11)"><clipPath id="_clip12"><path d="M84.844,-116.724l859.591,1889.98l-699.579,-1888.74l-160.012,-1.238Z"/></clipPath><g clip-path="url(#_clip12)"><path d="M870.7,1803.43l-785.856,-1920.16l136.621,-55.915l785.857,1920.16l-136.622,55.914Z" style="fill:url(#_Linear13);fill-rule:nonzero;"/></g></g></g></g></g><g><g opacity="0.899994"><g><clipPath id="_clip14"><rect x="-118.469" y="864.94" width="1065.07" height="913.409"/></clipPath><g clip-path="url(#_clip14)"><clipPath id="_clip15"><path d="M-97.896,864.937l-20.573,181.254l1065.07,732.158l-1044.5,-913.412Z"/></clipPath><g clip-path="url(#_clip15)"><path d="M290.993,2046.67l-470.049,-1148.52l655.61,-268.319l470.049,1148.52l-655.61,268.319Z" style="fill:url(#_Linear16);fill-rule:nonzero;"/></g></g></g></g></g><g><g opacity="0.899994"><clipPath id="_clip17"><path d="M945.554,1777.05l-1015.02,-1202.13l-18.205,160.404c249.077,229.641 1003.99,1009.78 1033.4,1042.03l-0.18,-0.304Z"/></clipPath><g clip-path="url(#_clip17)"><path d="M425.876,1990.11l-567.163,-1385.8l519.858,-212.761l567.163,1385.8l-519.858,212.76Z" style="fill:url(#_Linear18);fill-rule:nonzero;"/></g></g></g><g><g opacity="0.899994"><g><clipPath id="_clip19"><rect x="108.106" y="355.72" width="836.329" height="1417.54"/></clipPath><g clip-path="url(#_clip19)"><clipPath id="_clip20"><path d="M129.723,355.718l-21.617,190.453l836.329,1227.09l-814.712,-1417.54Z"/></clipPath><g clip-path="url(#_clip20)"><path d="M658.248,1890.38l-613.804,-1499.77l286.188,-117.127l613.803,1499.77l-286.187,117.127Z" style="fill:url(#_Linear21);fill-rule:nonzero;"/></g></g></g></g></g><g><g opacity="0.899994"><clipPath id="_clip22"><path d="M-21.701,21.393l-22.172,195.344l989.104,1559.6l0.386,0.562l-0.542,-1.672l-966.776,-1753.83Z"/></clipPath><g clip-path="url(#_clip22)"><path d="M645.002,1899.93l-754.172,-1842.74l300.738,-123.082l754.171,1842.74l-300.737,123.082Z" style="fill:url(#_Linear23);fill-rule:nonzero;"/></g></g></g><g><g opacity="0.899994"><clipPath id="_clip24"><path d="M945.176,1778.22l-0.108,-0.108l0.137,0.209c0.01,0.01 0.016,0.016 0.029,0.026l-0.058,-0.127Z"/></clipPath><g clip-path="url(#_clip24)"><path d="M945.205,1778.37l-0.137,-0.251l0.038,-0.021l0.137,0.251l-0.038,0.021Z" style="fill:url(#_Linear25);fill-rule:nonzero;"/></g></g></g><g><g opacity="0.899994"><clipPath id="_clip26"><path d="M945.264,1778.41l-0.013,-0.052c0,0 -0.004,0 -0.007,-0.003l0.02,0.055Z"/></clipPath><g clip-path="url(#_clip26)"><path d="M945.264,1778.41l-0.028,-0.051l0.012,-0.006l0.028,0.05l-0.012,0.007Z" style="fill:url(#_Linear27);fill-rule:nonzero;"/></g></g></g><g><g opacity="0.899994"><clipPath id="_clip28"><path d="M945.159,1778.04l-0.032,-0.04l0.085,0.258l0.013,0.013l-0.066,-0.231Z"/></clipPath><g clip-path="url(#_clip28)"><path d="M945.22,1778.27l-0.136,-0.249l0.051,-0.028l0.137,0.249l-0.052,0.028Z" style="fill:url(#_Linear29);fill-rule:nonzero;"/></g></g></g><g><g opacity="0.899994"><clipPath id="_clip30"><path d="M945.251,1778.36c0.516,0.454 0.829,0.738 0.908,0.833l-0.934,-0.928l0.026,0.095Z"/></clipPath><g clip-path="url(#_clip30)"><path d="M945.812,1779.38l-0.607,-1.107l0.347,-0.19l0.607,1.107l-0.347,0.19Z" style="fill:url(#_Linear31);fill-rule:nonzero;"/></g></g></g><g><g opacity="0.899994"><clipPath id="_clip32"><path d="M352.396,-104.147l592.809,1879.4l0.284,0.732l-482.555,-1867.58l-110.538,-12.546Z"/></clipPath><g clip-path="url(#_clip32)"><path d="M945.489,1775.98l-744.169,-1818.3l241.357,-98.779l744.169,1818.3l-241.357,98.779Z" style="fill:url(#_Linear33);fill-rule:nonzero;"/></g></g></g><g><g opacity="0.899994"><clipPath id="_clip34"><path d="M944.957,1777.3l-0.173,-0.33l0.124,0.372l0.117,0.203l-0.068,-0.245Z"/></clipPath><g clip-path="url(#_clip34)"><path d="M945.021,1777.55l-0.298,-0.543l0.061,-0.034l0.298,0.544l-0.061,0.033Z" style="fill:url(#_Linear35);fill-rule:nonzero;"/></g></g></g><g><g opacity="0.899994"><clipPath id="_clip36"><path d="M945.604,1778.55l-0.579,-1.005l0.134,0.49l0.445,0.515Z"/></clipPath><g clip-path="url(#_clip36)"><path d="M945.479,1778.62l-0.558,-1.017l0.126,-0.069l0.557,1.017l-0.125,0.069Z" style="fill:url(#_Linear37);fill-rule:nonzero;"/></g></g></g><g><g opacity="0.899994"><clipPath id="_clip38"><path d="M569.237,-75.651l376.566,1853.12l-479.12,-1864.76l102.554,11.638Z"/></clipPath><g clip-path="url(#_clip38)"><path d="M466.684,-87.294l682.029,77.429l-202.91,1787.34l-682.03,-77.428l202.911,-1787.34Z" style="fill:url(#_Linear39);fill-rule:nonzero;"/></g></g></g><g><g opacity="0.899994"><g><clipPath id="_clip40"><rect x="243.19" y="-116.89" width="702.613" height="1894.36"/></clipPath><g clip-path="url(#_clip40)"><clipPath id="_clip41"><path d="M243.19,-116.892l702.613,1894.36l-593.39,-1881.96l-109.223,-12.399Z"/></clipPath><g clip-path="url(#_clip41)"><path d="M243.19,-116.893l905.997,102.855l-203.384,1791.51l-905.997,-102.855l203.384,-1791.51Z" style="fill:url(#_Linear42);fill-rule:nonzero;"/></g></g></g></g></g><g><g opacity="0.899994"><g><clipPath id="_clip43"><rect x="-77.794" y="-119.97" width="1023.98" height="1897.76"/></clipPath><g clip-path="url(#_clip43)"><clipPath id="_clip44"><path d="M-77.794,-65.709l1023.98,1843.5l-862.873,-1897.76l-161.106,54.264Z"/></clipPath><g clip-path="url(#_clip44)"><path d="M-69.662,-137.34l1217.57,138.227l-201.725,1776.9l-1217.57,-138.227l201.725,-1776.9Z" style="fill:url(#_Linear45);fill-rule:nonzero;"/></g></g></g></g></g><g><g opacity="0.899994"><g><clipPath id="_clip46"><rect x="-53.17" y="230.05" width="998.973" height="1547.42"/></clipPath><g clip-path="url(#_clip46)"><clipPath id="_clip47"><path d="M-53.17,399.935l998.973,1377.54l-979.69,-1547.43l-19.283,169.89Z"/></clipPath><g clip-path="url(#_clip47)"><path d="M-33.887,230.045l1140.66,129.496l-160.973,1417.93l-1140.66,-129.496l160.973,-1417.93Z" style="fill:url(#_Linear48);fill-rule:nonzero;"/></g></g></g></g></g><g><g opacity="0.899994"><clipPath id="_clip49"><path d="M-66.796,575.486l1013.4,1202.86l-994.679,-1367.8l-18.72,164.933Z"/></clipPath><g clip-path="url(#_clip49)"><path d="M-48.076,410.553l1135.33,128.89l-140.649,1238.91l-1135.33,-128.89l140.649,-1238.91Z" style="fill:url(#_Linear50);fill-rule:nonzero;"/></g></g></g><g><g opacity="0.899994"><g><clipPath id="_clip51"><rect x="-100.048" y="730.78" width="1046.65" height="1047.57"/></clipPath><g clip-path="url(#_clip51)"><clipPath id="_clip52"><path d="M946.603,1778.35c-4.533,-6.759 -1031.79,-1047.57 -1031.79,-1047.57l-14.857,130.891l1046.65,916.681Z"/></clipPath><g clip-path="url(#_clip52)"><path d="M-85.191,730.777l1136.08,128.975l-104.285,918.597l-1136.08,-128.975l104.285,-918.597Z" style="fill:url(#_Linear53);fill-rule:nonzero;"/></g></g></g></g></g></g><g id="Layer 1"><g><rect x="841.752" y="66.003" width="4.787" height="32.084" style="fill:#808080;fill-rule:nonzero;"/><path d="M865.857,95.147l0,-7.643c0,-1.217 -0.252,-1.847 -1.05,-2.603l-9.617,-9.071l0,-5.795l5.879,0l0,6.047l4.788,0l0,-7.181c0,-1.848 -1.05,-2.898 -2.898,-2.898l-9.659,0c-1.847,0 -2.897,1.05 -2.897,2.94l0,7.139c0,1.218 0.252,1.848 1.05,2.562l9.616,9.112l0,6.299l-5.879,0l0,-6.551l-4.787,0l0,7.643c0,1.89 1.05,2.94 2.897,2.94l9.659,0c1.848,0 2.898,-1.05 2.898,-2.94Z" style="fill:#808080;fill-rule:nonzero;"/><path d="M885.93,98.087l0,-0.084l-6.173,-32.042l-5.04,0l-6.215,32.042l0,0.084l4.746,0l0.966,-6.089l6.005,0l0.966,6.089l4.745,0ZM879.547,87.882l-4.704,0l2.352,-14.488l2.352,14.488Z" style="fill:#808080;fill-rule:nonzero;"/><rect x="888.702" y="66.003" width="4.787" height="32.084" style="fill:#808080;fill-rule:nonzero;"/><path d="M913.688,98.087l0,-0.084l-6.173,-32.042l-5.039,0l-6.216,32.042l0,0.084l4.746,0l0.966,-6.089l6.005,0l0.966,6.089l4.745,0ZM907.305,87.882l-4.703,0l2.351,-14.488l2.352,14.488Z" style="fill:#808080;fill-rule:nonzero;"/><path d="M932.501,98.087l0,-32.084l-4.829,0l0,13.229l-6.509,0l0,-13.229l-4.787,0l0,32.084l4.787,0l0,-14.404l6.509,0l0,14.404l4.829,0Z" style="fill:#808080;fill-rule:nonzero;"/><path d="M960.302,95.147l0,-14.74c0,-1.847 -1.008,-2.897 -2.898,-2.897l-7.811,0l0.294,-7.307l10.205,0l0,-4.2l-14.656,0l-0.504,15.622l10.666,0l0,12.346l-5.963,0l0,-6.215l-4.703,0l0,7.391c0,1.89 1.008,2.94 2.855,2.94l9.617,0c1.89,0 2.898,-1.05 2.898,-2.94Z" style="fill:#808080;fill-rule:nonzero;"/><path d="M968.281,85.069l0,-4.998l-4.62,0l0,4.998l4.62,0ZM968.281,98.087l0,-4.955l-4.62,0l0,4.955l4.62,0Z" style="fill:#808080;fill-rule:nonzero;"/><path d="M986.842,75.116l0,-6.215c0,-1.848 -1.092,-2.898 -2.94,-2.898l-9.406,0c-1.89,0 -2.94,1.05 -2.94,2.898l0,7.139l4.703,0l0,-5.963l5.838,0l0,5.921l-10.877,19.107l0,2.982l15.58,0l0,-4.2l-9.827,0l8.819,-15.411c0.756,-1.218 1.05,-1.89 1.05,-3.36Z" style="fill:#808080;fill-rule:nonzero;"/><path d="M1006.03,95.147l0,-26.204c0,-1.89 -1.05,-2.94 -2.897,-2.94l-9.953,0c-1.89,0 -2.897,1.05 -2.897,2.94l0,26.204c0,1.89 1.007,2.94 2.855,2.94l9.995,0c1.847,0 2.897,-1.05 2.897,-2.94ZM1001.33,93.971l-6.341,0l0,-23.852l6.341,0l0,23.852Z" style="fill:#808080;fill-rule:nonzero;"/></g><path d="M961.346,153.651l0,23.594l-8.651,0l0,-23.388c-2.836,-0.149 -4.401,-1 -4.401,-1l0.841,-8.245c6.213,1.91 11.231,1.182 15.667,-0.467l0.736,8.393c-1.359,0.458 -2.745,0.835 -4.192,1.113M957.069,132.865c2.609,0 4.701,2.085 4.701,4.694c0,2.549 -2.092,4.63 -4.701,4.63c-2.603,0 -4.68,-2.081 -4.68,-4.63c0,-2.609 2.077,-4.694 4.68,-4.694M995.776,116.343c0.839,3.92 1.701,9.259 1.742,16.114l0,31.479c0,2.334 0.064,2.878 0.427,3.043c0.305,0.14 1.841,-0.496 1.841,-0.496l1.638,6.736c-2.474,1.136 -3.7,1.418 -5.239,1.418c-2.2,0 -3.836,-0.635 -5.18,-2.054c-9.43,3.679 -19.343,2.829 -19.343,-11.768c0.012,-4.771 0.026,-8.417 0.026,-11.191c-1.497,0.93 -1.367,0.96 -3.006,1.608l-0.735,-8.441c7.842,-3.337 12.289,-8.363 20.493,-6.535l0.23,0.039c1.559,-2.971 -0.694,-14.733 -2.03,-18.451l3.265,-1.501l-45.817,0l0,67.945l60.419,0l0,-67.945l-8.731,0Z" style="fill:#808080;fill-rule:nonzero;"/><path d="M985.546,144.307c-1.485,0 -3.118,0.561 -4.886,1.336c0,1.562 0,6.315 -0.076,15.451c0,4.044 0.491,5.11 3.191,5.11c1.627,0 3.398,-0.787 4.895,-1.347l0,-15.383c0,-4.034 -0.432,-5.167 -3.124,-5.167" style="fill:#808080;fill-rule:nonzero;"/><g><clipPath id="_clip54"><path d="M811.84,1942.41l-1275.83,-1615.66l1058.96,-388.399l490.632,1709.12l-273.771,294.936Z"/></clipPath><g clip-path="url(#_clip54)"><path d="M1032.11,1609.93l-3.86,4.022l1.081,3.248l3.847,-4.014l-1.068,-3.256Z" style="fill:#fff;fill-rule:nonzero;"/><path d="M640.386,561.147l-216.735,124.147l53.927,111.691l38.116,-23.495l-25.35,-55.53l53.386,-31.739l19.554,46.328l35.774,-21.918l-18.482,-46.319l43.905,-26.103l20.387,54.796l34.346,-21.157l-38.828,-110.701M681.548,678.505l-0.482,0.302l-180.434,165.916l23.571,48.819l202.083,-85.922l0.445,-0.301l-16.292,-46.441l-101.706,47.364c-0.414,0.162 -2.148,1.149 -4.513,2.54c-2.369,1.388 -5.378,3.185 -8.342,4.964c-2.969,1.78 -5.892,3.545 -8.077,4.865c-2.184,1.32 -3.626,2.194 -3.626,2.194c0,0 1.406,-0.955 3.532,-2.415c2.126,-1.455 4.973,-3.405 7.856,-5.391c2.878,-1.987 5.792,-4.005 8.076,-5.613c2.279,-1.604 3.928,-2.793 4.275,-3.117l91.372,-77.188l-17.738,-50.576M729.299,814.643l-183.497,123.633l20.689,42.846l178.015,-123.12l-15.207,-43.359M748.155,868.394l-176.714,122.984l36.455,75.49l32.256,-23.486l-16.14,-35.414l138.467,-98.723l-14.324,-40.851M761.393,970.573l-127.908,93.791c-3.392,2.486 -6.135,5.036 -8.229,7.698c-2.095,2.662 -3.536,5.432 -4.329,8.365c-0.788,2.923 -0.923,6.004 -0.414,9.283c0.509,3.27 1.662,6.734 3.45,10.437l22.216,46.013c1.675,3.468 3.473,6.162 5.428,8.085c1.95,1.924 4.054,3.086 6.342,3.514c2.284,0.423 4.757,0.117 7.45,-0.91c2.689,-1.027 5.599,-2.766 8.761,-5.203l72.49,-55.922l-18.707,-46.437l-28.175,21.171l5.031,11.811l-37.04,28.013l-7.707,-16.847l105.859,-79.296l6.347,17.104l-19.455,14.716l13.405,34.675l27.531,-21.234c2.919,-2.257 5.298,-4.572 7.144,-7c1.847,-2.428 3.167,-4.964 3.964,-7.662c0.802,-2.698 1.086,-5.559 0.861,-8.631c-0.226,-3.081 -0.969,-6.373 -2.217,-9.932l-16.508,-47.071c-1.307,-3.721 -2.775,-6.685 -4.442,-8.896c-1.671,-2.221 -3.536,-3.68 -5.626,-4.392c-2.094,-0.707 -4.414,-0.662 -6.991,0.13c-2.581,0.793 -5.414,2.343 -8.531,4.627M796.672,1067.45l-118.836,92.088c-3.14,2.433 -5.689,4.888 -7.649,7.415c-1.959,2.522 -3.324,5.112 -4.094,7.81c-0.766,2.698 -0.942,5.505 -0.523,8.46c0.419,2.946 1.424,6.04 3.009,9.328l19.671,40.738c1.496,3.095 3.108,5.464 4.878,7.126c1.762,1.658 3.676,2.613 5.78,2.888c2.09,0.274 4.369,-0.131 6.86,-1.207c2.482,-1.068 5.184,-2.802 8.126,-5.185l111.588,-90.35c2.73,-2.212 4.964,-4.455 6.703,-6.766c1.738,-2.31 2.991,-4.693 3.765,-7.193c0.775,-2.509 1.068,-5.135 0.892,-7.923c-0.175,-2.802 -0.824,-5.771 -1.941,-8.96l-14.707,-41.931c-1.185,-3.379 -2.518,-6.023 -4.036,-7.955c-1.518,-1.937 -3.221,-3.153 -5.14,-3.667c-1.919,-0.513 -4.054,-0.315 -6.432,0.568c-2.383,0.887 -5.009,2.464 -7.914,4.716M708.615,1199.54l-6.843,-14.946l98.535,-77.769l5.653,15.234l-97.345,77.481M828.113,1153.8l-110.931,90.178c-2.923,2.379 -5.306,4.744 -7.148,7.144c-1.838,2.406 -3.131,4.838 -3.874,7.343c-0.748,2.5 -0.946,5.072 -0.604,7.752c0.343,2.675 1.225,5.455 2.64,8.382l17.554,36.356c1.333,2.765 2.788,4.86 4.4,6.301c1.604,1.437 3.361,2.226 5.293,2.379c1.928,0.153 4.041,-0.325 6.356,-1.428c2.311,-1.095 4.829,-2.815 7.581,-5.14l104.566,-88.327c2.567,-2.167 4.666,-4.338 6.31,-6.545c1.644,-2.207 2.834,-4.459 3.581,-6.793c0.748,-2.337 1.054,-4.761 0.919,-7.31c-0.13,-2.559 -0.702,-5.248 -1.707,-8.113l-13.198,-37.621c-1.058,-3.027 -2.266,-5.374 -3.653,-7.063c-1.387,-1.689 -2.955,-2.711 -4.725,-3.076c-1.775,-0.37 -3.757,-0.077 -5.969,0.856c-2.22,0.936 -4.675,2.518 -7.391,4.725M744.988,1279.02l-6.108,-13.351l92.129,-76.098l5.068,13.653l-91.089,75.796M871.04,1218.75l-134.683,114.165l20.18,41.801c1.635,3.387 3.464,5.973 5.509,7.752c2.032,1.77 4.279,2.748 6.761,2.919c2.473,0.171 5.18,-0.46 8.14,-1.896c2.95,-1.433 6.157,-3.672 9.639,-6.721l87.859,-77.039c3.275,-2.874 5.955,-5.779 8.059,-8.739c2.103,-2.955 3.63,-5.968 4.599,-9.058c0.968,-3.09 1.378,-6.266 1.238,-9.541c-0.139,-3.288 -0.833,-6.684 -2.067,-10.207l-15.234,-43.436M781.992,1346.52c-0.838,0.725 -1.577,1.216 -2.239,1.5c-0.658,0.288 -1.243,0.365 -1.766,0.252c-0.522,-0.108 -0.986,-0.405 -1.405,-0.865c-0.419,-0.464 -0.793,-1.085 -1.144,-1.856l-3.315,-7.243l86.489,-74.35l2.757,7.432c0.293,0.784 0.486,1.541 0.567,2.266c0.082,0.73 0.05,1.437 -0.121,2.126c-0.167,0.694 -0.473,1.374 -0.933,2.05c-0.459,0.68 -1.076,1.356 -1.869,2.04l-77.021,66.648" style="fill:#fff;fill-rule:nonzero;"/><path d="M441.433,-5.327l-29.401,10.783l12.775,35.153l-138.827,52.58l22.833,53.72l135.129,-53.634l11.914,32.783l27.702,-11.315l-42.125,-120.07M486.337,122.657l-159.893,65.733l21.184,49.851l68.706,-29.432l9.009,22.995l-67.864,29.616l20.108,47.31l150.16,-68.034l-16.302,-46.468l-57.373,25.035l-8.657,-22.909l58.053,-24.869l-17.131,-48.828M515.202,258.947l-115.305,52.693c-3.027,1.383 -5.437,3.068 -7.225,5.108c-1.793,2.045 -2.959,4.437 -3.5,7.243c-0.54,2.802 -0.455,6.005 0.257,9.662c0.712,3.654 2.045,7.748 3.995,12.343l24.302,57.179c1.851,4.351 3.757,7.91 5.756,10.711c1.996,2.793 4.086,4.829 6.298,6.153c2.211,1.316 4.549,1.919 7.045,1.838c2.491,-0.081 5.148,-0.842 7.995,-2.252l108.687,-53.905c2.671,-1.324 4.807,-2.918 6.419,-4.828c1.613,-1.91 2.698,-4.14 3.266,-6.734c0.567,-2.599 0.617,-5.563 0.153,-8.946c-0.468,-3.392 -1.459,-7.212 -2.964,-11.505l-19.77,-56.354c-1.59,-4.523 -3.261,-8.253 -5.054,-11.23c-1.797,-2.986 -3.711,-5.207 -5.779,-6.698c-2.077,-1.5 -4.306,-2.266 -6.721,-2.333c-2.418,-0.068 -5.027,0.563 -7.855,1.855M435.703,372.982l-8.554,-20.788l95.737,-45.279l7.469,20.585l-94.652,45.482M557.016,375.504l-33.274,16.621c-1.32,0.663 -2.45,1.352 -3.428,2.127c-0.982,0.77 -1.806,1.626 -2.513,2.608c-0.712,0.982 -1.302,2.099 -1.807,3.387c-0.509,1.293 -0.936,2.761 -1.315,4.459l-11.324,66.499l-22.977,11.968l-7.077,-17.179l23.063,-11.861l-16.085,-40.292l-31.351,15.662c-2.833,1.415 -5.085,3.095 -6.766,5.086c-1.68,1.986 -2.779,4.274 -3.31,6.905c-0.527,2.622 -0.482,5.581 0.13,8.905c0.613,3.315 1.788,6.996 3.514,11.063l21.283,50.071c1.653,3.892 3.383,7.077 5.216,9.577c1.829,2.491 3.766,4.306 5.829,5.455c2.054,1.144 4.243,1.63 6.59,1.468c2.338,-0.158 4.833,-0.959 7.509,-2.392l33.125,-17.734c1.28,-0.684 2.383,-1.41 3.329,-2.22c0.951,-0.811 1.748,-1.703 2.428,-2.712c0.676,-1.014 1.23,-2.144 1.689,-3.432c0.464,-1.289 0.829,-2.735 1.135,-4.379l11.572,-64.611l22.054,-11.347l6.185,17.063l-21.167,11.022l14.347,38.369l27.797,-14.878c2.504,-1.343 4.509,-2.91 6.018,-4.752c1.504,-1.838 2.522,-3.951 3.058,-6.379c0.536,-2.432 0.59,-5.18 0.167,-8.292c-0.424,-3.122 -1.32,-6.613 -2.689,-10.518l-17.392,-49.562c-1.41,-4.023 -2.923,-7.352 -4.563,-9.996c-1.644,-2.653 -3.419,-4.621 -5.342,-5.919c-1.933,-1.301 -4.018,-1.932 -6.279,-1.9c-2.271,0.027 -4.721,0.716 -7.379,2.04M608.898,471.993l-131.763,70.968l31.351,73.769l23.342,-13.23l-15.234,-37.071l32.58,-18l12.063,30.788l22.324,-12.599l-11.649,-30.752l27.36,-15.117l13.252,36.473l21.919,-12.414l-25.545,-72.815" style="fill:#fff;fill-rule:nonzero;"/><path d="M314.467,249.579l-158.821,105.714l25.278,47.689l63.261,-13.55c0.473,-0.139 1.671,-0.558 3.202,-1.108c1.532,-0.549 3.392,-1.225 5.194,-1.887c1.797,-0.658 3.536,-1.297 4.82,-1.775c1.288,-0.473 2.126,-0.788 2.126,-0.788c0,0 -0.78,0.432 -1.973,1.094c-1.194,0.667 -2.807,1.563 -4.464,2.5c-1.662,0.937 -3.378,1.91 -4.775,2.721c-1.396,0.811 -2.482,1.464 -2.878,1.752l-50.116,38.202l23.724,44.756l172.47,-50.521l-19.522,-44.292l-73.273,22.477c-0.568,0.162 -2.113,0.765 -4.113,1.576c-2,0.816 -4.459,1.843 -6.851,2.852c-2.396,1.008 -4.721,1.999 -6.45,2.738c-1.735,0.739 -2.865,1.225 -2.865,1.225c0,0 1.094,-0.563 2.761,-1.432c1.671,-0.865 3.91,-2.032 6.212,-3.234c2.301,-1.203 4.657,-2.446 6.563,-3.46c1.905,-1.018 3.36,-1.81 3.855,-2.121l64.382,-42.806l-15.662,-35.526l-75.998,21.229c-0.586,0.158 -2.172,0.743 -4.226,1.536c-2.054,0.793 -4.576,1.788 -7.027,2.77c-2.459,0.982 -4.846,1.946 -6.617,2.663c-1.774,0.716 -2.936,1.189 -2.936,1.189c0,0 1.121,-0.55 2.837,-1.397c1.712,-0.842 4.009,-1.982 6.37,-3.162c2.36,-1.18 4.779,-2.401 6.729,-3.405c1.951,-1.009 3.442,-1.802 3.942,-2.135l66.647,-42.612l-21.806,-49.472M394.182,430.423l-157.628,77.503l22.108,41.711l67.71,-34.31l9.464,19.31l-66.9,34.373l21,39.617l148.263,-78.346l-17.337,-39.332l-56.675,29.121l-9.126,-19.284l57.328,-29.053l-18.207,-41.31M426.073,548.015l-113.808,60.526c-2.996,1.595 -5.374,3.379 -7.126,5.401c-1.753,2.022 -2.874,4.284 -3.361,6.833c-0.486,2.545 -0.338,5.374 0.446,8.536c0.779,3.158 2.194,6.635 4.234,10.491l25.486,48.076c1.942,3.657 3.919,6.603 5.978,8.864c2.054,2.253 4.184,3.825 6.428,4.744c2.234,0.914 4.585,1.175 7.085,0.806c2.496,-0.369 5.14,-1.365 7.964,-2.964l107.426,-60.81c2.644,-1.495 4.748,-3.171 6.315,-5.067c1.572,-1.892 2.608,-4.009 3.117,-6.388c0.509,-2.382 0.491,-5.031 -0.054,-7.995c-0.549,-2.968 -1.626,-6.257 -3.234,-9.905l-21.108,-47.882c-1.689,-3.834 -3.446,-6.951 -5.301,-9.379c-1.865,-2.432 -3.825,-4.171 -5.924,-5.243c-2.108,-1.076 -4.347,-1.482 -6.756,-1.247c-2.419,0.238 -5.009,1.112 -7.807,2.603M349.228,658.892l-8.986,-17.491l94.651,-51.661l7.937,17.441l-93.602,51.711" style="fill:#fff;fill-rule:nonzero;"/><path d="M70.479,340.161l-154.326,65.4c-4.095,1.734 -7.275,3.788 -9.523,6.22c-2.247,2.433 -3.558,5.239 -3.928,8.478c-0.364,3.238 0.217,6.905 1.744,11.058c1.522,4.144 3.986,8.757 7.396,13.905l42.459,64.139c3.211,4.856 6.391,8.797 9.594,11.874c3.189,3.067 6.401,5.27 9.694,6.648c3.283,1.374 6.644,1.928 10.13,1.698c3.482,-0.229 7.095,-1.243 10.892,-3.009l43.463,-20.207l-29.427,-47.314l-33.351,14.959l-14.937,-23.283l127.412,-56.143l13.14,23.076l-31.036,13.923l27.662,47.134l40.418,-18.788c3.505,-1.63 6.239,-3.54 8.203,-5.779c1.964,-2.243 3.166,-4.815 3.603,-7.779c0.442,-2.964 0.118,-6.324 -0.977,-10.135c-1.095,-3.82 -2.959,-8.099 -5.608,-12.896l-34.923,-63.292c-2.802,-5.067 -5.617,-9.243 -8.5,-12.554c-2.892,-3.324 -5.851,-5.779 -8.928,-7.396c-3.09,-1.622 -6.288,-2.405 -9.657,-2.383c-3.378,0.023 -6.923,0.851 -10.689,2.446M-23.853,541.396l-0.491,0.23l28.955,43.743l30.787,-10.176l16.82,26.117l-25.648,17.229l27.112,40.959l0.455,-0.23l152.898,-120.205l-26.486,-47.999l-204.402,50.332M81.447,581.125l-10.522,-16.873l67.71,-22.144l-57.188,39.017M228.386,577.752l-171.033,87.291l49.72,75.111l31.157,-16.761l-22.518,-35.175l134.629,-70.679l-21.955,-39.787M273.543,659.584l-161.876,87.512l45.783,69.161l29.513,-16.73l-20.805,-32.499l127.628,-70.76l-20.243,-36.684" style="fill:#fff;fill-rule:nonzero;"/><path d="M896.419,1291.5l-12.941,11.396l3.175,8.734l-60.197,53.265l5.572,13.104l59.485,-53l3.068,8.455l12.599,-11.274l-10.761,-30.68M907.91,1324.26l-71.499,64.058l5.36,12.612l30.77,-27.752l2.369,6.045l-30.598,27.684l5.247,12.343l69.481,-63.274l-4.441,-12.658l-26.554,24.023l-2.297,-6.077l26.698,-24.076l-4.536,-12.928M920.085,1358.96l-69.292,63.197l10.307,24.243l12.369,-11.423l-5.077,-12.36l17.203,-15.788l4.058,10.365l11.977,-11.05l-3.946,-10.414l14.644,-13.441l4.518,12.432l11.924,-11.013l-8.685,-24.748M929.193,1384.91l-0.356,0.329l-39.738,50.224l-23.405,21.743l4.869,11.459l23.072,-21.558l46.26,-30.382l0.347,-0.325l-4.117,-11.729l-23.936,17.234l21.283,-24.797l-4.279,-12.198M879.969,1490.25l-0.167,0.158l4.41,10.378l10.301,-8.558l2.626,6.36l-9.49,10.279l4.306,10.131l0.162,-0.158l59.909,-68.841l-4.243,-12.104l-67.814,52.355M908.108,1486.65l-1.662,-4.157l23.251,-19.306l-21.589,23.463M955.521,1459.96l-62.972,60.445l4.316,10.149l51.823,-50.004l1.608,4.423l-16.256,15.716l-1.302,-3.419l-11.847,11.437l-21.639,27.464l4.221,9.932l0.563,-0.55l25.022,-32.062l0.275,0.392c0.333,0.554 0.72,0.941 1.184,1.153c0.464,0.207 1,0.234 1.626,0.063c0.626,-0.167 1.343,-0.532 2.162,-1.108c0.82,-0.577 1.744,-1.365 2.789,-2.379l20.391,-19.824c1.189,-1.153 2.171,-2.256 2.955,-3.328c0.784,-1.072 1.37,-2.113 1.761,-3.14c0.392,-1.022 0.595,-2.036 0.604,-3.045c0.014,-1.013 -0.167,-2.027 -0.527,-3.063l-6.757,-19.252M965.318,1487.88l-61.255,59.616l8.342,19.626l10.941,-10.757l-4.112,-10.013l15.211,-14.878l3.288,8.387l10.613,-10.423l-3.198,-8.432l12.977,-12.689l3.662,10.076l10.585,-10.405l-7.054,-20.108" style="fill:#fff;fill-rule:nonzero;"/><path d="M729.859,1437.97l-0.203,0.18l6.951,13.113l12.571,-9.527l4.126,8l-11.31,11.693l6.743,12.712l0.194,-0.176l70.674,-78.399l-6.711,-15.225l-83.035,57.629M766.345,1436.16l-2.608,-5.225l28.288,-21.437l-25.68,26.662M817.321,1416.97l-18.089,16.275c-0.708,0.639 -1.32,1.238 -1.861,1.833c-0.545,0.599 -1.009,1.185 -1.423,1.797c-0.415,0.613 -0.77,1.248 -1.095,1.937c-0.324,0.689 -0.612,1.433 -0.883,2.257l-8.891,31.445l-12.451,11.311l-2.815,-5.478l12.41,-11.243l-6.387,-12.806l-16.694,15.023c-1.509,1.355 -2.738,2.675 -3.689,3.964c-0.95,1.292 -1.622,2.558 -2.022,3.815c-0.397,1.252 -0.523,2.495 -0.379,3.747c0.149,1.248 0.559,2.5 1.234,3.775l8.419,15.878c0.658,1.239 1.388,2.158 2.212,2.748c0.82,0.595 1.73,0.869 2.739,0.82c1.009,-0.05 2.117,-0.424 3.342,-1.117c1.225,-0.694 2.558,-1.707 4.022,-3.05l18.117,-16.572c0.694,-0.635 1.302,-1.243 1.833,-1.846c0.532,-0.604 0.991,-1.199 1.392,-1.816c0.401,-0.621 0.748,-1.256 1.05,-1.937c0.302,-0.684 0.558,-1.41 0.793,-2.207l8.95,-31.013l12.103,-10.964l2.545,5.595l-11.666,10.599l5.914,12.626l15.477,-14.162c1.406,-1.288 2.55,-2.527 3.442,-3.748c0.887,-1.221 1.522,-2.414 1.91,-3.612c0.387,-1.203 0.527,-2.401 0.428,-3.626c-0.1,-1.23 -0.437,-2.482 -1.014,-3.784l-7.221,-16.378c-0.576,-1.316 -1.238,-2.307 -1.995,-2.969c-0.757,-0.662 -1.613,-1 -2.572,-1.009c-0.964,-0.004 -2.032,0.316 -3.225,0.964c-1.194,0.649 -2.509,1.626 -3.96,2.928M838.826,1464.74l-55.477,51.201c-1.441,1.329 -2.617,2.604 -3.531,3.843c-0.915,1.238 -1.568,2.441 -1.96,3.63c-0.392,1.185 -0.522,2.356 -0.396,3.532c0.126,1.175 0.509,2.351 1.144,3.549l8.013,15.117c0.617,1.167 1.307,2.018 2.077,2.554c0.77,0.536 1.626,0.761 2.576,0.68c0.951,-0.081 2,-0.473 3.162,-1.171c1.158,-0.698 2.428,-1.703 3.825,-3.009l32.359,-30.333l-7.436,-15.585l-12.446,11.567l1.937,3.933l-16.243,15.13l-2.86,-5.563l46.67,-43.346l2.585,5.689l-8.765,8.162l5.446,11.685l12.585,-11.802c1.347,-1.257 2.446,-2.473 3.306,-3.662c0.861,-1.189 1.487,-2.351 1.874,-3.504c0.392,-1.154 0.545,-2.302 0.473,-3.464c-0.076,-1.163 -0.378,-2.334 -0.91,-3.541l-6.887,-15.626c-0.536,-1.216 -1.153,-2.121 -1.86,-2.716c-0.712,-0.599 -1.518,-0.883 -2.424,-0.86c-0.91,0.027 -1.928,0.365 -3.063,1.018c-1.135,0.648 -2.387,1.617 -3.774,2.892M854.037,1498.52l-53.594,50.35c-1.387,1.307 -2.527,2.55 -3.41,3.757c-0.887,1.207 -1.522,2.374 -1.905,3.522c-0.387,1.145 -0.522,2.266 -0.41,3.388c0.113,1.117 0.469,2.234 1.068,3.365l7.563,14.265c0.581,1.099 1.234,1.897 1.968,2.388c0.734,0.495 1.55,0.689 2.464,0.585c0.91,-0.108 1.919,-0.509 3.036,-1.207c1.117,-0.698 2.342,-1.689 3.689,-2.978l52.058,-49.616c1.297,-1.243 2.365,-2.432 3.202,-3.585c0.838,-1.158 1.446,-2.284 1.829,-3.397c0.383,-1.112 0.541,-2.211 0.478,-3.319c-0.063,-1.104 -0.347,-2.221 -0.847,-3.356l-6.509,-14.766c-0.513,-1.171 -1.104,-2.031 -1.784,-2.59c-0.68,-0.554 -1.45,-0.806 -2.32,-0.752c-0.873,0.054 -1.846,0.414 -2.936,1.072c-1.095,0.658 -2.302,1.617 -3.64,2.874M812.871,1561.38l-2.689,-5.23l45.098,-42.625l2.437,5.351l-44.846,42.504M868.411,1530.44l-51.828,49.508c-1.343,1.284 -2.446,2.504 -3.307,3.68c-0.855,1.18 -1.473,2.311 -1.851,3.414c-0.378,1.108 -0.518,2.185 -0.419,3.257c0.099,1.068 0.433,2.126 0.996,3.194l7.148,13.481c0.55,1.041 1.171,1.789 1.874,2.244c0.698,0.455 1.482,0.621 2.36,0.5c0.874,-0.122 1.847,-0.532 2.924,-1.226c1.076,-0.693 2.261,-1.675 3.567,-2.936l50.387,-48.797c1.257,-1.221 2.293,-2.383 3.103,-3.513c0.816,-1.131 1.406,-2.221 1.784,-3.298c0.374,-1.072 0.536,-2.13 0.482,-3.189c-0.049,-1.058 -0.315,-2.117 -0.793,-3.198l-6.157,-13.973c-0.487,-1.103 -1.05,-1.914 -1.698,-2.428c-0.649,-0.518 -1.388,-0.738 -2.226,-0.662c-0.837,0.072 -1.779,0.437 -2.828,1.095c-1.054,0.658 -2.226,1.608 -3.518,2.847M828.411,1591.63l-2.54,-4.946l43.63,-41.914l2.306,5.063l-43.396,41.797M889.266,1553.61l-64.981,63.058l8.599,16.215c0.707,1.334 1.518,2.307 2.446,2.901c0.924,0.599 1.964,0.829 3.131,0.68c1.162,-0.148 2.45,-0.671 3.874,-1.576c1.423,-0.901 2.977,-2.185 4.68,-3.86l43.625,-42.878c1.649,-1.622 3.004,-3.194 4.068,-4.725c1.063,-1.532 1.842,-3.023 2.337,-4.487c0.496,-1.459 0.708,-2.896 0.649,-4.306c-0.063,-1.414 -0.401,-2.811 -1.009,-4.193l-7.419,-16.829M845.253,1618.2c-0.405,0.391 -0.761,0.675 -1.076,0.864c-0.32,0.185 -0.595,0.275 -0.843,0.275c-0.247,0.005 -0.463,-0.081 -0.657,-0.243c-0.194,-0.158 -0.361,-0.392 -0.514,-0.694l-1.455,-2.824l42.256,-41.216l1.316,2.892c0.139,0.307 0.234,0.613 0.27,0.919c0.036,0.306 0.018,0.617 -0.068,0.937c-0.085,0.32 -0.238,0.653 -0.468,0.996c-0.23,0.346 -0.532,0.707 -0.928,1.094l-37.833,37" style="fill:#fff;fill-rule:nonzero;"/><path d="M628.457,1527.28l-0.217,0.189l8.311,12.559l13.491,-10.293l4.937,7.667l-11.991,12.351l8.049,12.157l0.212,-0.184l74.629,-82.44l-8.094,-14.676l-89.327,62.67M668.803,1523.06l-3.126,-5.009l30.337,-23.144l-27.211,28.153M724.311,1500.66l-19.257,17.328c-0.756,0.68 -1.405,1.315 -1.973,1.937c-0.567,0.626 -1.054,1.239 -1.482,1.869c-0.423,0.631 -0.788,1.28 -1.112,1.982c-0.324,0.703 -0.608,1.455 -0.874,2.289l-8.441,31.787l-13.252,12.041l-3.365,-5.239l13.216,-11.973l-7.644,-12.265l-17.788,16.008c-1.608,1.451 -2.91,2.838 -3.901,4.181c-0.995,1.342 -1.685,2.644 -2.067,3.914c-0.383,1.27 -0.464,2.509 -0.244,3.739c0.216,1.229 0.73,2.441 1.536,3.662l10.041,15.162c0.779,1.18 1.63,2.04 2.567,2.572c0.933,0.531 1.951,0.743 3.068,0.621c1.112,-0.117 2.324,-0.558 3.644,-1.329c1.32,-0.77 2.752,-1.864 4.311,-3.288l19.274,-17.635c0.739,-0.675 1.383,-1.319 1.941,-1.95c0.563,-0.635 1.045,-1.257 1.46,-1.896c0.414,-0.64 0.766,-1.293 1.067,-1.987c0.302,-0.698 0.559,-1.432 0.78,-2.234l8.499,-31.324l12.906,-11.693l3.058,5.373l-12.437,11.302l7.095,12.112l16.45,-15.049c1.496,-1.369 2.703,-2.675 3.631,-3.941c0.923,-1.266 1.572,-2.496 1.946,-3.707c0.373,-1.212 0.477,-2.41 0.315,-3.617c-0.162,-1.212 -0.595,-2.428 -1.284,-3.681l-8.698,-15.761c-0.698,-1.265 -1.473,-2.202 -2.338,-2.81c-0.865,-0.608 -1.82,-0.883 -2.883,-0.829c-1.063,0.054 -2.234,0.441 -3.522,1.162c-1.288,0.721 -2.698,1.779 -4.243,3.167M758.675,1538.71l-76.345,70.463l12.121,18.319c0.995,1.5 2.095,2.595 3.306,3.275c1.212,0.676 2.536,0.941 3.982,0.784c1.446,-0.158 3.023,-0.739 4.73,-1.743c1.707,-1.005 3.554,-2.437 5.549,-4.307l51.035,-47.841c1.924,-1.802 3.487,-3.559 4.69,-5.27c1.207,-1.712 2.058,-3.383 2.558,-5.023c0.505,-1.644 0.662,-3.256 0.478,-4.851c-0.185,-1.595 -0.712,-3.171 -1.577,-4.734l-10.527,-19.072M708.766,1611.05c-0.473,0.437 -0.892,0.752 -1.275,0.96c-0.378,0.207 -0.716,0.301 -1.022,0.297c-0.307,-0.005 -0.581,-0.104 -0.829,-0.288c-0.252,-0.181 -0.482,-0.451 -0.698,-0.789l-2.05,-3.189l49.531,-46.004l1.865,3.275c0.198,0.347 0.338,0.694 0.41,1.041c0.067,0.342 0.067,0.693 -0.014,1.054c-0.085,0.36 -0.248,0.729 -0.509,1.117c-0.257,0.387 -0.608,0.788 -1.067,1.216l-44.342,41.31M776.549,1571.1l-73.634,69.174l14.054,21.234l13.121,-12.472l-6.95,-10.847l18.261,-17.257l5.576,9.108l12.725,-12.085l-5.441,-9.18l15.54,-14.684l6.266,10.986l12.612,-11.991l-12.13,-21.986M718.707,1663.68l-0.184,0.176l6.445,9.739l11.478,-9.68l3.847,5.973l-10.343,11.229l6.271,9.477l0.18,-0.175l64.67,-74.882l-6.324,-11.459l-76.04,59.602M752.211,1656.82l-2.428,-3.892l25.91,-21.815l-23.482,25.707M807.03,1626.33l-69.084,66.868l10.274,15.518c0.843,1.275 1.789,2.18 2.843,2.712c1.049,0.527 2.211,0.685 3.495,0.459c1.284,-0.225 2.685,-0.828 4.221,-1.819c1.531,-0.991 3.198,-2.37 5.004,-4.14l46.306,-45.409c1.752,-1.716 3.175,-3.365 4.283,-4.955c1.108,-1.59 1.901,-3.117 2.383,-4.604c0.482,-1.482 0.658,-2.918 0.527,-4.315c-0.13,-1.401 -0.567,-2.761 -1.302,-4.094l-8.95,-16.221M761.234,1693.3c-0.428,0.418 -0.807,0.725 -1.149,0.927c-0.338,0.208 -0.635,0.311 -0.905,0.329c-0.271,0.018 -0.509,-0.054 -0.726,-0.198c-0.216,-0.149 -0.414,-0.369 -0.599,-0.658l-1.734,-2.707l44.869,-43.657l1.585,2.784c0.167,0.297 0.284,0.59 0.338,0.892c0.054,0.302 0.045,0.608 -0.04,0.928c-0.082,0.32 -0.235,0.658 -0.473,1.013c-0.239,0.356 -0.563,0.735 -0.978,1.14l-40.188,39.207" style="fill:#fff;fill-rule:nonzero;"/><path d="M391.238,703.857l-193.096,110.601c-5.207,2.982 -9.306,6.176 -12.288,9.658c-2.982,3.486 -4.834,7.257 -5.55,11.378c-0.716,4.117 -0.293,8.581 1.266,13.464c1.554,4.865 4.23,10.126 8.027,15.86l46.463,70.197c3.482,5.257 6.995,9.41 10.608,12.491c3.59,3.063 7.284,5.072 11.135,6.054c3.833,0.982 7.829,0.946 12.049,-0.072c4.207,-1.018 8.635,-3.014 13.347,-5.96l106.926,-66.863l-38.716,-69.77l-41.981,25.086l10.527,17.968l-55.346,33.468l-16.112,-25.658l157.925,-93.899l13.238,25.797l-28.612,17.302l27.653,51.837l40.031,-25.032c4.234,-2.648 7.599,-5.486 10.108,-8.572c2.504,-3.085 4.157,-6.427 4.964,-10.089c0.811,-3.672 0.77,-7.676 -0.108,-12.077c-0.883,-4.419 -2.617,-9.252 -5.203,-14.572l-34.441,-70.782c-2.761,-5.671 -5.648,-10.284 -8.72,-13.842c-3.086,-3.581 -6.352,-6.099 -9.847,-7.572c-3.509,-1.482 -7.248,-1.91 -11.266,-1.307c-4.031,0.604 -8.342,2.248 -12.981,4.906M464.772,849.746l-173.997,109.638c-4.666,2.941 -8.364,6.004 -11.081,9.261c-2.711,3.261 -4.437,6.707 -5.166,10.401c-0.725,3.689 -0.455,7.621 0.811,11.86c1.256,4.221 3.504,8.739 6.729,13.608l39.621,59.855c2.978,4.5 6.014,8.013 9.158,10.563c3.126,2.54 6.369,4.135 9.774,4.806c3.397,0.666 6.955,0.419 10.739,-0.721c3.77,-1.135 7.761,-3.157 12.022,-6.045l159.47,-108.003c3.861,-2.612 6.942,-5.346 9.257,-8.252c2.311,-2.905 3.86,-5.991 4.653,-9.319c0.793,-3.329 0.833,-6.906 0.117,-10.788c-0.72,-3.897 -2.193,-8.113 -4.432,-12.707l-29.671,-60.986c-2.41,-4.95 -4.937,-8.91 -7.63,-11.901c-2.707,-3.004 -5.581,-5.027 -8.671,-6.099c-3.108,-1.072 -6.428,-1.189 -10.023,-0.378c-3.603,0.811 -7.482,2.559 -11.68,5.207M348.081,1020.34l-13.766,-21.923l142.804,-92.769l11.387,22.193l-140.425,92.499M528.078,975.339l-158.187,107.813c-4.23,2.883 -7.59,5.824 -10.081,8.883c-2.491,3.058 -4.108,6.225 -4.838,9.567c-0.725,3.334 -0.572,6.834 0.46,10.55c1.031,3.707 2.932,7.621 5.698,11.801l34.216,51.684c2.576,3.892 5.225,6.896 7.99,9.036c2.757,2.126 5.631,3.392 8.676,3.824c3.031,0.428 6.239,0.027 9.657,-1.193c3.41,-1.212 7.036,-3.235 10.928,-6.054l145.989,-105.71c3.545,-2.568 6.387,-5.198 8.536,-7.946c2.144,-2.748 3.603,-5.613 4.378,-8.653c0.775,-3.041 0.869,-6.266 0.284,-9.721c-0.586,-3.468 -1.856,-7.18 -3.807,-11.193l-25.855,-53.134c-2.085,-4.289 -4.293,-7.68 -6.675,-10.198c-2.388,-2.523 -4.946,-4.167 -7.717,-4.942c-2.779,-0.779 -5.774,-0.689 -9.031,0.248c-3.266,0.937 -6.788,2.725 -10.621,5.338M419.908,1134.71l-11.896,-18.941l130.21,-91.035l9.896,19.284l-128.21,90.692M603.423,1069.78l-187.699,136.646l38.341,57.922c3.068,4.635 6.302,8.23 9.725,10.779c3.406,2.536 7.005,4.041 10.825,4.509c3.806,0.464 7.833,-0.103 12.112,-1.707c4.261,-1.599 8.779,-4.229 13.576,-7.91l120.16,-92.111c4.437,-3.4 7.987,-6.918 10.676,-10.572c2.685,-3.653 4.513,-7.45 5.504,-11.409c0.996,-3.969 1.149,-8.117 0.473,-12.46c-0.675,-4.36 -2.184,-8.932 -4.522,-13.743l-29.171,-59.944M488.416,1229.57c-1.162,0.874 -2.212,1.45 -3.176,1.756c-0.963,0.307 -1.842,0.343 -2.662,0.14c-0.819,-0.203 -1.576,-0.649 -2.297,-1.311c-0.721,-0.662 -1.401,-1.536 -2.072,-2.603l-6.248,-9.951l119.58,-88.958l5.225,10.185c0.558,1.09 0.968,2.122 1.202,3.103c0.23,0.982 0.289,1.919 0.14,2.82c-0.149,0.901 -0.505,1.77 -1.09,2.613c-0.59,0.847 -1.41,1.666 -2.496,2.482l-106.106,79.724M652.229,1170.09l-172.443,133.115l40.999,61.935l30.454,-24.391l-19.567,-31.234l42.54,-33.454l15.288,26.337l28.882,-23.062l-14.589,-26.536l35.377,-27.819l16.311,31.706l27.981,-22.409l-31.233,-64.188M685.377,1238.21l-0.397,0.319l-146.38,153.52l18.401,27.797l165.204,-104.876l0.369,-0.311l-13.531,-27.806l-83.3,55.945c-0.338,0.207 -1.744,1.275 -3.671,2.757c-1.928,1.491 -4.374,3.396 -6.784,5.283c-2.41,1.888 -4.788,3.753 -6.559,5.149c-1.774,1.392 -2.945,2.315 -2.945,2.315c0,0 1.144,-0.968 2.869,-2.441c1.73,-1.473 4.04,-3.446 6.383,-5.455c2.342,-2.004 4.716,-4.045 6.572,-5.658c1.855,-1.612 3.198,-2.797 3.481,-3.099l74.77,-73.67l-14.482,-29.769M724.714,1319.07l-150.669,126.53l16.459,24.864l146.953,-125.214l-12.743,-26.18M740.511,1351.53l-146.065,124.885l29.445,44.481l26.716,-23.441l-13.198,-21.103l115.237,-99.886l-12.135,-24.936" style="fill:#fff;fill-rule:nonzero;"/><path d="M727.329,1786.74l-5.72,5.693l4.725,9.131c0.031,0.067 0.139,0.248 0.293,0.477c0.148,0.23 0.337,0.509 0.522,0.784c0.185,0.27 0.365,0.532 0.496,0.725c0.135,0.194 0.225,0.32 0.225,0.32c0,0 -0.099,-0.117 -0.248,-0.293c-0.149,-0.18 -0.351,-0.423 -0.559,-0.666c-0.211,-0.248 -0.427,-0.5 -0.603,-0.703c-0.18,-0.203 -0.32,-0.356 -0.374,-0.396l-7.27,-6.595l-4.387,4.365l4.747,9.139c0.036,0.064 0.153,0.235 0.307,0.455c0.153,0.221 0.346,0.496 0.531,0.757c0.185,0.266 0.365,0.523 0.5,0.712c0.135,0.189 0.221,0.315 0.221,0.315c0,0 -0.095,-0.117 -0.243,-0.293c-0.149,-0.171 -0.352,-0.41 -0.559,-0.648c-0.212,-0.244 -0.428,-0.491 -0.604,-0.685c-0.18,-0.198 -0.319,-0.347 -0.374,-0.392l-7.333,-6.563l-5.801,5.775l17.436,14.297l5.5,-5.531l-3.027,-7.289c-0.022,-0.058 -0.099,-0.189 -0.198,-0.36c-0.104,-0.171 -0.23,-0.374 -0.356,-0.572c-0.126,-0.198 -0.248,-0.387 -0.338,-0.532c-0.09,-0.139 -0.148,-0.229 -0.148,-0.229c0,0 0.072,0.076 0.184,0.198c0.113,0.117 0.266,0.279 0.419,0.446c0.158,0.162 0.32,0.333 0.451,0.473c0.135,0.139 0.238,0.243 0.279,0.284l5.946,4.351l5.441,-5.478l-10.081,-21.472" style="fill:#fff;fill-rule:nonzero;"/><path d="M741.899,1772.23l-5.567,5.54l5.144,7.072l-2.617,2.613l-5.171,-7.05l-5.572,5.545l13.45,18.081l5.432,-5.468l-5.644,-7.699l2.604,-2.608l5.617,7.717l5.428,-5.464l-13.104,-18.279Z" style="fill:#fff;fill-rule:nonzero;"/><path d="M753.623,1760.56l-7.198,7.166c-0.563,0.563 -1.018,1.086 -1.365,1.577c-0.347,0.486 -0.586,0.946 -0.721,1.378c-0.135,0.433 -0.166,0.842 -0.099,1.234c0.063,0.392 0.23,0.766 0.491,1.131l10.09,14.13c0.252,0.352 0.527,0.599 0.833,0.735c0.307,0.135 0.645,0.162 1.018,0.072c0.37,-0.086 0.784,-0.289 1.239,-0.604c0.455,-0.32 0.951,-0.752 1.505,-1.306l7.018,-7.063c0.549,-0.55 0.991,-1.063 1.328,-1.545c0.343,-0.482 0.577,-0.933 0.717,-1.356c0.139,-0.428 0.175,-0.829 0.121,-1.212c-0.058,-0.383 -0.212,-0.752 -0.459,-1.108l-9.824,-14.279c-0.257,-0.369 -0.536,-0.63 -0.847,-0.775c-0.311,-0.144 -0.658,-0.18 -1.041,-0.094c-0.378,0.081 -0.802,0.284 -1.266,0.603c-0.468,0.316 -0.977,0.757 -1.54,1.316M759.461,1780.74l-8.496,-12.076l2.631,-2.622l8.45,12.103l-2.585,2.595" style="fill:#fff;fill-rule:nonzero;"/><path d="M776.014,1738.27l-12.391,12.333l2.288,3.387l3.486,-3.477l10.207,15.252l5.271,-5.306l-10.095,-15.311l3.469,-3.459l-2.235,-3.419Z" style="fill:#fff;fill-rule:nonzero;"/><path d="M790.189,1724.16l-5.387,5.365l10.013,15.711l-2.531,2.541l-10.067,-15.68l-5.37,5.346l10.87,16.68c0.234,0.365 0.495,0.622 0.788,0.766c0.293,0.144 0.612,0.18 0.973,0.104c0.36,-0.077 0.756,-0.271 1.202,-0.577c0.442,-0.306 0.928,-0.73 1.469,-1.27l6.865,-6.905c0.536,-0.541 0.973,-1.046 1.306,-1.523c0.338,-0.477 0.576,-0.928 0.721,-1.356c0.139,-0.423 0.189,-0.829 0.144,-1.221c-0.045,-0.391 -0.185,-0.765 -0.415,-1.135l-10.581,-16.846" style="fill:#fff;fill-rule:nonzero;"/><path d="M801.33,1713.07l-9.869,9.824l11.882,18.991l5.189,-5.221l-9.702,-15.738l2.288,-2.284l3.117,5.085l-1.766,1.766l2.23,3.617l6.743,4.626l5.203,-5.234l-0.104,-0.176l-7.937,-5.378l0.235,-0.288c0.315,-0.356 0.572,-0.694 0.765,-1.027c0.199,-0.333 0.334,-0.662 0.406,-0.982c0.072,-0.32 0.076,-0.64 0.018,-0.959c-0.059,-0.316 -0.185,-0.636 -0.379,-0.96l-3.914,-6.486c-0.23,-0.383 -0.486,-0.653 -0.779,-0.816c-0.288,-0.157 -0.613,-0.207 -0.969,-0.139c-0.36,0.063 -0.761,0.243 -1.198,0.54c-0.441,0.298 -0.928,0.707 -1.459,1.239" style="fill:#fff;fill-rule:nonzero;"/><path d="M819.525,1694.95l-5.211,5.19l3.666,6.247c0.131,0.225 0.311,0.469 0.509,0.716c0.199,0.244 0.415,0.487 0.618,0.703c0.198,0.216 0.382,0.405 0.513,0.541c0.135,0.135 0.216,0.211 0.216,0.211l-9.054,-4.905l-4.941,4.919l11.536,19.193l5.112,-5.148l-3.59,-6.063c-0.13,-0.221 -0.31,-0.464 -0.509,-0.703c-0.198,-0.243 -0.41,-0.482 -0.612,-0.698c-0.198,-0.212 -0.383,-0.397 -0.514,-0.532c-0.135,-0.13 -0.216,-0.211 -0.216,-0.211l8.892,4.738l4.788,-4.82l-11.203,-19.378" style="fill:#fff;fill-rule:nonzero;"/><path d="M835.121,1679.43l-8.604,8.567l11.036,19.473l8.401,-8.455c0.703,-0.707 1.284,-1.383 1.743,-2.027c0.464,-0.649 0.802,-1.266 1.014,-1.86c0.216,-0.6 0.306,-1.167 0.274,-1.721c-0.031,-0.55 -0.189,-1.081 -0.468,-1.595l-7.405,-13.554c-0.284,-0.527 -0.622,-0.896 -1.014,-1.108c-0.392,-0.211 -0.833,-0.27 -1.329,-0.171c-0.5,0.099 -1.049,0.352 -1.657,0.761c-0.608,0.41 -1.271,0.973 -1.991,1.69M840.805,1699.05l-7.171,-12.838l1.482,-1.482c0.162,-0.157 0.306,-0.293 0.442,-0.392c0.135,-0.099 0.256,-0.166 0.364,-0.198c0.113,-0.031 0.212,-0.027 0.302,0.014c0.086,0.045 0.167,0.126 0.234,0.252l6.419,11.572c0.068,0.121 0.104,0.243 0.108,0.369c0.005,0.122 -0.022,0.248 -0.076,0.379c-0.054,0.13 -0.135,0.265 -0.243,0.409c-0.109,0.14 -0.244,0.289 -0.401,0.446l-1.46,1.469" style="fill:#fff;fill-rule:nonzero;"/><path d="M849.487,1665.12l-5.744,5.716l6.577,23.702l0.027,0.05l4.892,-4.919l-1.162,-3.374l3.022,-3.036l1.996,2.527l4.882,-4.91l-0.027,-0.05l-14.463,-15.706M852.761,1682.32l-2.72,-7.905l4.711,5.914l-1.991,1.991Z" style="fill:#fff;fill-rule:nonzero;"/><path d="M863.734,1650.94l-9.451,9.41l10.379,19.842l4.977,-5.004l-8.473,-16.437l2.194,-2.189l2.721,5.311l-1.694,1.689l1.946,3.779l6.094,5.041l4.991,-5.023l-0.094,-0.18l-7.176,-5.865l0.225,-0.279c0.302,-0.338 0.554,-0.671 0.748,-1c0.194,-0.329 0.333,-0.658 0.414,-0.982c0.077,-0.324 0.099,-0.644 0.059,-0.973c-0.045,-0.329 -0.149,-0.658 -0.32,-0.996l-3.41,-6.765c-0.202,-0.401 -0.432,-0.689 -0.698,-0.865c-0.266,-0.176 -0.567,-0.239 -0.905,-0.185c-0.338,0.05 -0.717,0.212 -1.135,0.491c-0.419,0.28 -0.883,0.671 -1.392,1.18" style="fill:#fff;fill-rule:nonzero;"/><path d="M880.393,1634.36l-5.243,5.22l2.185,10.527l-4.212,-8.509l-5.067,5.045l10.058,20.018l4.95,-4.977l-4.333,-8.757l6.685,6.392l5.247,-5.279l-0.072,-0.154l-8.45,-6.63l-1.671,-12.739l-0.077,-0.157Z" style="fill:#fff;fill-rule:nonzero;"/><path d="M894.469,1620.34l-4.95,4.928l3.099,6.568c0.108,0.229 0.261,0.491 0.432,0.752c0.172,0.261 0.361,0.522 0.532,0.757c0.176,0.229 0.333,0.432 0.45,0.576c0.117,0.144 0.189,0.235 0.189,0.235l-8.053,-5.55l-4.69,4.667l9.748,20.193l4.865,-4.892l-3.036,-6.378c-0.108,-0.23 -0.266,-0.487 -0.437,-0.748c-0.167,-0.257 -0.356,-0.513 -0.527,-0.743c-0.176,-0.225 -0.333,-0.428 -0.451,-0.572c-0.117,-0.14 -0.189,-0.225 -0.189,-0.225l7.915,5.373l4.554,-4.585l-9.451,-20.356" style="fill:#fff;fill-rule:nonzero;"/><path d="M905.753,1609.11l-10.076,10.031l9.423,20.374l9.91,-9.973l-1.622,-3.613l-5.072,5.099l-2.301,-5.054l4.22,-4.229l-1.626,-3.617l-4.239,4.238l-2.027,-4.455l5.081,-5.072l-1.671,-3.729Z" style="fill:#fff;fill-rule:nonzero;"/><path d="M915.89,1599.02l-6.244,6.216c-0.491,0.491 -0.9,0.959 -1.216,1.419c-0.32,0.455 -0.554,0.891 -0.702,1.324c-0.149,0.428 -0.212,0.847 -0.19,1.261c0.018,0.415 0.122,0.82 0.302,1.23l2.252,5.04c0.09,0.198 0.181,0.356 0.284,0.487c0.099,0.13 0.207,0.225 0.333,0.297c0.127,0.072 0.266,0.113 0.424,0.131c0.162,0.022 0.342,0.013 0.549,-0.009l8.212,-1.554l1.486,3.391l-2.103,2.113l-1.487,-3.369l-4.855,4.869l1.986,4.437c0.176,0.396 0.383,0.685 0.626,0.86c0.239,0.18 0.514,0.248 0.829,0.203c0.315,-0.045 0.667,-0.198 1.059,-0.46c0.396,-0.265 0.833,-0.639 1.315,-1.126l6.103,-6.139c0.482,-0.487 0.883,-0.955 1.203,-1.406c0.315,-0.45 0.55,-0.882 0.698,-1.306c0.149,-0.423 0.221,-0.838 0.207,-1.243c-0.013,-0.405 -0.103,-0.806 -0.279,-1.203l-2.153,-5.009c-0.085,-0.193 -0.176,-0.356 -0.275,-0.482c-0.103,-0.13 -0.211,-0.225 -0.342,-0.292c-0.126,-0.063 -0.27,-0.104 -0.437,-0.113c-0.162,-0.009 -0.351,0.004 -0.563,0.04l-8.149,1.491l-1.513,-3.441l2.135,-2.131l1.455,3.32l4.892,-4.887l-1.928,-4.477c-0.18,-0.415 -0.387,-0.712 -0.631,-0.897c-0.243,-0.185 -0.522,-0.257 -0.838,-0.216c-0.319,0.045 -0.68,0.203 -1.085,0.473c-0.405,0.27 -0.856,0.658 -1.36,1.158" style="fill:#fff;fill-rule:nonzero;"/><path d="M928.978,1585.99l-6.207,6.18c-0.491,0.486 -0.892,0.95 -1.207,1.405c-0.315,0.45 -0.545,0.883 -0.689,1.311c-0.144,0.428 -0.208,0.842 -0.19,1.257c0.018,0.409 0.118,0.819 0.293,1.234l2.18,5.081c0.086,0.198 0.172,0.36 0.266,0.491c0.099,0.135 0.203,0.234 0.324,0.311c0.118,0.076 0.253,0.121 0.41,0.144c0.154,0.022 0.329,0.022 0.536,0l8.09,-1.464l1.437,3.419l-2.085,2.099l-1.437,-3.401l-4.793,4.806l1.919,4.473c0.171,0.401 0.374,0.689 0.608,0.874c0.234,0.18 0.5,0.252 0.806,0.216c0.307,-0.036 0.654,-0.185 1.041,-0.441c0.387,-0.257 0.82,-0.627 1.297,-1.108l6.068,-6.104c0.477,-0.477 0.869,-0.941 1.18,-1.383c0.311,-0.446 0.545,-0.878 0.693,-1.297c0.149,-0.424 0.217,-0.833 0.208,-1.239c-0.009,-0.41 -0.095,-0.811 -0.262,-1.212l-2.085,-5.049c-0.081,-0.194 -0.171,-0.356 -0.266,-0.486c-0.099,-0.131 -0.207,-0.23 -0.333,-0.298c-0.122,-0.067 -0.261,-0.108 -0.419,-0.126c-0.162,-0.013 -0.338,-0.004 -0.545,0.023l-8.05,1.419l-1.464,-3.464l2.122,-2.113l1.401,3.347l4.847,-4.842l-1.865,-4.518c-0.171,-0.415 -0.369,-0.717 -0.608,-0.906c-0.234,-0.193 -0.505,-0.27 -0.816,-0.234c-0.31,0.036 -0.662,0.189 -1.063,0.455c-0.4,0.266 -0.842,0.644 -1.342,1.14" style="fill:#fff;fill-rule:nonzero;"/><path d="M943.07,1571.96l-4.802,4.779l8.459,20.896l4.694,-4.725l-8.351,-20.95Z" style="fill:#fff;fill-rule:nonzero;"/><path d="M956.686,1558.4l-4.734,4.712l2.639,6.815c0.09,0.239 0.225,0.514 0.374,0.793c0.144,0.275 0.306,0.55 0.46,0.797c0.148,0.248 0.283,0.464 0.387,0.617c0.099,0.154 0.162,0.248 0.162,0.248l-7.23,-6.076l-4.486,4.468l8.324,20.968l4.635,-4.662l-2.59,-6.626c-0.094,-0.239 -0.225,-0.509 -0.374,-0.779c-0.148,-0.275 -0.306,-0.545 -0.459,-0.788c-0.149,-0.244 -0.284,-0.46 -0.387,-0.613c-0.1,-0.153 -0.163,-0.243 -0.163,-0.243l7.108,5.891l4.383,-4.409l-8.049,-21.113" style="fill:#fff;fill-rule:nonzero;"/><path d="M968.233,1546.91l-10.811,10.766l1.46,3.842l3.049,-3.04l6.518,17.306l4.622,-4.649l-6.433,-17.356l3.014,-3.004l-1.419,-3.865Z" style="fill:#fff;fill-rule:nonzero;"/><path d="M977.887,1537.3l-6.157,6.13c-0.482,0.482 -0.879,0.941 -1.19,1.387c-0.315,0.442 -0.54,0.874 -0.689,1.298c-0.148,0.423 -0.22,0.842 -0.211,1.256c0.009,0.419 0.09,0.834 0.247,1.257l6.005,16.41c0.148,0.41 0.329,0.716 0.545,0.91c0.211,0.198 0.459,0.283 0.748,0.261c0.292,-0.027 0.621,-0.162 0.995,-0.405c0.374,-0.248 0.797,-0.609 1.27,-1.086l6.023,-6.058c0.468,-0.473 0.856,-0.928 1.162,-1.365c0.306,-0.437 0.536,-0.861 0.684,-1.28c0.149,-0.414 0.221,-0.824 0.221,-1.229c0,-0.41 -0.076,-0.816 -0.221,-1.23l-5.81,-16.513c-0.149,-0.428 -0.329,-0.743 -0.55,-0.951c-0.216,-0.202 -0.468,-0.297 -0.766,-0.279c-0.292,0.018 -0.63,0.153 -1.013,0.396c-0.383,0.248 -0.811,0.613 -1.293,1.091M980.063,1559.2l-5.045,-14l2.252,-2.247l5.014,14.022l-2.221,2.225" style="fill:#fff;fill-rule:nonzero;"/><path d="M991.515,1523.73l-4.657,4.635l7.387,21.463l8.703,-8.752l-1.311,-3.928l-4.162,4.176l-5.96,-17.594Z" style="fill:#fff;fill-rule:nonzero;"/><path d="M1001.21,1514.08l-4.604,4.585l7.18,21.567l4.505,-4.531l-7.081,-21.621Z" style="fill:#fff;fill-rule:nonzero;"/><path d="M1011.04,1504.29l-6.032,6.004c-0.464,0.46 -0.842,0.906 -1.144,1.338c-0.306,0.437 -0.532,0.861 -0.68,1.284c-0.149,0.423 -0.225,0.838 -0.225,1.261c-0.005,0.419 0.067,0.843 0.207,1.275l5.446,16.702c0.139,0.415 0.301,0.73 0.504,0.937c0.198,0.203 0.433,0.302 0.707,0.289c0.275,-0.014 0.59,-0.136 0.951,-0.37c0.36,-0.239 0.77,-0.585 1.234,-1.049l5.901,-5.942c0.459,-0.459 0.838,-0.905 1.139,-1.337c0.302,-0.428 0.527,-0.847 0.681,-1.262c0.148,-0.414 0.225,-0.824 0.234,-1.234c0.004,-0.414 -0.059,-0.824 -0.194,-1.248l-3.117,-9.954l-6.063,6.062l1.212,3.793l1.5,-1.5l1.563,4.91l-2.149,2.153l-4.572,-14.247l2.18,-2.171l0.879,2.756l4.572,-4.567l-1.262,-4.032c-0.135,-0.432 -0.301,-0.756 -0.509,-0.973c-0.202,-0.211 -0.446,-0.315 -0.725,-0.306c-0.284,0.014 -0.608,0.135 -0.982,0.374c-0.369,0.234 -0.788,0.585 -1.256,1.054" style="fill:#fff;fill-rule:nonzero;"/><path d="M1026.11,1489.29l-4.563,4.541l2.581,8.477l-2.149,2.144l-2.599,-8.464l-4.563,4.545l6.788,21.77l4.469,-4.495l-2.838,-9.261l2.135,-2.14l2.824,9.27l4.464,-4.491l-6.549,-21.896Z" style="fill:#fff;fill-rule:nonzero;"/><path d="M1037.07,1478.38l-10.284,10.234l1.189,3.987l2.883,-2.874l5.297,17.946l4.419,-4.446l-5.22,-17.986l2.864,-2.856l-1.148,-4.005Z" style="fill:#fff;fill-rule:nonzero;"/><path d="M744.522,1809.3l-7.117,7.18l10.184,25.045l0.045,0.054l6.05,-6.176l-1.748,-3.504l3.752,-3.82l2.725,2.495l6.059,-6.18l-0.045,-0.054l-19.905,-15.04M749.972,1827.71l-4.099,-8.253l6.531,5.775l-2.432,2.478Z" style="fill:#fff;fill-rule:nonzero;"/><path d="M766.866,1786.76l-6.256,6.311l4.725,6.631c0.167,0.234 0.396,0.495 0.653,0.747c0.252,0.257 0.527,0.509 0.779,0.73c0.253,0.221 0.482,0.41 0.653,0.55c0.167,0.135 0.271,0.216 0.271,0.216l-11.306,-4.613l-5.919,5.973l14.833,20.243l6.099,-6.221l-4.608,-6.396c-0.167,-0.23 -0.397,-0.486 -0.644,-0.739c-0.248,-0.252 -0.518,-0.5 -0.771,-0.72c-0.247,-0.221 -0.477,-0.415 -0.644,-0.55c-0.166,-0.135 -0.27,-0.216 -0.27,-0.216l11.036,4.437l5.739,-5.856l-14.37,-20.527" style="fill:#fff;fill-rule:nonzero;"/><path d="M778.718,1774.8l-10.329,10.419l14.329,20.554l10.031,-10.244c0.838,-0.855 1.527,-1.662 2.068,-2.423c0.54,-0.766 0.937,-1.482 1.175,-2.167c0.244,-0.68 0.338,-1.324 0.28,-1.932c-0.059,-0.608 -0.27,-1.185 -0.635,-1.73l-9.581,-14.355c-0.374,-0.563 -0.802,-0.942 -1.293,-1.144c-0.487,-0.199 -1.036,-0.221 -1.644,-0.063c-0.608,0.157 -1.279,0.495 -2.009,1.009c-0.734,0.513 -1.532,1.207 -2.392,2.076M786.412,1796.11l-9.302,-13.581l1.788,-1.811c0.189,-0.189 0.365,-0.351 0.532,-0.477c0.162,-0.126 0.311,-0.212 0.446,-0.261c0.135,-0.045 0.261,-0.054 0.374,-0.014c0.112,0.036 0.211,0.122 0.301,0.252l8.32,12.252c0.086,0.127 0.131,0.262 0.14,0.397c0.009,0.139 -0.018,0.284 -0.081,0.437c-0.064,0.148 -0.158,0.311 -0.289,0.482c-0.126,0.166 -0.288,0.347 -0.477,0.536l-1.752,1.788" style="fill:#fff;fill-rule:nonzero;"/><path d="M798.17,1755.18l-6.148,6.203l13.662,20.95l11.414,-11.653l-2.414,-3.834l-5.469,5.572l-11.045,-17.238Z" style="fill:#fff;fill-rule:nonzero;"/><path d="M810.982,1742.25l-6.072,6.126l13.302,21.166l5.905,-6.027l-13.135,-21.265Z" style="fill:#fff;fill-rule:nonzero;"/><path d="M823.954,1729.17l-7.946,8.013c-0.608,0.618 -1.103,1.194 -1.486,1.739c-0.383,0.545 -0.658,1.063 -0.82,1.559c-0.162,0.491 -0.221,0.964 -0.167,1.419c0.054,0.45 0.212,0.887 0.473,1.315l10.108,16.441c0.253,0.41 0.536,0.698 0.852,0.865c0.32,0.162 0.671,0.203 1.067,0.113c0.401,-0.091 0.838,-0.307 1.334,-0.658c0.491,-0.347 1.031,-0.829 1.635,-1.442l7.725,-7.887c0.603,-0.617 1.094,-1.189 1.473,-1.73c0.383,-0.54 0.653,-1.045 0.815,-1.527c0.162,-0.481 0.221,-0.936 0.176,-1.378c-0.041,-0.441 -0.19,-0.865 -0.433,-1.284l-5.797,-9.842l-7.991,8.099l2.261,3.752l2.005,-2.031l2.896,4.833l-2.833,2.883l-8.495,-14.063l2.882,-2.914l1.64,2.734l6,-6.072l-2.36,-4.004c-0.253,-0.433 -0.536,-0.739 -0.861,-0.915c-0.324,-0.176 -0.689,-0.225 -1.094,-0.14c-0.41,0.086 -0.865,0.302 -1.37,0.654c-0.509,0.355 -1.067,0.842 -1.689,1.468" style="fill:#fff;fill-rule:nonzero;"/><path d="M843.801,1709.15l-6.005,6.058l4.82,8.437l-2.833,2.869l-4.852,-8.419l-5.995,6.05l12.64,21.558l5.828,-5.95l-5.279,-9.171l2.82,-2.861l5.247,9.185l5.843,-5.959l-12.234,-21.797Z" style="fill:#fff;fill-rule:nonzero;"/><path d="M858.205,1694.62l-13.513,13.631l2.229,3.982l3.78,-3.825l9.896,17.878l5.756,-5.869l-9.765,-17.959l3.779,-3.82l-2.162,-4.018Z" style="fill:#fff;fill-rule:nonzero;"/><path d="M871.398,1681.31l-5.847,5.896l11.648,22.139l5.689,-5.806l-11.49,-22.229Z" style="fill:#fff;fill-rule:nonzero;"/><path d="M887.908,1664.65l-5.734,5.784l3.635,7.266c0.131,0.261 0.311,0.549 0.509,0.838c0.198,0.288 0.414,0.576 0.617,0.833c0.198,0.257 0.383,0.477 0.518,0.635c0.135,0.162 0.216,0.257 0.216,0.257l-9.382,-5.906l-5.446,5.496l11.45,22.247l5.617,-5.734l-3.554,-7.027c-0.126,-0.252 -0.306,-0.536 -0.509,-0.815c-0.198,-0.284 -0.419,-0.563 -0.622,-0.811c-0.202,-0.248 -0.387,-0.468 -0.522,-0.622c-0.14,-0.157 -0.225,-0.247 -0.225,-0.247l9.216,5.662l5.265,-5.374l-11.049,-22.482" style="fill:#fff;fill-rule:nonzero;"/><path d="M901.922,1650.52l-13.108,13.221l2.014,4.108l3.689,-3.734l8.937,18.436l5.563,-5.675l-8.811,-18.509l3.667,-3.707l-1.951,-4.14Z" style="fill:#fff;fill-rule:nonzero;"/><path d="M913.595,1638.74l-7.463,7.531c-0.581,0.586 -1.059,1.14 -1.428,1.667c-0.37,0.527 -0.635,1.031 -0.802,1.518c-0.167,0.486 -0.234,0.959 -0.207,1.419c0.027,0.464 0.153,0.919 0.365,1.374l8.229,17.531c0.207,0.441 0.442,0.757 0.716,0.95c0.28,0.189 0.59,0.257 0.951,0.198c0.356,-0.058 0.761,-0.247 1.216,-0.563c0.455,-0.315 0.964,-0.761 1.527,-1.337l7.275,-7.419c0.567,-0.581 1.031,-1.126 1.396,-1.649c0.365,-0.518 0.626,-1.013 0.797,-1.491c0.167,-0.477 0.244,-0.937 0.226,-1.387c-0.018,-0.455 -0.131,-0.897 -0.329,-1.343l-7.946,-17.693c-0.207,-0.459 -0.446,-0.793 -0.725,-0.995c-0.284,-0.208 -0.604,-0.284 -0.969,-0.23c-0.369,0.054 -0.784,0.239 -1.252,0.558c-0.473,0.32 -0.995,0.771 -1.577,1.361M917.262,1662.83l-6.91,-14.986l2.707,-2.739l6.865,15.013l-2.662,2.712" style="fill:#fff;fill-rule:nonzero;"/><path d="M933.731,1618.43l-9.297,9.379l10.094,23.026l9.059,-9.243c0.752,-0.77 1.383,-1.509 1.883,-2.225c0.504,-0.712 0.883,-1.401 1.135,-2.072c0.252,-0.667 0.383,-1.32 0.378,-1.95c0,-0.636 -0.126,-1.257 -0.383,-1.865l-6.711,-16.022c-0.266,-0.627 -0.586,-1.073 -0.969,-1.343c-0.387,-0.27 -0.833,-0.365 -1.342,-0.279c-0.514,0.081 -1.086,0.338 -1.725,0.775c-0.64,0.432 -1.347,1.04 -2.122,1.819M938.321,1641.37l-6.54,-15.194l1.608,-1.621c0.171,-0.176 0.329,-0.316 0.473,-0.424c0.139,-0.108 0.27,-0.176 0.387,-0.207c0.113,-0.032 0.216,-0.023 0.306,0.031c0.086,0.054 0.163,0.149 0.226,0.298l5.846,13.693c0.059,0.144 0.086,0.288 0.082,0.428c0,0.144 -0.036,0.288 -0.1,0.437c-0.063,0.149 -0.157,0.302 -0.274,0.459c-0.117,0.158 -0.266,0.32 -0.433,0.491l-1.581,1.609" style="fill:#fff;fill-rule:nonzero;"/><path d="M949.184,1602.84l-6.176,6.23l5.27,27.639l0.027,0.063l5.248,-5.355l-0.982,-3.928l3.266,-3.325l1.855,3.027l5.257,-5.36l-0.027,-0.067l-13.738,-18.924M951.485,1622.81l-2.301,-9.234l4.423,7.076l-2.122,2.158Z" style="fill:#fff;fill-rule:nonzero;"/><path d="M964.528,1587.36l-10.185,10.275l9.329,23.455l5.351,-5.46l-7.585,-19.432l2.347,-2.374l2.437,6.284l-1.807,1.829l1.739,4.464l5.865,6.166l5.36,-5.468l-0.081,-0.216l-6.905,-7.176l0.247,-0.302c0.329,-0.374 0.6,-0.738 0.816,-1.103c0.216,-0.365 0.374,-0.73 0.473,-1.095c0.099,-0.369 0.139,-0.739 0.117,-1.117c-0.023,-0.383 -0.113,-0.77 -0.266,-1.176l-3.04,-8c-0.181,-0.477 -0.397,-0.824 -0.654,-1.04c-0.256,-0.221 -0.558,-0.311 -0.9,-0.275c-0.347,0.036 -0.739,0.198 -1.176,0.491c-0.442,0.297 -0.937,0.716 -1.482,1.27" style="fill:#fff;fill-rule:nonzero;"/><path d="M982.414,1569.32l-5.626,5.676l1.572,12.266l-3.743,-10.077l-5.433,5.482l8.95,23.666l5.298,-5.409l-3.843,-10.343l6.356,7.78l5.64,-5.757l-0.068,-0.185l-8.117,-8.135l-0.914,-14.77l-0.072,-0.194Z" style="fill:#fff;fill-rule:nonzero;"/><path d="M997.536,1554.06l-5.301,5.352l2.716,7.774c0.094,0.275 0.234,0.59 0.392,0.906c0.153,0.315 0.324,0.63 0.482,0.91c0.157,0.279 0.306,0.527 0.41,0.702c0.108,0.176 0.175,0.28 0.175,0.28l-7.77,-6.951l-5.054,5.104l8.586,23.86l5.225,-5.329l-2.662,-7.536c-0.095,-0.27 -0.235,-0.577 -0.392,-0.883c-0.158,-0.311 -0.329,-0.617 -0.491,-0.892c-0.158,-0.275 -0.311,-0.513 -0.419,-0.684c-0.108,-0.176 -0.176,-0.275 -0.176,-0.275l7.644,6.693l4.879,-4.977l-8.244,-24.054" style="fill:#fff;fill-rule:nonzero;"/><path d="M1009.63,1541.87l-10.792,10.887l8.211,24.072l10.604,-10.824l-1.397,-4.257l-5.441,5.541l-2,-5.964l4.54,-4.608l-1.405,-4.27l-4.558,4.617l-1.762,-5.27l5.451,-5.509l-1.451,-4.415Z" style="fill:#fff;fill-rule:nonzero;"/><path d="M1020.51,1530.88l-6.694,6.752c-0.536,0.541 -0.972,1.055 -1.324,1.559c-0.351,0.5 -0.612,0.991 -0.788,1.473c-0.171,0.482 -0.261,0.959 -0.266,1.432c-0.004,0.478 0.077,0.955 0.234,1.442l1.951,5.968c0.076,0.23 0.157,0.424 0.248,0.581c0.09,0.153 0.193,0.28 0.31,0.37c0.117,0.09 0.253,0.153 0.406,0.193c0.157,0.036 0.338,0.05 0.54,0.045l8.37,-1.27l1.27,4l-2.257,2.297l-1.27,-3.959l-5.162,5.252l1.707,5.23c0.153,0.468 0.342,0.815 0.572,1.036c0.23,0.22 0.5,0.32 0.815,0.293c0.316,-0.028 0.676,-0.181 1.09,-0.46c0.41,-0.275 0.874,-0.68 1.397,-1.212l6.527,-6.662c0.518,-0.531 0.95,-1.036 1.292,-1.531c0.347,-0.496 0.604,-0.978 0.784,-1.451c0.176,-0.473 0.27,-0.941 0.284,-1.405c0.009,-0.468 -0.059,-0.937 -0.203,-1.405l-1.842,-5.91c-0.072,-0.23 -0.153,-0.419 -0.243,-0.577c-0.095,-0.153 -0.199,-0.275 -0.32,-0.36c-0.126,-0.086 -0.266,-0.144 -0.424,-0.171c-0.162,-0.027 -0.346,-0.027 -0.554,-0.005l-8.328,1.194l-1.298,-4.045l2.293,-2.32l1.248,3.932l5.239,-5.306l-1.654,-5.31c-0.153,-0.487 -0.337,-0.847 -0.572,-1.082c-0.229,-0.234 -0.5,-0.337 -0.819,-0.315c-0.325,0.027 -0.694,0.18 -1.118,0.464c-0.423,0.284 -0.9,0.698 -1.441,1.243" style="fill:#fff;fill-rule:nonzero;"/><path d="M1034.5,1516.77l-6.626,6.685c-0.527,0.531 -0.964,1.045 -1.31,1.545c-0.352,0.495 -0.609,0.986 -0.784,1.464c-0.176,0.482 -0.266,0.959 -0.275,1.437c-0.009,0.477 0.068,0.959 0.216,1.445l1.865,6.014c0.072,0.234 0.153,0.428 0.239,0.585c0.09,0.158 0.189,0.28 0.306,0.374c0.117,0.095 0.248,0.153 0.406,0.194c0.153,0.036 0.333,0.05 0.54,0.041l8.221,-1.158l1.216,4.027l-2.234,2.279l-1.212,-3.991l-5.135,5.216l1.635,5.27c0.149,0.473 0.329,0.825 0.554,1.05c0.221,0.225 0.487,0.324 0.797,0.302c0.311,-0.023 0.667,-0.171 1.072,-0.442c0.41,-0.274 0.865,-0.675 1.383,-1.198l6.464,-6.599c0.514,-0.522 0.937,-1.027 1.279,-1.518c0.343,-0.491 0.604,-0.973 0.78,-1.446c0.18,-0.473 0.274,-0.937 0.292,-1.405c0.014,-0.469 -0.049,-0.937 -0.189,-1.414l-1.757,-5.955c-0.072,-0.23 -0.148,-0.424 -0.238,-0.577c-0.09,-0.158 -0.189,-0.279 -0.311,-0.369c-0.117,-0.086 -0.257,-0.144 -0.414,-0.176c-0.158,-0.031 -0.338,-0.031 -0.545,-0.013l-8.163,1.067l-1.243,-4.076l2.275,-2.293l1.194,3.955l5.162,-5.23l-1.577,-5.347c-0.148,-0.495 -0.329,-0.86 -0.554,-1.094c-0.221,-0.239 -0.491,-0.347 -0.806,-0.325c-0.315,0.018 -0.676,0.172 -1.095,0.451c-0.419,0.279 -0.892,0.685 -1.428,1.225" style="fill:#fff;fill-rule:nonzero;"/><path d="M785.224,1812.26l-4.941,5.058l3.698,7.847c0.027,0.063 0.117,0.221 0.234,0.419c0.122,0.198 0.27,0.437 0.415,0.671c0.148,0.23 0.288,0.455 0.396,0.622c0.104,0.166 0.176,0.274 0.176,0.274c0,0 -0.081,-0.099 -0.199,-0.252c-0.121,-0.153 -0.283,-0.356 -0.45,-0.567c-0.167,-0.212 -0.338,-0.428 -0.477,-0.604c-0.145,-0.176 -0.253,-0.306 -0.298,-0.356l-5.905,-5.59l-3.779,3.87l3.734,7.837c0.027,0.063 0.113,0.221 0.234,0.415c0.122,0.198 0.27,0.432 0.415,0.662c0.148,0.23 0.292,0.45 0.396,0.617c0.108,0.162 0.176,0.27 0.176,0.27c0,0 -0.077,-0.099 -0.199,-0.248c-0.117,-0.153 -0.279,-0.351 -0.45,-0.558c-0.167,-0.207 -0.338,-0.424 -0.482,-0.595c-0.14,-0.171 -0.252,-0.306 -0.293,-0.351l-5.95,-5.572l-4.987,5.103l14.18,12.162l4.735,-4.887l-2.329,-6.315c-0.023,-0.045 -0.081,-0.158 -0.162,-0.302c-0.081,-0.149 -0.185,-0.324 -0.28,-0.5c-0.099,-0.171 -0.193,-0.342 -0.265,-0.464c-0.068,-0.126 -0.118,-0.207 -0.118,-0.207c0,0 0.059,0.068 0.154,0.171c0.09,0.104 0.211,0.243 0.337,0.388c0.127,0.144 0.257,0.288 0.37,0.405c0.108,0.117 0.194,0.207 0.234,0.23l4.842,3.72l4.707,-4.864l-7.869,-18.509" style="fill:#fff;fill-rule:nonzero;"/><path d="M797.798,1799.39l-4.811,4.923l4.131,6.041l-2.28,2.337l-4.148,-6.026l-4.788,4.9l10.801,15.478l4.685,-4.834l-4.545,-6.603l2.27,-2.333l4.523,6.612l4.702,-4.856l-10.54,-15.639Z" style="fill:#fff;fill-rule:nonzero;"/><path d="M807.927,1789.02l-6.23,6.378c-0.487,0.496 -0.878,0.96 -1.18,1.392c-0.302,0.428 -0.509,0.829 -0.631,1.207c-0.121,0.379 -0.158,0.73 -0.108,1.068c0.045,0.338 0.176,0.658 0.387,0.968l8.113,12.077c0.203,0.302 0.428,0.513 0.68,0.626c0.252,0.112 0.532,0.135 0.847,0.054c0.315,-0.081 0.662,-0.261 1.054,-0.545c0.387,-0.279 0.82,-0.667 1.297,-1.158l6.095,-6.292c0.473,-0.491 0.856,-0.946 1.153,-1.374c0.297,-0.428 0.509,-0.825 0.635,-1.198c0.131,-0.374 0.171,-0.73 0.135,-1.064c-0.04,-0.333 -0.158,-0.653 -0.356,-0.954l-7.919,-12.198c-0.202,-0.311 -0.432,-0.532 -0.689,-0.649c-0.261,-0.122 -0.549,-0.14 -0.874,-0.059c-0.324,0.081 -0.684,0.262 -1.085,0.55c-0.401,0.284 -0.838,0.676 -1.324,1.171M812.336,1806.42l-6.833,-10.31l2.27,-2.329l6.802,10.333l-2.239,2.306" style="fill:#fff;fill-rule:nonzero;"/><path d="M827.296,1769.19l-10.702,10.96l1.842,2.887l2.995,-3.076l8.243,13.035l4.577,-4.729l-8.158,-13.081l3.005,-3.081l-1.802,-2.915Z" style="fill:#fff;fill-rule:nonzero;"/><path d="M839.581,1756.62l-4.675,4.784l8.094,13.396l-2.171,2.243l-8.13,-13.373l-4.653,4.761l8.774,14.234c0.189,0.31 0.406,0.527 0.644,0.648c0.244,0.122 0.514,0.149 0.82,0.077c0.306,-0.072 0.644,-0.243 1.023,-0.518c0.383,-0.27 0.801,-0.649 1.27,-1.131l5.977,-6.175c0.464,-0.478 0.843,-0.928 1.135,-1.347c0.293,-0.424 0.505,-0.82 0.636,-1.194c0.126,-0.374 0.175,-0.725 0.144,-1.063c-0.032,-0.338 -0.144,-0.662 -0.329,-0.973l-8.559,-14.369" style="fill:#fff;fill-rule:nonzero;"/><path d="M849.252,1746.72l-8.558,8.761l9.617,16.207l4.513,-4.662l-7.86,-13.428l1.991,-2.04l2.518,4.329l-1.549,1.59l1.806,3.085l5.626,3.852l4.531,-4.68l-0.09,-0.163l-6.603,-4.468l0.198,-0.248c0.275,-0.32 0.504,-0.626 0.676,-0.919c0.175,-0.297 0.297,-0.585 0.364,-0.865c0.068,-0.283 0.082,-0.558 0.037,-0.833c-0.041,-0.275 -0.14,-0.549 -0.298,-0.829l-3.166,-5.513c-0.19,-0.329 -0.401,-0.554 -0.645,-0.685c-0.243,-0.13 -0.513,-0.166 -0.819,-0.099c-0.311,0.068 -0.649,0.234 -1.032,0.5c-0.378,0.27 -0.797,0.635 -1.257,1.108" style="fill:#fff;fill-rule:nonzero;"/><path d="M865.065,1730.53l-4.527,4.636l2.973,5.324c0.108,0.189 0.256,0.401 0.414,0.608c0.162,0.212 0.338,0.419 0.5,0.603c0.162,0.181 0.311,0.343 0.415,0.455c0.108,0.118 0.175,0.185 0.175,0.185l-7.536,-4.049l-4.31,4.418l9.355,16.365l4.455,-4.599l-2.923,-5.185c-0.108,-0.189 -0.252,-0.396 -0.415,-0.603c-0.157,-0.207 -0.333,-0.41 -0.495,-0.59c-0.162,-0.185 -0.311,-0.343 -0.415,-0.455c-0.108,-0.113 -0.175,-0.18 -0.175,-0.18l7.432,3.9l4.18,-4.315l-9.103,-16.518" style="fill:#fff;fill-rule:nonzero;"/><path d="M879.56,1715.69l-8.4,8.603l8.977,16.59l8.306,-8.581c0.455,-0.464 0.82,-0.901 1.108,-1.315c0.289,-0.415 0.5,-0.807 0.631,-1.181c0.131,-0.373 0.18,-0.725 0.158,-1.067c-0.018,-0.342 -0.118,-0.676 -0.284,-0.996l-2.207,-4.225c-0.154,-0.288 -0.311,-0.509 -0.491,-0.671c-0.181,-0.162 -0.374,-0.261 -0.595,-0.302c-0.221,-0.04 -0.468,-0.027 -0.748,0.045c-0.279,0.068 -0.59,0.189 -0.946,0.365l-0.986,0.46l0.554,-1.104c0.216,-0.432 0.392,-0.811 0.522,-1.149c0.127,-0.337 0.212,-0.644 0.253,-0.928c0.036,-0.288 0.027,-0.554 -0.027,-0.824c-0.059,-0.275 -0.162,-0.545 -0.32,-0.842l-1.883,-3.604c-0.176,-0.333 -0.369,-0.572 -0.599,-0.711c-0.23,-0.145 -0.487,-0.19 -0.779,-0.131c-0.298,0.054 -0.626,0.212 -0.996,0.468c-0.374,0.262 -0.788,0.627 -1.248,1.1M879.2,1726.28l-2,-3.748l2.032,-2.085l1.725,3.256l-0.599,1.383l-1.158,1.194M883.074,1733.54l-2.347,-4.406l1.216,-1.252l1.09,-0.45l2.108,3.977l-2.067,2.131" style="fill:#fff;fill-rule:nonzero;"/><path d="M887.893,1707.16l-4.478,4.586l8.721,16.743l4.387,-4.527l-8.63,-16.802Z" style="fill:#fff;fill-rule:nonzero;"/><path d="M898.774,1696.03l-10.184,10.428l1.563,3.054l2.873,-2.946l7,13.783l4.361,-4.504l-6.924,-13.829l2.838,-2.91l-1.527,-3.076Z" style="fill:#fff;fill-rule:nonzero;"/><path d="M909.51,1685.04l-10.108,10.347l1.527,3.081l2.829,-2.901l6.82,13.891l4.328,-4.472l-6.747,-13.937l2.837,-2.906l-1.486,-3.103Z" style="fill:#fff;fill-rule:nonzero;"/><path d="M919.135,1675.18l-8.919,9.13l8.171,17.072l8.797,-9.081l-1.419,-3.049l-4.509,4.648l-1.991,-4.225l3.757,-3.865l-1.414,-3.036l-3.771,3.879l-1.761,-3.73l4.509,-4.622l-1.45,-3.121Z" style="fill:#fff;fill-rule:nonzero;"/><path d="M928.161,1665.94l-8.099,8.289l7.973,17.193l4.271,-4.414l-6.505,-14.234l1.883,-1.933l2.081,4.586l-1.446,1.486l1.496,3.27l4.887,4.352l4.293,-4.433l-0.072,-0.171l-5.766,-5.027l0.189,-0.238c0.261,-0.307 0.482,-0.6 0.649,-0.888c0.171,-0.288 0.292,-0.572 0.369,-0.856c0.072,-0.279 0.095,-0.563 0.068,-0.847c-0.027,-0.279 -0.104,-0.567 -0.235,-0.86l-2.617,-5.842c-0.153,-0.342 -0.333,-0.595 -0.545,-0.748c-0.211,-0.148 -0.455,-0.207 -0.734,-0.162c-0.279,0.045 -0.595,0.189 -0.95,0.432c-0.352,0.248 -0.748,0.595 -1.19,1.045" style="fill:#fff;fill-rule:nonzero;"/><path d="M940.933,1652.87l-4.31,4.415l7.635,17.387l4.225,-4.36l-7.55,-17.442Z" style="fill:#fff;fill-rule:nonzero;"/><path d="M953.168,1640.34l-4.256,4.356l2.391,5.667c0.086,0.202 0.208,0.428 0.343,0.653c0.135,0.225 0.284,0.45 0.419,0.648c0.139,0.199 0.265,0.37 0.356,0.491c0.094,0.126 0.148,0.199 0.148,0.199l-6.527,-4.721l-4.031,4.13l7.527,17.451l4.171,-4.307l-2.352,-5.527c-0.085,-0.198 -0.202,-0.423 -0.337,-0.644c-0.131,-0.225 -0.28,-0.45 -0.415,-0.648c-0.13,-0.199 -0.257,-0.37 -0.347,-0.496c-0.09,-0.121 -0.148,-0.198 -0.148,-0.198l6.432,4.59l3.932,-4.063l-7.306,-17.581" style="fill:#fff;fill-rule:nonzero;"/><path d="M963.578,1629.69l-9.747,9.977l1.324,3.194l2.748,-2.811l5.919,14.419l4.171,-4.302l-5.856,-14.464l2.73,-2.797l-1.289,-3.216Z" style="fill:#fff;fill-rule:nonzero;"/><path d="M972.264,1620.8l-5.55,5.684c-0.437,0.442 -0.792,0.865 -1.072,1.266c-0.279,0.406 -0.486,0.793 -0.617,1.167c-0.135,0.374 -0.193,0.734 -0.189,1.094c0.009,0.356 0.081,0.708 0.225,1.059l5.464,13.662c0.135,0.342 0.302,0.59 0.496,0.743c0.193,0.153 0.423,0.212 0.684,0.171c0.262,-0.04 0.559,-0.175 0.901,-0.414c0.338,-0.239 0.716,-0.572 1.144,-1.014l5.442,-5.617c0.423,-0.437 0.77,-0.856 1.049,-1.252c0.275,-0.396 0.478,-0.779 0.613,-1.149c0.135,-0.369 0.198,-0.725 0.198,-1.076c0,-0.351 -0.072,-0.698 -0.203,-1.045l-5.306,-13.748c-0.14,-0.355 -0.302,-0.612 -0.5,-0.774c-0.198,-0.163 -0.428,-0.221 -0.698,-0.185c-0.266,0.036 -0.572,0.171 -0.914,0.41c-0.347,0.239 -0.735,0.576 -1.167,1.018M974.282,1639.43l-4.595,-11.653l2.023,-2.072l4.567,11.666l-1.995,2.059" style="fill:#fff;fill-rule:nonzero;"/><path d="M988.101,1604.59l-5.311,5.437c-0.424,0.432 -0.775,0.847 -1.05,1.247c-0.279,0.401 -0.482,0.784 -0.621,1.163c-0.135,0.373 -0.199,0.738 -0.199,1.099c0.005,0.36 0.073,0.716 0.208,1.072l1.662,4.387c0.063,0.171 0.13,0.306 0.207,0.419c0.077,0.113 0.162,0.198 0.261,0.261c0.095,0.063 0.207,0.099 0.338,0.117c0.126,0.018 0.275,0.018 0.446,0l6.766,-1.383l1.099,2.964l-1.802,1.856l-1.095,-2.946l-4.126,4.248l1.464,3.874c0.131,0.347 0.293,0.599 0.482,0.752c0.189,0.158 0.415,0.216 0.671,0.18c0.262,-0.036 0.555,-0.171 0.888,-0.401c0.333,-0.234 0.707,-0.563 1.121,-0.991l5.208,-5.378c0.414,-0.428 0.756,-0.838 1.031,-1.23c0.27,-0.396 0.478,-0.774 0.613,-1.144c0.135,-0.369 0.202,-0.73 0.207,-1.085c0.004,-0.356 -0.059,-0.703 -0.185,-1.05l-1.594,-4.369c-0.063,-0.171 -0.131,-0.311 -0.208,-0.419c-0.076,-0.113 -0.166,-0.194 -0.265,-0.252c-0.104,-0.059 -0.217,-0.09 -0.352,-0.104c-0.135,-0.009 -0.288,0 -0.464,0.032l-6.725,1.351l-1.117,-3l1.82,-1.869l1.076,2.905l4.176,-4.288l-1.428,-3.91c-0.13,-0.356 -0.288,-0.617 -0.482,-0.775c-0.189,-0.162 -0.414,-0.225 -0.675,-0.189c-0.262,0.036 -0.559,0.176 -0.897,0.41c-0.342,0.234 -0.721,0.572 -1.148,1.009" style="fill:#fff;fill-rule:nonzero;"/><path d="M1006.92,1585.33l-4.23,4.329l1.847,8.878c0.018,0.068 0.068,0.244 0.135,0.469c0.072,0.225 0.153,0.504 0.239,0.775c0.081,0.265 0.162,0.527 0.221,0.72c0.063,0.194 0.099,0.32 0.099,0.32c0,0 -0.045,-0.122 -0.117,-0.302c-0.072,-0.18 -0.167,-0.423 -0.271,-0.675c-0.099,-0.248 -0.202,-0.505 -0.292,-0.712c-0.086,-0.207 -0.158,-0.365 -0.185,-0.415l-3.734,-6.95l-3.234,3.311l1.869,8.878c0.009,0.068 0.059,0.248 0.126,0.473c0.063,0.23 0.149,0.505 0.23,0.77c0.081,0.271 0.162,0.527 0.225,0.717c0.059,0.193 0.099,0.315 0.099,0.315c0,0 -0.045,-0.117 -0.117,-0.297c-0.072,-0.181 -0.167,-0.424 -0.266,-0.672c-0.099,-0.252 -0.198,-0.509 -0.288,-0.716c-0.086,-0.202 -0.153,-0.36 -0.185,-0.414l-3.761,-6.937l-4.266,4.365l9.095,15.391l4.076,-4.207l-1.022,-7.018c-0.005,-0.054 -0.036,-0.184 -0.077,-0.355c-0.045,-0.167 -0.099,-0.374 -0.153,-0.573c-0.054,-0.198 -0.103,-0.387 -0.144,-0.531c-0.041,-0.14 -0.068,-0.234 -0.068,-0.234c0,0 0.036,0.085 0.095,0.211c0.054,0.127 0.126,0.293 0.207,0.469c0.077,0.171 0.158,0.347 0.225,0.491c0.068,0.144 0.122,0.252 0.149,0.284l3.158,4.81l4.058,-4.193l-3.743,-20.775" style="fill:#fff;fill-rule:nonzero;"/><path d="M1015.83,1576.2l-8.315,8.514l6.239,18.188l8.216,-8.481l-1.081,-3.244l-4.212,4.338l-1.518,-4.495l3.509,-3.608l-1.076,-3.23l-3.523,3.617l-1.338,-3.968l4.203,-4.311l-1.104,-3.32Z" style="fill:#fff;fill-rule:nonzero;"/><path d="M1024.98,1566.83l-8.284,8.478l6.068,18.288l8.18,-8.446l-1.05,-3.261l-4.198,4.328l-1.477,-4.522l3.5,-3.604l-1.045,-3.243l-3.514,3.608l-1.302,-3.986l4.194,-4.302l-1.072,-3.338Z" style="fill:#fff;fill-rule:nonzero;"/><path d="M1034.71,1556.87l-9.234,9.455l1.072,3.338l2.603,-2.671l4.789,15.067l3.959,-4.09l-4.725,-15.103l2.576,-2.64l-1.04,-3.356Z" style="fill:#fff;fill-rule:nonzero;"/><path d="M814.142,1815.12l-5.437,5.626l6.757,19.603l0.027,0.041l4.644,-4.847l-1.199,-2.739l2.892,-3.018l1.955,1.946l4.64,-4.842l-0.027,-0.041l-14.252,-11.729M817.619,1829.5l-2.775,-6.463l4.649,4.513l-1.874,1.95Z" style="fill:#fff;fill-rule:nonzero;"/><path d="M831.23,1797.44l-4.788,4.955l3.302,5.135c0.121,0.184 0.284,0.387 0.464,0.59c0.18,0.198 0.374,0.396 0.549,0.567c0.18,0.176 0.343,0.325 0.46,0.433c0.121,0.108 0.193,0.171 0.193,0.171l-8.189,-3.563l-4.536,4.689l10.397,15.788l4.684,-4.892l-3.243,-4.995c-0.117,-0.18 -0.279,-0.379 -0.459,-0.577c-0.176,-0.198 -0.37,-0.392 -0.55,-0.563c-0.176,-0.171 -0.342,-0.32 -0.459,-0.428c-0.118,-0.103 -0.194,-0.166 -0.194,-0.166l8.054,3.441l4.428,-4.622l-10.113,-15.963" style="fill:#fff;fill-rule:nonzero;"/><path d="M840.333,1788.02l-7.941,8.216l10.09,15.977l7.765,-8.103c0.645,-0.671 1.176,-1.307 1.6,-1.91c0.418,-0.599 0.729,-1.167 0.923,-1.703c0.198,-0.536 0.284,-1.04 0.257,-1.513c-0.027,-0.478 -0.171,-0.924 -0.428,-1.343l-6.775,-11.13c-0.266,-0.437 -0.576,-0.73 -0.937,-0.883c-0.356,-0.153 -0.766,-0.162 -1.221,-0.036c-0.454,0.126 -0.959,0.392 -1.513,0.797c-0.554,0.406 -1.162,0.951 -1.82,1.631M845.482,1804.61l-6.559,-10.54l1.365,-1.419c0.149,-0.153 0.288,-0.284 0.415,-0.383c0.121,-0.099 0.238,-0.171 0.337,-0.207c0.104,-0.041 0.199,-0.05 0.28,-0.018c0.081,0.027 0.153,0.09 0.216,0.189l5.874,9.513c0.063,0.099 0.094,0.203 0.099,0.311c0,0.108 -0.023,0.221 -0.077,0.338c-0.049,0.122 -0.126,0.248 -0.23,0.383c-0.099,0.131 -0.225,0.275 -0.373,0.428l-1.347,1.405" style="fill:#fff;fill-rule:nonzero;"/><path d="M859.296,1768.4l-5.991,6.198c-0.477,0.491 -0.865,0.955 -1.167,1.392c-0.306,0.433 -0.522,0.842 -0.657,1.23c-0.135,0.387 -0.185,0.752 -0.149,1.103c0.032,0.352 0.144,0.685 0.338,1.014l2.383,3.991c0.094,0.153 0.189,0.275 0.288,0.374c0.099,0.094 0.212,0.162 0.333,0.207c0.127,0.04 0.262,0.058 0.419,0.054c0.162,-0.009 0.343,-0.036 0.55,-0.09l8.085,-2.496l1.568,2.676l-2.018,2.099l-1.563,-2.658l-4.662,4.852l2.099,3.513c0.189,0.316 0.401,0.532 0.648,0.653c0.244,0.117 0.518,0.135 0.829,0.054c0.307,-0.081 0.653,-0.265 1.036,-0.549c0.383,-0.284 0.807,-0.667 1.275,-1.153l5.856,-6.117c0.468,-0.487 0.851,-0.942 1.148,-1.37c0.302,-0.432 0.523,-0.837 0.658,-1.22c0.14,-0.388 0.194,-0.748 0.171,-1.095c-0.022,-0.351 -0.126,-0.68 -0.311,-1l-2.283,-3.964c-0.09,-0.157 -0.185,-0.284 -0.289,-0.378c-0.108,-0.095 -0.22,-0.162 -0.346,-0.198c-0.131,-0.041 -0.275,-0.05 -0.437,-0.041c-0.163,0.014 -0.347,0.054 -0.554,0.113l-8.045,2.455l-1.604,-2.726l2.05,-2.117l1.54,2.64l4.721,-4.892l-2.054,-3.563c-0.189,-0.324 -0.401,-0.549 -0.649,-0.676c-0.243,-0.121 -0.522,-0.144 -0.838,-0.063c-0.311,0.086 -0.666,0.271 -1.058,0.559c-0.397,0.293 -0.834,0.685 -1.32,1.189" style="fill:#fff;fill-rule:nonzero;"/><path d="M880.555,1746.4l-4.775,4.941l2.968,8.324c0.018,0.063 0.095,0.23 0.194,0.442c0.099,0.207 0.221,0.468 0.342,0.716c0.122,0.248 0.244,0.491 0.334,0.671c0.085,0.176 0.144,0.293 0.144,0.293c0,0 -0.063,-0.108 -0.167,-0.27c-0.103,-0.167 -0.239,-0.392 -0.383,-0.618c-0.144,-0.229 -0.288,-0.464 -0.41,-0.648c-0.126,-0.189 -0.22,-0.329 -0.261,-0.37l-5.099,-6.121l-3.626,3.748l2.982,8.342c0.018,0.063 0.09,0.225 0.189,0.432c0.104,0.212 0.225,0.464 0.351,0.712c0.122,0.248 0.244,0.486 0.329,0.662c0.09,0.176 0.149,0.293 0.149,0.293c0,0 -0.063,-0.108 -0.167,-0.27c-0.103,-0.167 -0.238,-0.383 -0.383,-0.613c-0.139,-0.225 -0.288,-0.459 -0.409,-0.644c-0.118,-0.189 -0.212,-0.333 -0.248,-0.383l-5.14,-6.099l-4.82,4.986l12.293,13.401l4.581,-4.779l-1.802,-6.644c-0.013,-0.054 -0.063,-0.18 -0.126,-0.338c-0.063,-0.162 -0.144,-0.351 -0.225,-0.536c-0.077,-0.189 -0.158,-0.365 -0.212,-0.5c-0.058,-0.131 -0.099,-0.216 -0.099,-0.216c0,0 0.05,0.072 0.126,0.184c0.077,0.113 0.18,0.266 0.289,0.424c0.108,0.153 0.22,0.315 0.31,0.441c0.095,0.131 0.172,0.226 0.203,0.257l4.221,4.126l4.558,-4.757l-6.211,-19.589" style="fill:#fff;fill-rule:nonzero;"/><path d="M890.612,1735.99l-9.392,9.716l9.031,16.64l9.252,-9.658l-1.558,-2.959l-4.739,4.941l-2.207,-4.126l3.95,-4.104l-1.563,-2.964l-3.964,4.117l-1.945,-3.639l4.743,-4.914l-1.608,-3.05Z" style="fill:#fff;fill-rule:nonzero;"/><path d="M900.928,1725.32l-9.347,9.671l8.811,16.774l9.207,-9.612l-1.518,-2.982l-4.725,4.923l-2.154,-4.157l3.942,-4.095l-1.527,-2.986l-3.955,4.108l-1.896,-3.667l4.729,-4.901l-1.567,-3.076Z" style="fill:#fff;fill-rule:nonzero;"/><path d="M911.902,1713.96l-10.418,10.784l1.563,3.072l2.918,-3.023l6.982,13.861l4.464,-4.658l-6.905,-13.905l2.919,-3.032l-1.523,-3.099Z" style="fill:#fff;fill-rule:nonzero;"/><path d="M922.085,1703.43l-4.513,4.671l8.261,17.112l4.419,-4.617l-8.167,-17.166Z" style="fill:#fff;fill-rule:nonzero;"/><path d="M934.841,1690.23l-4.432,4.59l2.581,5.576c0.09,0.203 0.225,0.424 0.369,0.649c0.144,0.22 0.302,0.441 0.446,0.635c0.144,0.198 0.279,0.365 0.378,0.486c0.095,0.122 0.158,0.194 0.158,0.194l-6.932,-4.441l-4.212,4.36l8.144,17.184l4.36,-4.554l-2.536,-5.436c-0.094,-0.199 -0.225,-0.415 -0.364,-0.636c-0.145,-0.22 -0.302,-0.436 -0.451,-0.63c-0.144,-0.194 -0.279,-0.361 -0.374,-0.482c-0.099,-0.122 -0.162,-0.194 -0.162,-0.194l6.824,4.315l4.104,-4.288l-7.901,-17.328" style="fill:#fff;fill-rule:nonzero;"/><path d="M945.714,1678.98l-10.153,10.505l1.437,3.153l2.847,-2.951l6.405,14.212l4.356,-4.545l-6.329,-14.261l2.834,-2.937l-1.397,-3.176Z" style="fill:#fff;fill-rule:nonzero;"/><path d="M954.787,1669.59l-5.797,6c-0.455,0.473 -0.829,0.915 -1.122,1.333c-0.292,0.419 -0.504,0.816 -0.639,1.199c-0.135,0.378 -0.194,0.747 -0.18,1.103c0.009,0.361 0.094,0.712 0.247,1.059l5.915,13.486c0.148,0.338 0.324,0.586 0.531,0.73c0.207,0.148 0.442,0.193 0.716,0.139c0.275,-0.049 0.586,-0.202 0.942,-0.464c0.356,-0.256 0.752,-0.612 1.198,-1.081l5.68,-5.927c0.441,-0.46 0.802,-0.892 1.09,-1.302c0.284,-0.415 0.496,-0.807 0.635,-1.185c0.14,-0.374 0.203,-0.739 0.198,-1.09c-0.004,-0.356 -0.081,-0.703 -0.225,-1.045l-5.743,-13.59c-0.149,-0.351 -0.324,-0.603 -0.536,-0.757c-0.212,-0.148 -0.455,-0.202 -0.734,-0.148c-0.284,0.049 -0.604,0.202 -0.964,0.459c-0.361,0.257 -0.761,0.617 -1.212,1.081M957.125,1688.25l-4.973,-11.514l2.108,-2.189l4.946,11.536l-2.081,2.167" style="fill:#fff;fill-rule:nonzero;"/><path d="M971.354,1652.45l-8.122,8.405l7.32,17.68l8.032,-8.387c0.437,-0.459 0.801,-0.892 1.09,-1.302c0.283,-0.414 0.495,-0.806 0.639,-1.18c0.14,-0.378 0.207,-0.743 0.203,-1.099c0,-0.356 -0.072,-0.703 -0.207,-1.049l-1.797,-4.509c-0.122,-0.307 -0.257,-0.541 -0.41,-0.717c-0.154,-0.175 -0.329,-0.288 -0.527,-0.346c-0.199,-0.054 -0.424,-0.054 -0.685,0.004c-0.257,0.054 -0.55,0.162 -0.883,0.32l-0.928,0.419l0.568,-1.108c0.22,-0.437 0.401,-0.816 0.536,-1.158c0.135,-0.342 0.225,-0.649 0.274,-0.937c0.046,-0.293 0.05,-0.567 0.014,-0.851c-0.041,-0.279 -0.122,-0.568 -0.248,-0.883l-1.531,-3.838c-0.144,-0.356 -0.311,-0.617 -0.514,-0.775c-0.198,-0.162 -0.432,-0.22 -0.702,-0.18c-0.271,0.041 -0.582,0.185 -0.933,0.433c-0.351,0.247 -0.743,0.599 -1.189,1.058M970.453,1663.39l-1.631,-4l1.969,-2.04l1.405,3.468l-0.617,1.401l-1.126,1.171M973.611,1671.13l-1.915,-4.699l1.198,-1.247l0.996,-0.388l1.716,4.248l-1.995,2.086" style="fill:#fff;fill-rule:nonzero;"/><path d="M979.389,1644.13l-4.334,4.482l7.081,17.824l4.243,-4.432l-6.99,-17.874Z" style="fill:#fff;fill-rule:nonzero;"/><path d="M989.92,1633.24l-9.851,10.194l1.265,3.252l2.78,-2.878l5.662,14.657l4.225,-4.41l-5.595,-14.698l2.748,-2.842l-1.234,-3.275Z" style="fill:#fff;fill-rule:nonzero;"/><path d="M1000.28,1622.52l-9.761,10.099l1.23,3.275l2.743,-2.838l5.491,14.756l4.189,-4.374l-5.423,-14.797l2.725,-2.824l-1.194,-3.297Z" style="fill:#fff;fill-rule:nonzero;"/><path d="M1009.59,1612.88l-8.644,8.942l6.563,18.13l8.527,-8.901l-1.131,-3.22l-4.374,4.558l-1.599,-4.486l3.644,-3.793l-1.13,-3.221l-3.658,3.797l-1.41,-3.954l4.374,-4.536l-1.162,-3.316Z" style="fill:#fff;fill-rule:nonzero;"/><path d="M1018.29,1603.88l-7.811,8.081l6.37,18.238l4.139,-4.319l-5.193,-15.104l1.81,-1.874l1.662,4.87l-1.405,1.459l1.189,3.46l4.252,4.774l4.14,-4.32l-0.059,-0.171l-4.999,-5.549l0.193,-0.243c0.252,-0.298 0.464,-0.586 0.635,-0.874c0.172,-0.284 0.298,-0.572 0.379,-0.861c0.085,-0.283 0.121,-0.576 0.112,-0.873c-0.009,-0.298 -0.067,-0.6 -0.171,-0.915l-2.081,-6.184c-0.121,-0.37 -0.275,-0.636 -0.464,-0.807c-0.184,-0.166 -0.405,-0.234 -0.666,-0.202c-0.257,0.036 -0.555,0.166 -0.892,0.405c-0.338,0.234 -0.717,0.572 -1.14,1.009" style="fill:#fff;fill-rule:nonzero;"/><path d="M966.811,1752.63l-8.531,9.121l7.103,15.243l8.424,-9.072l-1.226,-2.707l-4.31,4.635l-1.735,-3.774l3.604,-3.865l-1.234,-2.721l-3.613,3.874l-1.527,-3.32l4.311,-4.612l-1.266,-2.802M954.802,1765.47l-5.54,5.924c-0.432,0.464 -0.788,0.896 -1.068,1.302c-0.279,0.405 -0.482,0.779 -0.612,1.139c-0.131,0.356 -0.189,0.694 -0.176,1.014c0.009,0.324 0.09,0.63 0.239,0.932l5.662,11.667c0.144,0.292 0.311,0.495 0.509,0.603c0.198,0.113 0.423,0.135 0.685,0.059c0.265,-0.072 0.563,-0.244 0.901,-0.505c0.337,-0.266 0.72,-0.626 1.144,-1.085l5.432,-5.847c0.423,-0.46 0.77,-0.883 1.045,-1.279c0.275,-0.397 0.478,-0.771 0.613,-1.122c0.13,-0.351 0.193,-0.68 0.189,-0.995c-0.009,-0.316 -0.081,-0.622 -0.216,-0.915l-5.509,-11.77c-0.144,-0.302 -0.311,-0.513 -0.514,-0.635c-0.198,-0.117 -0.432,-0.144 -0.698,-0.072c-0.27,0.067 -0.577,0.234 -0.919,0.5c-0.347,0.261 -0.734,0.626 -1.167,1.085M957.041,1782.11l-4.761,-9.955l2.022,-2.166l4.739,9.973l-2,2.148M946.194,1774.67l-4.369,4.676l2.297,7.594c0.023,0.054 0.086,0.203 0.163,0.396c0.081,0.19 0.18,0.424 0.279,0.649c0.094,0.23 0.189,0.451 0.257,0.613c0.072,0.162 0.117,0.265 0.117,0.265c0,0 -0.054,-0.094 -0.135,-0.243c-0.086,-0.148 -0.194,-0.351 -0.311,-0.558c-0.113,-0.208 -0.234,-0.419 -0.334,-0.59c-0.094,-0.176 -0.171,-0.307 -0.202,-0.352l-4.257,-5.504l-3.315,3.545l2.306,7.608c0.018,0.058 0.077,0.211 0.158,0.401c0.076,0.189 0.18,0.419 0.279,0.644c0.095,0.221 0.194,0.437 0.266,0.594c0.072,0.163 0.117,0.266 0.117,0.266c0,0 -0.054,-0.094 -0.135,-0.243c-0.086,-0.149 -0.198,-0.347 -0.316,-0.55c-0.117,-0.202 -0.238,-0.41 -0.337,-0.576c-0.104,-0.167 -0.185,-0.297 -0.217,-0.338l-4.274,-5.504l-4.388,4.689l10.284,12.054l4.185,-4.505l-1.32,-6.09c-0.014,-0.045 -0.054,-0.153 -0.108,-0.297c-0.054,-0.14 -0.122,-0.316 -0.185,-0.482c-0.063,-0.167 -0.126,-0.329 -0.176,-0.451c-0.045,-0.121 -0.076,-0.202 -0.076,-0.202c0,0 0.04,0.067 0.103,0.171c0.063,0.103 0.149,0.243 0.239,0.383c0.09,0.144 0.18,0.288 0.261,0.405c0.077,0.117 0.136,0.203 0.167,0.23l3.55,3.689l4.18,-4.509l-4.753,-17.878M977.275,1759.81l-4.022,4.329l1.333,2.955l4.009,-4.316l-1.32,-2.968" style="fill:#fff;fill-rule:nonzero;"/></g></g></g><defs><radialGradient id="_Radial1" cx="0" cy="0" r="1" gradientUnits="userSpaceOnUse" gradientTransform="matrix(-425.21,-595.189,660.75,-472.047,865.993,1783.33)"><stop offset="0%" style="stop-color:#1b1464;stop-opacity:1"/><stop offset="100%" style="stop-color:#000;stop-opacity:1"/></radialGradient><linearGradient id="_Linear5" x1="0" y1="0" x2="1" y2="0" gradientUnits="userSpaceOnUse" gradientTransform="matrix(-0.528193,-0.963386,0.963386,-0.528193,945.172,1777.97)"><stop offset="0%" style="stop-color:#f00;stop-opacity:1"/><stop offset="100%" style="stop-color:#000;stop-opacity:1"/></linearGradient><linearGradient id="_Linear8" x1="0" y1="0" x2="1" y2="0" gradientUnits="userSpaceOnUse" gradientTransform="matrix(-705.357,-1723.47,1723.47,-705.357,1164.23,1686.62)"><stop offset="0%" style="stop-color:#f00;stop-opacity:1"/><stop offset="84%" style="stop-color:#000;stop-opacity:1"/><stop offset="100%" style="stop-color:#000;stop-opacity:1"/></linearGradient><linearGradient id="_Linear10" x1="0" y1="0" x2="1" y2="0" gradientUnits="userSpaceOnUse" gradientTransform="matrix(-0.0609821,-0.111227,0.111227,-0.0609821,945.253,1778.35)"><stop offset="0%" style="stop-color:#f00;stop-opacity:1"/><stop offset="100%" style="stop-color:#000;stop-opacity:1"/></linearGradient><linearGradient id="_Linear13" x1="0" y1="0" x2="1" y2="0" gradientUnits="userSpaceOnUse" gradientTransform="matrix(-787.735,-1924.75,1924.75,-787.735,937.967,1772.93)"><stop offset="0%" style="stop-color:#f00;stop-opacity:1"/><stop offset="81%" style="stop-color:#000;stop-opacity:1"/><stop offset="100%" style="stop-color:#000;stop-opacity:1"/></linearGradient><linearGradient id="_Linear16" x1="0" y1="0" x2="1" y2="0" gradientUnits="userSpaceOnUse" gradientTransform="matrix(-471.172,-1151.26,1151.26,-471.172,618.173,1910.98)"><stop offset="0%" style="stop-color:#f00;stop-opacity:1"/><stop offset="100%" style="stop-color:#000;stop-opacity:1"/></linearGradient><linearGradient id="_Linear18" x1="0" y1="0" x2="1" y2="0" gradientUnits="userSpaceOnUse" gradientTransform="matrix(-568.518,-1389.12,1389.12,-568.518,685.052,1881.89)"><stop offset="0%" style="stop-color:#f00;stop-opacity:1"/><stop offset="100%" style="stop-color:#000;stop-opacity:1"/></linearGradient><linearGradient id="_Linear21" x1="0" y1="0" x2="1" y2="0" gradientUnits="userSpaceOnUse" gradientTransform="matrix(-615.27,-1503.35,1503.35,-615.27,800.526,1829.83)"><stop offset="0%" style="stop-color:#f00;stop-opacity:1"/><stop offset="100%" style="stop-color:#000;stop-opacity:1"/></linearGradient><linearGradient id="_Linear23" x1="0" y1="0" x2="1" y2="0" gradientUnits="userSpaceOnUse" gradientTransform="matrix(-755.974,-1847.14,1847.14,-755.974,794.368,1835.94)"><stop offset="0%" style="stop-color:#f00;stop-opacity:1"/><stop offset="100%" style="stop-color:#000;stop-opacity:1"/></linearGradient><linearGradient id="_Linear25" x1="0" y1="0" x2="1" y2="0" gradientUnits="userSpaceOnUse" gradientTransform="matrix(-0.137909,-0.251536,0.251536,-0.137909,945.224,1778.35)"><stop offset="0%" style="stop-color:#f00;stop-opacity:1"/><stop offset="100%" style="stop-color:#000;stop-opacity:1"/></linearGradient><linearGradient id="_Linear27" x1="0" y1="0" x2="1" y2="0" gradientUnits="userSpaceOnUse" gradientTransform="matrix(-0.027948,-0.0509752,0.0509752,-0.027948,945.27,1778.41)"><stop offset="0%" style="stop-color:#f00;stop-opacity:1"/><stop offset="100%" style="stop-color:#000;stop-opacity:1"/></linearGradient><linearGradient id="_Linear29" x1="0" y1="0" x2="1" y2="0" gradientUnits="userSpaceOnUse" gradientTransform="matrix(-0.137288,-0.250404,0.250404,-0.137288,945.246,1778.26)"><stop offset="0%" style="stop-color:#f00;stop-opacity:1"/><stop offset="100%" style="stop-color:#000;stop-opacity:1"/></linearGradient><linearGradient id="_Linear31" x1="0" y1="0" x2="1" y2="0" gradientUnits="userSpaceOnUse" gradientTransform="matrix(-0.608176,-1.10927,1.10927,-0.608176,945.984,1779.29)"><stop offset="0%" style="stop-color:#f00;stop-opacity:1"/><stop offset="100%" style="stop-color:#000;stop-opacity:1"/></linearGradient><linearGradient id="_Linear33" x1="0" y1="0" x2="1" y2="0" gradientUnits="userSpaceOnUse" gradientTransform="matrix(-745.947,-1822.64,1822.64,-745.947,1065.18,1724.18)"><stop offset="0%" style="stop-color:#f00;stop-opacity:1"/><stop offset="100%" style="stop-color:#000;stop-opacity:1"/></linearGradient><linearGradient id="_Linear35" x1="0" y1="0" x2="1" y2="0" gradientUnits="userSpaceOnUse" gradientTransform="matrix(-0.298817,-0.545021,0.545021,-0.298817,945.051,1777.53)"><stop offset="0%" style="stop-color:#f00;stop-opacity:1"/><stop offset="100%" style="stop-color:#000;stop-opacity:1"/></linearGradient><linearGradient id="_Linear37" x1="0" y1="0" x2="1" y2="0" gradientUnits="userSpaceOnUse" gradientTransform="matrix(-0.558814,-1.01924,1.01924,-0.558814,945.541,1778.58)"><stop offset="0%" style="stop-color:#f00;stop-opacity:1"/><stop offset="100%" style="stop-color:#000;stop-opacity:1"/></linearGradient><linearGradient id="_Linear39" x1="0" y1="0" x2="1" y2="0" gradientUnits="userSpaceOnUse" gradientTransform="matrix(682.03,77.4285,-77.4285,682.03,365.228,806.374)"><stop offset="0%" style="stop-color:#f00;stop-opacity:1"/><stop offset="28%" style="stop-color:#400000;stop-opacity:1"/><stop offset="100%" style="stop-color:#000;stop-opacity:1"/></linearGradient><linearGradient id="_Linear42" x1="0" y1="0" x2="1" y2="0" gradientUnits="userSpaceOnUse" gradientTransform="matrix(905.996,102.855,-102.855,905.996,141.499,778.862)"><stop offset="0%" style="stop-color:#f00;stop-opacity:1"/><stop offset="28%" style="stop-color:#400000;stop-opacity:1"/><stop offset="100%" style="stop-color:#000;stop-opacity:1"/></linearGradient><linearGradient id="_Linear45" x1="0" y1="0" x2="1" y2="0" gradientUnits="userSpaceOnUse" gradientTransform="matrix(1217.57,138.227,-138.227,1217.57,-170.525,751.11)"><stop offset="0%" style="stop-color:#f00;stop-opacity:1"/><stop offset="28%" style="stop-color:#400000;stop-opacity:1"/><stop offset="100%" style="stop-color:#000;stop-opacity:1"/></linearGradient><linearGradient id="_Linear48" x1="0" y1="0" x2="1" y2="0" gradientUnits="userSpaceOnUse" gradientTransform="matrix(1140.66,129.496,-129.496,1140.66,-114.374,939.01)"><stop offset="0%" style="stop-color:#f00;stop-opacity:1"/><stop offset="28%" style="stop-color:#400000;stop-opacity:1"/><stop offset="100%" style="stop-color:#000;stop-opacity:1"/></linearGradient><linearGradient id="_Linear50" x1="0" y1="0" x2="1" y2="0" gradientUnits="userSpaceOnUse" gradientTransform="matrix(1135.33,128.89,-128.89,1135.33,-118.4,1030.01)"><stop offset="0%" style="stop-color:#f00;stop-opacity:1"/><stop offset="28%" style="stop-color:#400000;stop-opacity:1"/><stop offset="100%" style="stop-color:#000;stop-opacity:1"/></linearGradient><linearGradient id="_Linear53" x1="0" y1="0" x2="1" y2="0" gradientUnits="userSpaceOnUse" gradientTransform="matrix(1136.08,128.975,-128.975,1136.08,-137.333,1190.08)"><stop offset="0%" style="stop-color:#f00;stop-opacity:1"/><stop offset="28%" style="stop-color:#400000;stop-opacity:1"/><stop offset="100%" style="stop-color:#000;stop-opacity:1"/></linearGradient></defs></svg>